<svg width="97" height="93" viewBox="0 0 97 93" fill="none" xmlns="http://www.w3.org/2000/svg">
    <g clip-path="url(#clip0_2_153)">
        <path d="M65.3246 15.9249C75.1938 23.431 87.0525 31.1416 89.2926 41.1812C91.5328 51.2208 84.3111 63.5893 74.5202 71.7091C64.7293 79.8289 52.479 83.7315 38.8345 85.069C25.1899 86.4066 10.2138 85.2107 3.94768 77.1066C-2.31847 69.0025 0.109666 53.9274 2.80411 41.5589C5.49855 29.1904 8.41231 19.5284 14.6785 12.0381C20.9446 4.54772 30.5632 -0.849747 39.1634 0.110152C47.7637 1.07005 55.5338 8.40305 65.3246 15.9249Z" fill="#EFEFEF"/>
        <path d="M15.8534 61.8269C15.3542 61.8269 14.8599 61.7279 14.399 61.5355C13.938 61.3432 13.5194 61.0613 13.1671 60.706C12.8149 60.3507 12.536 59.929 12.3464 59.4652C12.1568 59.0013 12.0603 58.5045 12.0623 58.003V34.0685C12.0611 34.0095 12.0732 33.951 12.0976 33.8973C12.1219 33.8436 12.158 33.7961 12.2032 33.7583C12.2483 33.7206 12.3013 33.6935 12.3583 33.6791C12.4153 33.6647 12.4747 33.6633 12.5323 33.6751H85.063C85.1669 33.6751 85.2665 33.7166 85.3399 33.7903C85.4134 33.8641 85.4546 33.9642 85.4546 34.0685V58.003C85.4548 59.0037 85.0645 59.9646 84.3675 60.6795C83.6705 61.3944 82.7222 61.8063 81.7263 61.8269H15.9317H15.8534Z" fill="white"/>
        <path d="M84.9846 34.0685V58.003C84.9723 58.9005 84.6087 59.7569 83.9725 60.3872C83.3364 61.0174 82.4788 61.3706 81.5853 61.3706H15.7907C14.9218 61.3344 14.0998 60.9651 13.4937 60.3388C12.8876 59.7124 12.5436 58.8765 12.5323 58.003V34.0685H85.063H84.9846ZM85.063 33.2817H12.5323C12.3246 33.2817 12.1253 33.3646 11.9784 33.5122C11.8315 33.6597 11.749 33.8599 11.749 34.0685V58.003C11.749 59.1188 12.1892 60.1891 12.9731 60.9795C13.7571 61.77 14.8209 62.2161 15.9317 62.2203H81.7262C82.8261 62.1997 83.8739 61.7463 84.6444 60.9576C85.4149 60.169 85.8464 59.108 85.8462 58.003V34.0685C85.8462 33.8599 85.7637 33.6597 85.6168 33.5122C85.4699 33.3646 85.2707 33.2817 85.063 33.2817Z" fill="#4D4D4D"/>
        <path d="M92.8174 43.935H27.0855C24.9917 43.935 23.2944 45.64 23.2944 47.7432V88.7985C23.2944 90.9016 24.9917 92.6066 27.0855 92.6066H92.8174C94.9111 92.6066 96.6084 90.9016 96.6084 88.7985V47.7432C96.6084 45.64 94.9111 43.935 92.8174 43.935Z" fill="white"/>
        <path d="M92.8173 44.3284C93.2637 44.3284 93.7058 44.4168 94.1182 44.5884C94.5306 44.76 94.9054 45.0115 95.221 45.3286C95.5367 45.6457 95.7871 46.0221 95.9579 46.4364C96.1288 46.8507 96.2167 47.2947 96.2167 47.7431V88.7985C96.2167 89.7041 95.8586 90.5727 95.221 91.2131C94.5835 91.8534 93.7189 92.2132 92.8173 92.2132H27.0227C26.1212 92.2132 25.2565 91.8534 24.619 91.2131C23.9815 90.5727 23.6234 89.7041 23.6234 88.7985V47.7431C23.6234 46.8375 23.9815 45.969 24.619 45.3286C25.2565 44.6882 26.1212 44.3284 27.0227 44.3284H92.8173ZM92.8173 43.5416H27.0227C25.9147 43.5458 24.8532 43.9898 24.0697 44.7768C23.2862 45.5638 22.8442 46.6301 22.8401 47.7431V88.7985C22.8442 89.9115 23.2862 90.9778 24.0697 91.7648C24.8532 92.5519 25.9147 92.9959 27.0227 93H92.8173C93.9254 92.9959 94.9868 92.5519 95.7703 91.7648C96.5538 90.9778 96.9958 89.9115 97 88.7985V47.7431C96.9958 46.6301 96.5538 45.5638 95.7703 44.7768C94.9868 43.9898 93.9254 43.5458 92.8173 43.5416Z" fill="#4D4D4D"/>
        <path d="M12.5323 24.202C12.4284 24.202 12.3288 24.1606 12.2554 24.0868C12.1819 24.013 12.1407 23.913 12.1407 23.8086V16.9635C12.1386 16.462 12.2351 15.9652 12.4247 15.5013C12.6143 15.0375 12.8932 14.6158 13.2455 14.2605C13.5977 13.9052 14.0163 13.6233 14.4773 13.431C14.9383 13.2386 15.4325 13.1396 15.9317 13.1396H81.7262C82.7331 13.1438 83.6974 13.5485 84.4079 14.2651C85.1184 14.9818 85.5173 15.952 85.5173 16.9635V23.8086C85.5173 23.913 85.476 24.013 85.4026 24.0868C85.3291 24.1606 85.2295 24.202 85.1256 24.202H12.5323Z" fill="white"/>
        <path d="M81.5852 13.533C82.4882 13.5372 83.3528 13.9004 83.9899 14.5433C84.627 15.1862 84.9846 16.0564 84.9846 16.9635V23.8086H12.5323V16.9635C12.5319 16.0698 12.8788 15.2112 13.499 14.5705C14.1193 13.9298 14.964 13.5576 15.8533 13.533H81.6479H81.5852ZM81.6479 12.7462H15.8533C14.7426 12.7504 13.6787 13.1965 12.8948 13.9869C12.1108 14.7774 11.6706 15.8477 11.6707 16.9635V23.8086C11.6707 24.0173 11.7532 24.2174 11.9001 24.365C12.047 24.5125 12.2462 24.5954 12.4539 24.5954H84.9846C85.1923 24.5954 85.3916 24.5125 85.5385 24.365C85.6854 24.2174 85.7679 24.0173 85.7679 23.8086V16.9635C85.7679 15.8477 85.3277 14.7774 84.5438 13.9869C83.7598 13.1965 82.696 12.7504 81.5852 12.7462H81.6479Z" fill="#4D4D4D"/>
        <path d="M78.1702 68.6721C77.1499 68.6713 76.1414 68.452 75.2121 68.0287C74.2828 67.6054 73.4541 66.9878 72.7813 66.2173C72.6403 66.2173 72.6717 66.1071 72.6717 65.9497V56.9015C72.6749 56.8411 72.6904 56.7819 72.7174 56.7278C72.7443 56.6736 72.7821 56.6256 72.8283 56.5868C73.5022 55.8344 74.326 55.2327 75.2462 54.8206C76.1665 54.4086 77.1627 54.1954 78.1702 54.1949H78.6245C80.3647 54.3046 82.0062 55.0443 83.2448 56.277C84.4835 57.5096 85.2352 59.1516 85.3606 60.8985C85.4367 61.8896 85.306 62.8858 84.9769 63.8234C84.6478 64.7609 84.1276 65.6191 83.4494 66.3431C82.7742 67.0725 81.9574 67.6554 81.0496 68.0559C80.1417 68.4564 79.1618 68.6661 78.1702 68.6721Z" fill="#FFCC03"/>
        <path d="M78.1702 54.5883H78.6088C79.7283 54.6582 80.8133 55.0045 81.7675 55.5966C82.7217 56.1887 83.5157 57.0082 84.079 57.9825C84.6424 58.9567 84.9575 60.0556 84.9967 61.1816C85.0358 62.3076 84.7976 63.4259 84.3033 64.4372C83.809 65.4485 83.0738 66.3217 82.1629 66.9791C81.2521 67.6366 80.1938 68.0581 79.0819 68.2061C77.97 68.3542 76.839 68.2243 75.7891 67.8279C74.7392 67.4316 73.8029 66.781 73.0633 65.934V56.9015C73.7027 56.1744 74.4887 55.5922 75.3692 55.1934C76.2496 54.7946 77.2044 54.5883 78.1702 54.5883ZM78.1702 53.8015C77.0945 53.8028 76.0313 54.0335 75.051 54.4784C74.0707 54.9233 73.1956 55.5722 72.4837 56.3822C72.3561 56.5253 72.2839 56.7095 72.28 56.9015V65.9497C72.2805 66.1624 72.3651 66.3661 72.515 66.5162C73.225 67.3181 74.0961 67.9599 75.0708 68.3993C76.0455 68.8387 77.1018 69.0657 78.1702 69.0655C79.214 69.0627 80.2461 68.8448 81.2026 68.4253C82.1592 68.0057 83.0199 67.3935 83.7314 66.6264C84.446 65.8619 84.9946 64.9565 85.3425 63.9678C85.6903 62.9791 85.8299 61.9285 85.7523 60.8827C85.6164 59.0434 84.8234 57.3154 83.5193 56.017C82.2152 54.7187 80.488 53.9374 78.6558 53.8173L78.1702 53.8015Z" fill="#4D4D4D"/>
        <path d="M40.4637 81.8431H32.6467C32.2141 81.8431 31.8634 82.1954 31.8634 82.6299V82.7716C31.8634 83.2061 32.2141 83.5584 32.6467 83.5584H40.4637C40.8963 83.5584 41.247 83.2061 41.247 82.7716V82.6299C41.247 82.1954 40.8963 81.8431 40.4637 81.8431Z" fill="#4D4D4D"/>
        <path d="M54.6408 81.8431H46.8238C46.3912 81.8431 46.0405 82.1954 46.0405 82.6299V82.7716C46.0405 83.2061 46.3912 83.5584 46.8238 83.5584H54.6408C55.0734 83.5584 55.4241 83.2061 55.4241 82.7716V82.6299C55.4241 82.1954 55.0734 81.8431 54.6408 81.8431Z" fill="#4D4D4D"/>
        <path d="M68.8023 81.8431H60.9853C60.5527 81.8431 60.202 82.1954 60.202 82.6299V82.7716C60.202 83.2061 60.5527 83.5584 60.9853 83.5584H68.8023C69.2349 83.5584 69.5856 83.2061 69.5856 82.7716V82.6299C69.5856 82.1954 69.2349 81.8431 68.8023 81.8431Z" fill="#4D4D4D"/>
        <path d="M82.9638 81.8431H75.1468C74.7142 81.8431 74.3635 82.1954 74.3635 82.6299V82.7716C74.3635 83.2061 74.7142 83.5584 75.1468 83.5584H82.9638C83.3964 83.5584 83.7471 83.2061 83.7471 82.7716V82.6299C83.7471 82.1954 83.3964 81.8431 82.9638 81.8431Z" fill="#4D4D4D"/>
        <path d="M48.641 70.3401H32.6467C32.2141 70.3401 31.8634 70.6924 31.8634 71.1269V71.2685C31.8634 71.7031 32.2141 72.0553 32.6467 72.0553H48.641C49.0736 72.0553 49.4243 71.7031 49.4243 71.2685V71.1269C49.4243 70.6924 49.0736 70.3401 48.641 70.3401Z" fill="#4D4D4D"/>
        <path d="M26.8191 88.7985V47.7432C26.8191 46.8375 27.1773 45.969 27.8148 45.3286C28.4523 44.6882 29.3169 44.3284 30.2185 44.3284H27.0854C26.639 44.3284 26.197 44.4168 25.7845 44.5884C25.3721 44.76 24.9974 45.0115 24.6817 45.3286C24.366 45.6457 24.1156 46.0221 23.9448 46.4364C23.774 46.8507 23.686 47.2947 23.686 47.7432V88.7985C23.686 89.7041 24.0442 90.5727 24.6817 91.2131C25.3192 91.8534 26.1838 92.2132 27.0854 92.2132H30.2185C29.3169 92.2132 28.4523 91.8534 27.8148 91.2131C27.1773 90.5727 26.8191 89.7041 26.8191 88.7985Z" fill="#E0E0E0"/>
        <path d="M15.6654 58.003V34.0685H12.5323V58.003C12.5443 58.887 12.897 59.7319 13.5164 60.3599C14.1358 60.988 14.9736 61.3503 15.8534 61.3706H18.9865C18.1066 61.3503 17.2689 60.988 16.6495 60.3599C16.0301 59.7319 15.6774 58.887 15.6654 58.003Z" fill="#E0E0E0"/>
        <path d="M18.9865 13.533H15.8534C14.9641 13.5576 14.1194 13.9298 13.4991 14.5705C12.8789 15.2112 12.532 16.0698 12.5323 16.9635V23.8086H15.6654V16.9635C15.6651 16.0698 16.012 15.2112 16.6322 14.5705C17.2525 13.9298 18.0971 13.5576 18.9865 13.533Z" fill="#E0E0E0"/>
        <path d="M84.9847 23.4152H12.454C12.2377 23.4152 12.0624 23.5914 12.0624 23.8086V34.0685C12.0624 34.2858 12.2377 34.4619 12.454 34.4619H84.9847C85.201 34.4619 85.3763 34.2858 85.3763 34.0685V23.8086C85.3763 23.5914 85.201 23.4152 84.9847 23.4152Z" fill="#CCCCCC"/>
        <path d="M84.9846 23.8086V34.0685H12.5323V23.8086H85.063H84.9846ZM85.063 23.0218H12.5323C12.3246 23.0218 12.1253 23.1047 11.9784 23.2523C11.8315 23.3998 11.749 23.6 11.749 23.8086V34.0685C11.749 34.2772 11.8315 34.4773 11.9784 34.6249C12.1253 34.7724 12.3246 34.8553 12.5323 34.8553H85.063C85.2707 34.8553 85.4699 34.7724 85.6168 34.6249C85.7637 34.4773 85.8462 34.2772 85.8462 34.0685V23.8086C85.8462 23.6 85.7637 23.3998 85.6168 23.2523C85.4699 23.1047 85.2707 23.0218 85.063 23.0218Z" fill="#4D4D4D"/>
        <path d="M15.5871 23.8086H12.454V34.0685H15.5871V23.8086Z" fill="#AAAAAA"/>
        <path d="M74.6299 65.9497V56.9015C75.74 55.6513 77.2663 54.8511 78.9222 54.6513H78.6089C77.5713 54.5839 76.5321 54.7558 75.5709 55.1541C74.6097 55.5523 73.752 56.1662 73.0634 56.9487V65.997C73.6994 66.7293 74.4844 67.3161 75.3653 67.7179C76.2463 68.1196 77.2028 68.3269 78.1703 68.3259C78.4383 68.3109 78.7051 68.2794 78.9692 68.2315C77.2899 68.0418 75.742 67.2279 74.6299 65.9497Z" fill="#FFCC03"/>
        <path d="M67.9564 68.6721C71.9362 68.6721 75.1625 65.4313 75.1625 61.4335C75.1625 57.4357 71.9362 54.1949 67.9564 54.1949C63.9766 54.1949 60.7504 57.4357 60.7504 61.4335C60.7504 65.4313 63.9766 68.6721 67.9564 68.6721Z" fill="#FFCC03"/>
        <path d="M67.9564 54.5883C69.3047 54.5977 70.62 55.0087 71.7358 55.7694C72.8515 56.53 73.7175 57.606 74.2242 58.8613C74.7308 60.1165 74.8554 61.4946 74.582 62.8209C74.3087 64.1473 73.6498 65.3624 72.6886 66.3124C71.7275 67.2625 70.5074 67.9047 69.1828 68.1579C67.8581 68.4111 66.4884 68.2638 65.2472 67.7347C64.0059 67.2056 62.9488 66.3184 62.2096 65.1856C61.4705 64.0527 61.0826 62.725 61.0949 61.3706C61.0949 59.5551 61.8129 57.814 63.0908 56.5303C64.3688 55.2466 66.1021 54.5254 67.9094 54.5254L67.9564 54.5883ZM67.9094 53.7386C66.4087 53.7479 64.9444 54.2034 63.7012 55.0477C62.4579 55.8919 61.4914 57.0871 60.9236 58.4825C60.3557 59.8778 60.212 61.4109 60.5104 62.8882C60.8089 64.3655 61.5361 65.721 62.6006 66.7837C63.665 67.8463 65.0188 68.5685 66.4913 68.8592C67.9638 69.1498 69.4891 68.996 70.8746 68.417C72.2602 67.838 73.444 66.8597 74.2768 65.6057C75.1096 64.3517 75.554 62.878 75.5541 61.3706C75.5499 59.3477 74.7481 57.4089 73.3242 55.9785C71.9002 54.5482 69.9701 53.7427 67.9564 53.7386H67.9094Z" fill="#4D4D4D"/>
        <path d="M62.6615 61.3706C62.6662 59.6961 63.2832 58.0818 64.3951 56.8343C65.507 55.5868 67.0364 54.7931 68.6927 54.6041C68.4334 54.5623 68.1718 54.536 67.9094 54.5254C66.1021 54.5254 64.3688 55.2466 63.0909 56.5303C61.8129 57.814 61.095 59.5551 61.095 61.3706C61.095 63.186 61.8129 64.9271 63.0909 66.2108C64.3688 67.4946 66.1021 68.2157 67.9094 68.2157C68.1703 68.2313 68.4318 68.2313 68.6927 68.2157C67.0243 68.0219 65.486 67.2159 64.3729 65.9526C63.2598 64.6893 62.6504 63.0576 62.6615 61.3706Z" fill="#FFCC03"/>
    </g>
    <defs>
        <clipPath id="clip0_2_153">
            <rect width="97" height="93" fill="white"/>
        </clipPath>
    </defs>
</svg>
