<svg width="107" height="97" viewBox="0 0 107 97" fill="none" xmlns="http://www.w3.org/2000/svg">
    <g clip-path="url(#clip0_2_101)">
        <path d="M97.0213 64.131C91.7071 76.0427 86.7094 90.1909 76.9473 94.9954C67.1852 99.7998 52.6587 95.3764 41.8637 87.2752C31.0688 79.1739 24.0387 67.3947 19.2743 53.7766C14.5098 40.1585 12.061 24.3701 18.8911 15.9375C25.7213 7.50487 41.7971 6.32861 55.1742 6.08011C68.5513 5.8316 79.2463 6.46115 88.4919 11.0502C97.7376 15.6393 105.667 24.3038 106.817 33.3826C107.966 42.4613 102.352 52.2027 97.0213 64.131Z" fill="#EFEFEF"/>
        <path d="M6.03049 73.1932C5.92003 73.1932 5.8141 73.1495 5.736 73.0719C5.65789 72.9942 5.61401 72.8888 5.61401 72.779V23.9891C5.61401 22.7017 6.12827 21.467 7.04364 20.5567C7.95902 19.6464 9.20053 19.1349 10.4951 19.1349H78.4633C79.7491 19.148 80.9779 19.6652 81.8825 20.5741C82.7871 21.483 83.2944 22.7102 83.2944 23.9891V72.779C83.2944 72.8888 83.2505 72.9942 83.1724 73.0719C83.0943 73.1495 82.9884 73.1932 82.8779 73.1932H6.03049Z" fill="white"/>
        <path d="M78.4633 19.5491C79.646 19.5535 80.779 20.0227 81.6153 20.8544C82.4517 21.6861 82.9235 22.8129 82.9278 23.9891V72.779H6.03045V23.9891C6.03484 22.8129 6.50663 21.6861 7.34295 20.8544C8.17927 20.0227 9.3123 19.5535 10.495 19.5491H78.4633ZM78.4633 18.7208H10.495C9.09004 18.7208 7.7426 19.2758 6.74912 20.2638C5.75564 21.2518 5.19751 22.5918 5.19751 23.9891V72.779C5.19751 72.9987 5.28527 73.2094 5.44147 73.3647C5.59768 73.5201 5.80954 73.6073 6.03045 73.6073H82.9278C83.1488 73.6073 83.3606 73.5201 83.5168 73.3647C83.673 73.2094 83.7608 72.9987 83.7608 72.779V23.9891C83.7608 22.5918 83.2027 21.2518 82.2092 20.2638C81.2157 19.2758 79.8682 18.7208 78.4633 18.7208Z" fill="#4D4D4D"/>
        <path d="M12.9939 66.2682C12.8834 66.2682 12.7775 66.2245 12.6994 66.1469C12.6213 66.0692 12.5774 65.9638 12.5774 65.854V26.5073C12.5774 26.3974 12.6213 26.2921 12.6994 26.2144C12.7775 26.1367 12.8834 26.0931 12.9939 26.0931C23.489 26.0931 33.9841 26.0931 44.4792 26.0931C54.9742 26.0931 65.4693 26.0931 75.9644 26.0931C76.0749 26.0931 76.1808 26.1367 76.2589 26.2144C76.337 26.2921 76.3809 26.3974 76.3809 26.5073V65.7712C76.3809 65.881 76.337 65.9864 76.2589 66.064C76.1808 66.1417 76.0749 66.1853 75.9644 66.1853L12.9939 66.2682Z" fill="#CCCCCC"/>
        <path d="M12.9938 26.5073C33.984 26.5073 54.9742 26.6564 75.9644 26.6564V65.9203H12.9938V26.5073ZM12.9938 25.6789C12.7729 25.6789 12.5611 25.7662 12.4049 25.9215C12.2486 26.0769 12.1609 26.2876 12.1609 26.5073V65.8705C12.1609 66.0902 12.2486 66.3009 12.4049 66.4563C12.5611 66.6116 12.7729 66.6989 12.9938 66.6989H75.9644C76.1853 66.6989 76.3972 66.6116 76.5534 66.4563C76.7096 66.3009 76.7973 66.0902 76.7973 65.8705V26.6067C76.7973 26.387 76.7096 26.1763 76.5534 26.0209C76.3972 25.8656 76.1853 25.7783 75.9644 25.7783C65.4693 25.7783 54.9742 25.7783 44.4791 25.7783C33.984 25.7783 23.4889 25.7783 12.9938 25.7783V25.6789Z" fill="#4D4D4D"/>
        <path d="M44.4792 52.5175C44.3688 52.5141 44.263 52.4731 44.1793 52.4015L29.0864 37.3752C26.0899 34.4048 24.034 30.6266 23.1725 26.5073C22.6842 24.1872 22.5773 21.8038 22.8559 19.4497C23.3489 15.4191 24.9716 11.6075 27.5386 8.45006C30.1057 5.29266 33.5137 2.91668 37.3737 1.59336C41.2336 0.27004 45.3899 0.0527062 49.3681 0.966169C53.3463 1.87963 56.9861 3.88708 59.872 6.75935C63.346 10.1773 65.5438 14.6714 66.1024 19.4994C66.3866 21.9044 66.2684 24.3395 65.7526 26.7061C64.8696 30.7526 62.8271 34.4583 59.872 37.3752L44.779 52.4015C44.6953 52.4731 44.5895 52.5141 44.4792 52.5175Z" fill="#FFCC03"/>
        <path d="M44.4792 0.828353C48.7021 0.828423 52.8302 2.07351 56.3417 4.40625C59.8532 6.73898 62.5905 10.0546 64.2076 13.9341C65.8247 17.8136 66.249 22.0828 65.4269 26.2021C64.6048 30.3214 62.5732 34.1058 59.5888 37.077L44.4792 52.1033L29.3863 37.077C26.4567 34.1929 24.4412 30.5182 23.589 26.5073C23.1212 24.2176 23.0312 21.8675 23.3224 19.5491C23.941 14.3973 26.4344 9.64884 30.3321 6.19995C34.2297 2.75106 39.2621 0.840323 44.4792 0.828353ZM44.4792 1.0164e-06C39.0488 -0.00163721 33.8063 1.97714 29.7445 5.56161C25.6827 9.14607 23.0837 14.0874 22.4395 19.4497C22.1583 21.8485 22.2709 24.2769 22.7727 26.6398C23.6567 30.8207 25.7465 34.6548 28.7865 37.6734L43.8962 52.6832C43.9709 52.7624 44.0613 52.8256 44.1615 52.8687C44.2618 52.9119 44.3699 52.9342 44.4792 52.9342C44.5885 52.9342 44.6966 52.9119 44.7969 52.8687C44.8972 52.8256 44.9875 52.7624 45.0623 52.6832L60.1719 37.6734C63.1769 34.693 65.2534 30.9137 66.1524 26.7889C66.6818 24.3795 66.8057 21.8994 66.5189 19.4497C65.8748 14.0874 63.2757 9.14607 59.2139 5.56161C55.1521 1.97714 49.9096 -0.00163721 44.4792 1.0164e-06Z" fill="#4D4D4D"/>
        <path d="M44.4792 35.2547C42.7422 35.2744 41.0186 34.9506 39.4085 34.3021C37.7984 33.6537 36.334 32.6935 35.1002 31.4774C32.6282 28.9955 31.2413 25.6435 31.2413 22.1501C31.2413 18.6568 32.6282 15.3047 35.1002 12.8229C37.6574 10.7328 40.9052 9.66396 44.2113 9.82433C47.5174 9.9847 50.6452 11.3629 52.9857 13.6905C55.3263 16.0181 56.712 19.1286 56.8733 22.4165C57.0346 25.7044 55.9598 28.9343 53.8581 31.4774C52.6244 32.6935 51.1599 33.6537 49.5499 34.3021C47.9398 34.9506 46.2162 35.2744 44.4792 35.2547Z" fill="#FFCC03"/>
        <path d="M44.4791 9.27754C47.4545 9.27841 50.3375 10.3052 52.6369 12.183C54.9363 14.0608 56.5099 16.6733 57.0896 19.5756C57.6692 22.4778 57.2191 25.4901 55.8159 28.0993C54.4126 30.7085 52.1431 32.7531 49.3939 33.8847C46.6448 35.0164 43.5862 35.165 40.7392 34.3054C37.8921 33.4458 35.4329 31.6311 33.7805 29.1705C32.128 26.7098 31.3846 23.7555 31.6769 20.8109C31.9692 17.8663 33.2791 15.1135 35.3834 13.0217C37.7981 10.6265 41.0686 9.28017 44.4791 9.27754ZM44.4791 8.44919C41.311 8.44733 38.2401 9.53804 35.79 11.5355C33.3398 13.5329 31.6618 16.3134 31.0421 19.4032C30.4223 22.4931 30.899 25.7011 32.391 28.4805C33.883 31.26 36.298 33.439 39.2244 34.6462C42.1508 35.8533 45.4076 36.0141 48.4398 35.1009C51.472 34.1877 54.092 32.2572 55.8534 29.6383C57.6148 27.0194 58.4085 23.8741 58.0993 20.7384C57.7902 17.6027 56.3973 14.6707 54.1579 12.4418C52.8894 11.1741 51.381 10.1686 49.7199 9.48335C48.0587 8.79809 46.2776 8.44662 44.4791 8.44919Z" fill="#4D4D4D"/>
        <path d="M32.7179 37.077C29.7883 34.1929 27.7729 30.5182 26.9207 26.5073C26.4529 24.2176 26.3629 21.8675 26.6541 19.5491C27.2357 14.6807 29.4956 10.163 33.0492 6.76495C36.6028 3.36686 41.2305 1.29827 46.145 0.911187C40.6575 0.488012 35.2179 2.19144 30.9643 5.66515C26.7106 9.13885 23.9724 14.1137 23.3223 19.5491C23.0311 21.8675 23.1211 24.2176 23.5889 26.5073C24.4319 30.536 26.448 34.2291 29.3862 37.1267L44.4791 52.153L46.145 50.4963L32.7179 37.077Z" fill="#FFCC03"/>
        <path d="M38.7152 31.0963C37.0161 29.4112 35.8263 27.2859 35.2811 24.9618C34.7359 22.6378 34.8571 20.2083 35.631 17.9494C36.405 15.6905 37.8005 13.6927 39.6591 12.1832C41.5177 10.6737 43.7648 9.71293 46.1451 9.41008C44.3469 9.20542 42.5255 9.38102 40.8003 9.92538C39.0751 10.4697 37.4851 11.3705 36.1345 12.5688C34.7839 13.767 33.7032 15.2356 32.9632 16.8782C32.2232 18.5208 31.8407 20.3005 31.8407 22.1004C31.8407 23.9004 32.2232 25.68 32.9632 27.3227C33.7032 28.9653 34.7839 30.4339 36.1345 31.6321C37.4851 32.8303 39.0751 33.7311 40.8003 34.2755C42.5255 34.8198 44.3469 34.9954 46.1451 34.7908C43.3231 34.4191 40.7074 33.1185 38.7152 31.0963Z" fill="#FFCC03"/>
        <path d="M13.8269 19.5491H10.4951C9.31237 19.5535 8.17933 20.0227 7.34301 20.8544C6.50669 21.6861 6.03491 22.8129 6.03052 23.9891V72.779H9.36229V23.9891C9.36668 22.8129 9.83847 21.6861 10.6748 20.8544C11.5111 20.0227 12.6441 19.5535 13.8269 19.5491Z" fill="#E0E0E0"/>
        <path d="M5.73066 84.0777C5.66601 84.0777 5.60224 84.0627 5.54441 84.034C5.48658 84.0052 5.43628 83.9635 5.39749 83.912L0.499774 77.4012C0.474196 77.3203 0.474196 77.2336 0.499774 77.1527V72.779C0.499774 72.6691 0.543652 72.5638 0.621756 72.4861C0.699859 72.4084 0.805791 72.3648 0.916246 72.3648H88.1255C88.236 72.3648 88.3419 72.4084 88.42 72.4861C88.4981 72.5638 88.542 72.6691 88.542 72.779V77.1527C88.5676 77.2336 88.5676 77.3203 88.542 77.4012L83.6443 83.912C83.6055 83.9635 83.5552 84.0052 83.4973 84.034C83.4395 84.0627 83.3757 84.0777 83.3111 84.0777H5.73066Z" fill="#CCCCCC"/>
        <path d="M88.1254 72.779V77.1527L83.2943 83.6635H5.73057L0.832855 77.1527V72.779H88.1254ZM88.1254 71.9506H0.832855C0.611944 71.9506 0.400082 72.0379 0.243874 72.1932C0.0876672 72.3486 -8.91733e-05 72.5593 -8.91733e-05 72.779V77.1527C-0.00684905 77.3329 0.0523378 77.5095 0.1665 77.6497L4.99757 84.1605C5.07326 84.2654 5.17348 84.3504 5.28958 84.4081C5.40568 84.4658 5.53416 84.4946 5.66393 84.4919H83.2943C83.4241 84.4946 83.5526 84.4658 83.6687 84.4081C83.7848 84.3504 83.885 84.2654 83.9607 84.1605L88.8584 77.6497C88.9725 77.5095 89.0317 77.3329 89.025 77.1527V72.779C89.025 72.5593 88.9372 72.3486 88.781 72.1932C88.6248 72.0379 88.4129 71.9506 88.192 71.9506H88.1254Z" fill="#4D4D4D"/>
        <path d="M4.16466 72.779H0.832886V77.1693L5.7306 83.6635H9.06237L4.16466 77.1693V72.779Z" fill="#AAAAAA"/>
        <path d="M12.9939 26.5073V65.8705H16.3257V26.5073H12.9939Z" fill="#AAAAAA"/>
    </g>
    <defs>
        <clipPath id="clip0_2_101">
            <rect width="107" height="97" fill="white"/>
        </clipPath>
    </defs>
</svg>
