<svg width="98" height="95" viewBox="0 0 98 95" fill="none" xmlns="http://www.w3.org/2000/svg">
    <g clip-path="url(#clip0_2_314)">
        <path d="M70.8547 0.172801C82.5684 -1.60837 95.1215 10.2617 97.5069 23.4875C99.8923 36.7133 92.2964 51.2418 83.9543 62.7928C75.6122 74.3438 66.8169 82.8907 55.2099 88.6995C43.6029 94.5082 29.3174 97.5654 19.6293 92.2751C9.94123 86.9847 5.06389 73.3336 2.18545 60.5597C-0.692981 47.7858 -1.5192 35.8892 4.69076 31.4496C10.9007 27.0099 24.1468 29.9342 36.1936 23.6736C48.2404 17.4129 59.1411 1.96726 70.8547 0.172801Z" fill="#EFEFEF"/>
        <path d="M68.616 13.9702H24.973L13.486 32.3003V80.4316H80.1164V32.3003L68.616 13.9702Z" fill="#CCCCCC"/>
        <path d="M80.1163 80.7507H13.4859C13.3976 80.7507 13.3128 80.7157 13.2503 80.6533C13.1879 80.591 13.1528 80.5065 13.1528 80.4184V32.3003C13.1392 32.2435 13.1392 32.1843 13.1528 32.1275L24.6399 13.7841C24.6722 13.7359 24.7157 13.6962 24.7668 13.6684C24.8178 13.6406 24.8749 13.6256 24.933 13.6246H68.6159C68.6741 13.6256 68.7311 13.6406 68.7822 13.6684C68.8332 13.6962 68.8768 13.7359 68.9091 13.7841L80.3962 32.1275C80.4098 32.1843 80.4098 32.2435 80.3962 32.3003V80.4184C80.3972 80.498 80.3695 80.5754 80.3181 80.6364C80.2668 80.6974 80.1952 80.7379 80.1163 80.7507ZM13.8191 80.0861H79.7832V32.3933L68.4427 14.2892H25.1462L13.8191 32.3933V80.0861Z" fill="#4D4D4D"/>
        <path d="M51.3854 75.8458L46.8012 71.26L42.2037 75.8458L39.8983 73.5463V80.4317H53.6908V73.5463L51.3854 75.8458Z" fill="#FFCC03"/>
        <path d="M53.6907 80.7507H39.8982C39.8099 80.7507 39.7251 80.7157 39.6626 80.6533C39.6002 80.591 39.5651 80.5065 39.5651 80.4184V73.5463C39.5659 73.4799 39.5867 73.4153 39.6247 73.3608C39.6627 73.3063 39.7162 73.2644 39.7783 73.2405C39.8388 73.2131 39.9066 73.206 39.9715 73.2204C40.0364 73.2348 40.0949 73.2699 40.1381 73.3203L42.2036 75.3673L46.5613 71.0207C46.5912 70.9889 46.6273 70.9636 46.6674 70.9463C46.7075 70.9289 46.7508 70.92 46.7945 70.92C46.8382 70.92 46.8814 70.9289 46.9215 70.9463C46.9616 70.9636 46.9978 70.9889 47.0277 71.0207L51.3853 75.3673L53.4508 73.3203C53.494 73.2699 53.5525 73.2348 53.6174 73.2204C53.6823 73.206 53.7501 73.2131 53.8106 73.2405C53.8727 73.2644 53.9262 73.3063 53.9642 73.3608C54.0022 73.4153 54.023 73.4799 54.0239 73.5463V80.4184C54.0239 80.462 54.0152 80.5052 53.9985 80.5455C53.9818 80.5859 53.9572 80.6225 53.9263 80.6533C53.8953 80.6842 53.8586 80.7087 53.8182 80.7254C53.7778 80.7421 53.7345 80.7507 53.6907 80.7507ZM40.2314 80.0861H53.3043V74.3571L51.5719 76.0718C51.542 76.1036 51.5058 76.1289 51.4657 76.1462C51.4256 76.1636 51.3824 76.1725 51.3387 76.1725C51.2949 76.1725 51.2517 76.1636 51.2116 76.1462C51.1715 76.1289 51.1354 76.1036 51.1054 76.0718L46.8011 71.7784L42.4302 76.125C42.4003 76.1567 42.3641 76.1821 42.324 76.1994C42.2839 76.2167 42.2407 76.2257 42.197 76.2257C42.1533 76.2257 42.11 76.2167 42.0699 76.1994C42.0298 76.1821 41.9937 76.1567 41.9638 76.125L40.2314 74.4102V80.0861Z" fill="#4D4D4D"/>
        <path d="M42.2037 38.0292L46.8012 42.6151L51.3854 38.0292L53.6908 40.3155V32.3003H39.8983V40.3155L42.2037 38.0292Z" fill="#FFCC03"/>
        <path d="M46.8011 42.9474C46.756 42.9468 46.7115 42.9371 46.6702 42.9188C46.629 42.9005 46.5919 42.8741 46.5613 42.841L42.2036 38.5476L40.1381 40.6079C40.0893 40.6502 40.0297 40.678 39.9659 40.6883C39.9021 40.6985 39.8367 40.6907 39.7771 40.6658C39.7175 40.641 39.666 40.5999 39.6286 40.5474C39.5911 40.4949 39.5691 40.433 39.5651 40.3687V32.3933C39.5651 32.3052 39.6002 32.2207 39.6626 32.1583C39.7251 32.096 39.8099 32.061 39.8982 32.061H53.6907C53.7791 32.061 53.8638 32.096 53.9263 32.1583C53.9888 32.2207 54.0239 32.3052 54.0239 32.3933V40.3687C54.0198 40.433 53.9978 40.4949 53.9604 40.5474C53.9229 40.5999 53.8714 40.641 53.8118 40.6658C53.7522 40.6907 53.6869 40.6985 53.6231 40.6883C53.5593 40.678 53.4996 40.6502 53.4508 40.6079L51.3853 38.5476L47.0277 42.8942C46.961 42.9385 46.8806 42.9574 46.8011 42.9474ZM42.2036 37.6305C42.2459 37.6288 42.288 37.6362 42.3271 37.6523C42.3662 37.6683 42.4014 37.6926 42.4302 37.7235L46.8011 42.0701L51.1588 37.7235C51.2225 37.6656 51.3057 37.6335 51.392 37.6335C51.4782 37.6335 51.5614 37.6656 51.6252 37.7235L53.3576 39.4515V32.6326H40.2314V39.518L41.9638 37.79C41.9951 37.7587 42.0326 37.7343 42.0739 37.7183C42.1152 37.7023 42.1594 37.695 42.2036 37.6969V37.6305Z" fill="#4D4D4D"/>
        <path d="M27.2651 13.9702H24.973L13.486 32.3003V80.4316H15.778V32.3003L27.2651 13.9702Z" fill="#AAAAAA"/>
        <path d="M24.973 13.9702L13.486 32.3003H80.1164L68.616 13.9702H24.973Z" fill="white"/>
        <path d="M80.1164 32.6326H13.486C13.4258 32.6342 13.3663 32.6189 13.3144 32.5883C13.2626 32.5578 13.2204 32.5132 13.1928 32.4598C13.1636 32.4093 13.1482 32.352 13.1482 32.2936C13.1482 32.2353 13.1636 32.178 13.1928 32.1275L24.6799 13.7841C24.7122 13.7359 24.7558 13.6962 24.8068 13.6684C24.8579 13.6406 24.9149 13.6256 24.9731 13.6246H68.616C68.6742 13.6256 68.7312 13.6406 68.7823 13.6684C68.8333 13.6962 68.8769 13.7359 68.9092 13.7841L80.3963 32.1275C80.4284 32.177 80.4455 32.2347 80.4455 32.2936C80.4455 32.3526 80.4284 32.4103 80.3963 32.4598C80.3709 32.5121 80.3311 32.5562 80.2816 32.5868C80.232 32.6174 80.1747 32.6333 80.1164 32.6326ZM14.0857 31.968H79.5034L68.4428 14.2892H25.1463L14.0857 31.968Z" fill="#4D4D4D"/>
        <path d="M53.6775 13.9569H39.8983V32.287H53.6775V13.9569Z" fill="#FFCC03"/>
        <path d="M53.6907 32.6326H39.8982C39.8099 32.6326 39.7251 32.5976 39.6626 32.5352C39.6002 32.4729 39.5651 32.3884 39.5651 32.3003V13.9569C39.5684 13.8698 39.6045 13.7872 39.6663 13.7256C39.7281 13.664 39.8109 13.6279 39.8982 13.6246H53.6907C53.7791 13.6246 53.8638 13.6596 53.9263 13.7219C53.9888 13.7843 54.0239 13.8688 54.0239 13.9569V32.3003C54.0239 32.3884 53.9888 32.4729 53.9263 32.5352C53.8638 32.5976 53.7791 32.6326 53.6907 32.6326ZM40.2314 31.968H53.3043V14.2892H40.2314V31.968Z" fill="#4D4D4D"/>
        <path d="M80.1163 80.7507H13.4859C13.3976 80.7507 13.3128 80.7157 13.2503 80.6533C13.1879 80.591 13.1528 80.5065 13.1528 80.4184V32.3003C13.1392 32.2435 13.1392 32.1843 13.1528 32.1275L24.6399 13.7841C24.6722 13.7359 24.7157 13.6962 24.7668 13.6684C24.8178 13.6406 24.8749 13.6256 24.933 13.6246H68.6159C68.6741 13.6256 68.7311 13.6406 68.7822 13.6684C68.8332 13.6962 68.8768 13.7359 68.9091 13.7841L80.3962 32.1275C80.4098 32.1843 80.4098 32.2435 80.3962 32.3003V80.4184C80.3972 80.498 80.3695 80.5754 80.3181 80.6364C80.2668 80.6974 80.1952 80.7379 80.1163 80.7507ZM13.8191 80.0861H79.7832V32.3933L68.4427 14.2892H25.1462L13.8191 32.3933V80.0861Z" fill="#4D4D4D"/>
        <path d="M24.973 13.9702L13.486 32.3003H15.778L27.2651 13.9702H24.973Z" fill="#E0E0E0"/>
        <path d="M80.1164 32.6326H13.486C13.4258 32.6342 13.3663 32.6189 13.3144 32.5883C13.2626 32.5578 13.2204 32.5132 13.1928 32.4598C13.1636 32.4093 13.1482 32.352 13.1482 32.2936C13.1482 32.2353 13.1636 32.178 13.1928 32.1275L24.6799 13.7841C24.7122 13.7359 24.7558 13.6962 24.8068 13.6684C24.8579 13.6406 24.9149 13.6256 24.9731 13.6246H68.616C68.6742 13.6256 68.7312 13.6406 68.7823 13.6684C68.8333 13.6962 68.8769 13.7359 68.9092 13.7841L80.3963 32.1275C80.4284 32.177 80.4455 32.2347 80.4455 32.2936C80.4455 32.3526 80.4284 32.4103 80.3963 32.4598C80.3709 32.5121 80.3311 32.5562 80.2816 32.5868C80.232 32.6174 80.1747 32.6333 80.1164 32.6326ZM14.0857 31.968H79.5034L68.4428 14.2892H25.1463L14.0857 31.968Z" fill="#4D4D4D"/>
        <path d="M42.1904 13.9569H39.8983V32.287H42.1904V13.9569Z" fill="#FFCC03"/>
        <path d="M53.6907 32.6326H39.8982C39.8099 32.6326 39.7251 32.5976 39.6626 32.5352C39.6002 32.4729 39.5651 32.3884 39.5651 32.3003V13.9569C39.5684 13.8698 39.6045 13.7872 39.6663 13.7256C39.7281 13.664 39.8109 13.6279 39.8982 13.6246H53.6907C53.7791 13.6246 53.8638 13.6596 53.9263 13.7219C53.9888 13.7843 54.0239 13.8688 54.0239 13.9569V32.3003C54.0239 32.3884 53.9888 32.4729 53.9263 32.5352C53.8638 32.5976 53.7791 32.6326 53.6907 32.6326ZM40.2314 31.968H53.3043V14.2892H40.2314V31.968Z" fill="#4D4D4D"/>
        <path d="M42.2037 32.3003H39.8983V40.3155L42.2037 38.0292V32.3003Z" fill="#FFCC03"/>
        <path d="M46.8011 42.9474C46.756 42.9468 46.7115 42.9371 46.6702 42.9188C46.629 42.9005 46.5919 42.8741 46.5613 42.841L42.2036 38.5476L40.1381 40.6079C40.0893 40.6502 40.0297 40.678 39.9659 40.6883C39.9021 40.6985 39.8367 40.6907 39.7771 40.6658C39.7175 40.641 39.666 40.5999 39.6286 40.5474C39.5911 40.4949 39.5691 40.433 39.5651 40.3687V32.3933C39.5651 32.3052 39.6002 32.2207 39.6626 32.1583C39.7251 32.096 39.8099 32.061 39.8982 32.061H53.6907C53.7791 32.061 53.8638 32.096 53.9263 32.1583C53.9888 32.2207 54.0239 32.3052 54.0239 32.3933V40.3687C54.0198 40.433 53.9978 40.4949 53.9604 40.5474C53.9229 40.5999 53.8714 40.641 53.8118 40.6658C53.7522 40.6907 53.6869 40.6985 53.6231 40.6883C53.5593 40.678 53.4996 40.6502 53.4508 40.6079L51.3853 38.5476L47.0277 42.8942C46.961 42.9385 46.8806 42.9574 46.8011 42.9474ZM42.2036 37.6305C42.2459 37.6288 42.288 37.6362 42.3271 37.6523C42.3662 37.6683 42.4014 37.6926 42.4302 37.7235L46.8011 42.0701L51.1588 37.7235C51.2225 37.6656 51.3057 37.6335 51.392 37.6335C51.4782 37.6335 51.5614 37.6656 51.6252 37.7235L53.3576 39.4515V32.6326H40.2314V39.518L41.9638 37.79C41.9951 37.7587 42.0326 37.7343 42.0739 37.7183C42.1152 37.7023 42.1594 37.695 42.2036 37.6969V37.6305Z" fill="#4D4D4D"/>
        <path d="M39.8983 73.5462V80.4316H42.2037V75.8458L39.8983 73.5462Z" fill="#FFCC03"/>
        <path d="M53.6907 80.7507H39.8982C39.8099 80.7507 39.7251 80.7157 39.6626 80.6533C39.6002 80.591 39.5651 80.5065 39.5651 80.4184V73.5463C39.5659 73.4799 39.5867 73.4153 39.6247 73.3608C39.6627 73.3063 39.7162 73.2644 39.7783 73.2405C39.8388 73.2131 39.9066 73.206 39.9715 73.2204C40.0364 73.2348 40.0949 73.2699 40.1381 73.3203L42.2036 75.3673L46.5613 71.0207C46.5912 70.9889 46.6273 70.9636 46.6674 70.9463C46.7075 70.9289 46.7508 70.92 46.7945 70.92C46.8382 70.92 46.8814 70.9289 46.9215 70.9463C46.9616 70.9636 46.9978 70.9889 47.0277 71.0207L51.3853 75.3673L53.4508 73.3203C53.494 73.2699 53.5525 73.2348 53.6174 73.2204C53.6823 73.206 53.7501 73.2131 53.8106 73.2405C53.8727 73.2644 53.9262 73.3063 53.9642 73.3608C54.0022 73.4153 54.023 73.4799 54.0239 73.5463V80.4184C54.0239 80.462 54.0152 80.5052 53.9985 80.5455C53.9818 80.5859 53.9572 80.6225 53.9263 80.6533C53.8953 80.6842 53.8586 80.7087 53.8182 80.7254C53.7778 80.7421 53.7345 80.7507 53.6907 80.7507ZM40.2314 80.0861H53.3043V74.3571L51.5719 76.0718C51.542 76.1036 51.5058 76.1289 51.4657 76.1462C51.4256 76.1636 51.3824 76.1725 51.3387 76.1725C51.2949 76.1725 51.2517 76.1636 51.2116 76.1462C51.1715 76.1289 51.1354 76.1036 51.1054 76.0718L46.8011 71.7784L42.4302 76.125C42.4003 76.1567 42.3641 76.1821 42.324 76.1994C42.2839 76.2167 42.2407 76.2257 42.197 76.2257C42.1533 76.2257 42.11 76.2167 42.0699 76.1994C42.0298 76.1821 41.9937 76.1567 41.9638 76.125L40.2314 74.4102V80.0861Z" fill="#4D4D4D"/>
    </g>
    <defs>
        <clipPath id="clip0_2_314">
            <rect width="98" height="95" fill="white"/>
        </clipPath>
    </defs>
</svg>
