<svg width="97" height="90" viewBox="0 0 97 90" fill="none" xmlns="http://www.w3.org/2000/svg">
    <g clip-path="url(#clip0_2_180)">
        <path d="M71.3053 16.7518C81.6244 24.6533 94.1253 32.7623 96.543 43.3174C98.9606 53.8725 91.3981 66.8885 81.079 75.4423C70.7598 83.996 57.8462 88.0728 43.5025 89.496C29.1589 90.9191 13.4296 89.6442 6.85482 81.0904C0.28005 72.5366 2.78613 56.7336 5.60178 43.7177C8.41744 30.7017 11.4984 20.5617 18.088 12.6602C24.6775 4.75869 34.7755 -0.889475 43.8711 0.118596C52.9667 1.12667 61.0156 8.89474 71.3053 16.7518Z" fill="#EFEFEF"/>
        <path d="M67.3545 21.2584H9.80313C7.40136 21.2584 5.45435 23.2164 5.45435 25.6317V83.5068C5.45435 85.9221 7.40136 87.8801 9.80313 87.8801H67.3545C69.7563 87.8801 71.7033 85.9221 71.7033 83.5068V25.6317C71.7033 23.2164 69.7563 21.2584 67.3545 21.2584Z" fill="white"/>
        <path d="M67.3693 21.6291C68.4249 21.6291 69.4373 22.0508 70.1837 22.8014C70.9302 23.552 71.3495 24.5701 71.3495 25.6317V83.4475C71.3515 83.9744 71.2499 84.4965 71.0508 84.9838C70.8516 85.4712 70.5587 85.9142 70.1889 86.2874C69.8192 86.6607 69.3797 86.9568 68.8959 87.1589C68.412 87.361 67.8932 87.465 67.3693 87.465H9.87687C8.82886 87.4651 7.82312 87.0495 7.07794 86.3084C6.33275 85.5674 5.90827 84.5607 5.89663 83.5068V25.691C5.89662 25.1641 6.00006 24.6424 6.20101 24.1558C6.40196 23.6692 6.69646 23.2273 7.06762 22.8554C7.43878 22.4836 7.8793 22.1891 8.36391 21.9888C8.84852 21.7885 9.36768 21.6864 9.89161 21.6884H67.384L67.3693 21.6291ZM67.384 20.9471H9.89161C8.63914 20.9471 7.43775 21.4464 6.55074 22.3357C5.66373 23.2249 5.16345 24.4315 5.15955 25.691V83.5068C5.16345 84.7664 5.66373 85.9729 6.55074 86.8622C7.43775 87.7514 8.63914 88.2507 9.89161 88.2507H67.384C68.6351 88.2507 69.835 87.7509 70.7197 86.8613C71.6043 85.9716 72.1013 84.765 72.1013 83.5068V25.691C72.1013 24.4328 71.6043 23.2262 70.7197 22.3366C69.835 21.4469 68.6351 20.9471 67.384 20.9471Z" fill="#4D4D4D"/>
        <path d="M39.3455 87.717C39.2477 87.717 39.154 87.678 39.0849 87.6085C39.0158 87.539 38.9769 87.4447 38.9769 87.3464V60.9587C38.9769 60.5183 39.1509 60.096 39.4605 59.7846C39.7701 59.4732 40.1901 59.2983 40.628 59.2983H61.0157C61.451 59.3022 61.8672 59.4789 62.1736 59.7898C62.4801 60.1008 62.652 60.5209 62.652 60.9587V87.3464C62.652 87.4447 62.6132 87.539 62.5441 87.6085C62.4749 87.678 62.3812 87.717 62.2835 87.717H39.3455Z" fill="#CCCCCC"/>
        <path d="M61.0157 59.6689C61.1834 59.6689 61.3495 59.7024 61.5043 59.7674C61.6591 59.8324 61.7995 59.9276 61.9174 60.0476C62.0353 60.1675 62.1284 60.3098 62.1912 60.4662C62.2541 60.6226 62.2854 60.79 62.2835 60.9587V87.3464H39.3455V60.9587C39.3455 60.6166 39.4806 60.2885 39.7211 60.0467C39.9616 59.8048 40.2879 59.6689 40.628 59.6689H61.0157ZM61.0157 58.9277H40.628C40.0924 58.9277 39.5787 59.1417 39.1999 59.5225C38.8212 59.9034 38.6084 60.42 38.6084 60.9587V87.3464C38.6084 87.543 38.6861 87.7315 38.8243 87.8705C38.9625 88.0095 39.15 88.0876 39.3455 88.0876H62.2835C62.479 88.0876 62.6664 88.0095 62.8047 87.8705C62.9429 87.7315 63.0206 87.543 63.0206 87.3464V60.9587C63.0225 60.6926 62.9721 60.4289 62.8722 60.1826C62.7723 59.9362 62.6249 59.7122 62.4386 59.5234C62.2522 59.3346 62.0305 59.1848 61.7863 59.0826C61.5421 58.9803 61.2802 58.9277 61.0157 58.9277Z" fill="#4D4D4D"/>
        <path d="M8.84496 83.5068V25.691C8.84301 25.1648 8.94464 24.6434 9.14397 24.1569C9.34331 23.6704 9.63642 23.2284 10.0064 22.8563C10.3764 22.4843 10.8159 22.1895 11.2997 21.989C11.7835 21.7886 12.302 21.6864 12.8252 21.6884H9.81791C8.78267 21.7037 7.7941 22.124 7.06199 22.8603C6.32988 23.5965 5.91186 24.5906 5.89664 25.6317V83.4475C5.89264 84.5015 6.30216 85.5145 7.03631 86.2666C7.77046 87.0188 8.76998 87.4494 9.81791 87.465H12.8694C12.3462 87.4728 11.8266 87.3765 11.3406 87.1814C10.8546 86.9864 10.4118 86.6965 10.0377 86.3286C9.66355 85.9606 9.36556 85.5219 9.16086 85.0376C8.95616 84.5533 8.8488 84.0331 8.84496 83.5068Z" fill="#E0E0E0"/>
        <path d="M0.36853 40.5749L5.89665 17.5078C6.35364 15.2841 7.6509 13.3421 9.92111 13.3421H67.2514C69.5216 13.3421 70.8188 15.2397 71.3495 17.4633L76.8039 40.5304" fill="#FFCC03"/>
        <path d="M76.4501 40.649L70.9957 17.5968C70.7156 16.4405 69.8017 13.7572 67.2514 13.7572H9.92112C7.37082 13.7572 6.45684 16.4405 6.19149 17.5968L0.72234 40.649L0 40.4859L5.45441 17.4189C6.11778 14.617 7.73936 12.9715 9.8769 12.9715H67.2514C69.4184 12.9715 71.04 14.5726 71.6739 17.4189L77.143 40.4859L76.4501 40.649Z" fill="#4D4D4D"/>
        <path d="M19.4738 40.5749L22.2157 13.3421H38.7263V40.5749" fill="#CCCCCC"/>
        <path d="M19.8423 40.6045L19.1052 40.5304L21.8472 13.3421C21.8546 13.2491 21.8967 13.1622 21.965 13.099C22.0333 13.0358 22.1229 13.0009 22.2157 13.0012H38.7263C38.8241 13.0012 38.9178 13.0402 38.9869 13.1097C39.0561 13.1792 39.0949 13.2735 39.0949 13.3718V40.5749H38.3283V13.7572H22.54L19.8423 40.6045Z" fill="#4D4D4D"/>
        <path d="M57.8314 40.5749L55.1042 13.3421H67.2514C69.5216 13.3421 70.8188 15.2397 71.3495 17.4633L76.8039 40.5304" fill="#CCCCCC"/>
        <path d="M76.4501 40.649L70.9957 17.5968C70.7156 16.4405 69.8016 13.7572 67.2513 13.7572H55.458L58.141 40.5304L57.4039 40.6045L54.7357 13.4311C54.7312 13.3771 54.7381 13.3229 54.7559 13.2718C54.7737 13.2207 54.802 13.1739 54.8389 13.1346C54.8716 13.0963 54.9124 13.0658 54.9583 13.0453C55.0042 13.0248 55.054 13.0148 55.1042 13.016H67.2513C69.4184 13.016 71.0399 14.617 71.6738 17.4634L77.143 40.5304L76.4501 40.649Z" fill="#4D4D4D"/>
        <path d="M57.6989 40.8417C57.7023 42.5463 57.2636 44.2223 56.426 45.7042C55.5883 47.1861 54.3808 48.4227 52.9226 49.2917C51.4759 50.1511 49.8265 50.6045 48.1463 50.6045C46.4661 50.6045 44.8166 50.1511 43.37 49.2917C41.9098 48.4249 40.7006 47.1889 39.8627 45.7064C39.0248 44.224 38.5873 42.5469 38.5937 40.8417H57.7578H57.6989Z" fill="#FFCC03"/>
        <path d="M48.1462 50.9669C46.4002 50.9708 44.685 50.5051 43.1783 49.6179C41.6677 48.7116 40.417 47.4263 39.5487 45.8879C38.6804 44.3494 38.2243 42.6106 38.2251 40.8417C38.2251 40.7434 38.2639 40.6491 38.333 40.5796C38.4022 40.5101 38.4959 40.4711 38.5936 40.4711H57.7578C57.8555 40.4711 57.9493 40.5101 58.0184 40.5796C58.0875 40.6491 58.1263 40.7434 58.1263 40.8417C58.118 42.621 57.6469 44.3671 56.7599 45.9067C55.8728 47.4462 54.6008 48.7256 53.0699 49.6179C51.5773 50.5001 49.8776 50.9658 48.1462 50.9669ZM38.9622 41.2123C39.0337 42.7781 39.4899 44.3017 40.2899 45.6469C41.0899 46.9921 42.2089 48.117 43.5468 48.9211C44.9415 49.7361 46.5258 50.1654 48.1389 50.1654C49.7519 50.1654 51.3362 49.7361 52.7309 48.9211C54.0796 48.1146 55.2059 46.9811 56.0068 45.6241C56.8076 44.2671 57.2576 42.7299 57.3155 41.153L38.9622 41.2123Z" fill="#4D4D4D"/>
        <path d="M76.804 40.8417C76.8104 42.5469 76.3729 44.224 75.535 45.7064C74.697 47.1889 73.4879 48.4249 72.0277 49.2917C70.581 50.1511 68.9316 50.6045 67.2514 50.6045C65.5712 50.6045 63.9217 50.1511 62.4751 49.2917C61.0149 48.4249 59.8057 47.1889 58.9678 45.7064C58.1299 44.224 57.6924 42.5469 57.6988 40.8417H76.8629H76.804Z" fill="#CCCCCC"/>
        <path d="M67.2513 50.9669C65.5055 50.9694 63.7906 50.5037 62.2834 49.6179C60.7728 48.7116 59.5221 47.4263 58.6538 45.8879C57.7855 44.3494 57.3294 42.6106 57.3302 40.8417C57.3302 40.7434 57.369 40.6491 57.4381 40.5796C57.5073 40.5101 57.601 40.4711 57.6987 40.4711H76.8629C76.9606 40.4711 77.0544 40.5101 77.1235 40.5796C77.1926 40.6491 77.2314 40.7434 77.2314 40.8417C77.2276 42.6149 76.7648 44.3566 75.8886 45.8954C75.0124 47.4342 73.7529 48.7171 72.234 49.6179C70.723 50.5076 69.0023 50.9735 67.2513 50.9669ZM58.0673 41.2123C58.1417 42.7792 58.6006 44.3032 59.4031 45.6483C60.2057 46.9934 61.3269 48.1178 62.6667 48.9211C64.0613 49.7361 65.6457 50.1654 67.2587 50.1654C68.8717 50.1654 70.456 49.7361 71.8507 48.9211C73.1968 48.1115 74.3209 46.9773 75.1213 45.621C75.9218 44.2646 76.3735 42.729 76.4354 41.153L58.0673 41.2123Z" fill="#4D4D4D"/>
        <path d="M19.4737 40.8417C19.4846 42.5426 19.0538 44.2168 18.2239 45.6989C17.3939 47.1809 16.1936 48.4194 14.7416 49.2917C13.295 50.1511 11.6455 50.6045 9.96532 50.6045C8.28511 50.6045 6.63567 50.1511 5.18903 49.2917C3.73083 48.4227 2.52327 47.1861 1.68563 45.7042C0.847998 44.2223 0.409256 42.5463 0.41274 40.8417H19.5769H19.4737Z" fill="#FFCC03"/>
        <path d="M9.92113 50.9669C8.17533 50.9694 6.46045 50.5037 4.95319 49.6179C3.44256 48.7116 2.19187 47.4263 1.3236 45.8879C0.455328 44.3495 -0.000758156 42.6106 9.46028e-07 40.8417C9.46028e-07 40.7434 0.0388293 40.6491 0.107944 40.5796C0.177059 40.5101 0.270799 40.4711 0.368542 40.4711H19.5327C19.6304 40.4711 19.7242 40.5101 19.7933 40.5796C19.8624 40.6491 19.9012 40.7434 19.9012 40.8417C19.902 42.6106 19.4459 44.3495 18.5776 45.8879C17.7093 47.4263 16.4587 48.7116 14.948 49.6179C13.4241 50.5153 11.6871 50.9815 9.92113 50.9669ZM0.737083 41.2123C0.811457 42.7792 1.27039 44.3032 2.07294 45.6483C2.87549 46.9934 3.99668 48.1178 5.33647 48.9211C6.73115 49.7361 8.31546 50.1654 9.9285 50.1654C11.5415 50.1654 13.1258 49.7361 14.5205 48.9211C15.8694 48.1241 17.0001 47.0023 17.8107 45.6566C18.6213 44.3109 19.0864 42.7837 19.1641 41.2123H0.737083Z" fill="#4D4D4D"/>
        <path d="M38.5937 40.8417C38.5972 42.5463 38.1584 44.2223 37.3208 45.7042C36.4832 47.1861 35.2756 48.4227 33.8174 49.2917C32.368 50.1509 30.7162 50.6041 29.0337 50.6041C27.3512 50.6041 25.6995 50.1509 24.2501 49.2917C22.7919 48.4227 21.5843 47.1861 20.7467 45.7042C19.909 44.2223 19.4703 42.5463 19.4738 40.8417H38.6379H38.5937Z" fill="#CCCCCC"/>
        <path d="M29.041 50.9669C27.2951 50.9708 25.5798 50.5051 24.0731 49.6179C22.5697 48.7072 21.327 47.4197 20.4666 45.8815C19.6061 44.3432 19.1574 42.6067 19.1641 40.8417C19.1641 40.7434 19.203 40.6491 19.2721 40.5796C19.3412 40.5101 19.4349 40.4711 19.5327 40.4711H38.6968C38.7946 40.4711 38.8883 40.5101 38.9574 40.5796C39.0265 40.6491 39.0654 40.7434 39.0654 40.8417C39.066 42.6124 38.6083 44.3527 37.7373 45.8915C36.8662 47.4303 35.6118 48.7145 34.0974 49.6179C32.5652 50.5212 30.8171 50.9876 29.041 50.9669ZM19.857 41.2123C19.9246 42.779 20.3791 44.3041 21.1795 45.65C21.98 46.9958 23.1011 48.12 24.4416 48.9211C25.8363 49.7361 27.4206 50.1654 29.0337 50.1654C30.6467 50.1654 32.231 49.7361 33.6257 48.9211C34.9744 48.1146 36.1007 46.9811 36.9016 45.6241C37.7024 44.2671 38.1524 42.7299 38.2103 41.153L19.857 41.2123Z" fill="#4D4D4D"/>
        <path d="M43.7385 59.6689H40.6722C40.3203 59.6689 39.9829 59.8095 39.7341 60.0597C39.4852 60.3099 39.3455 60.6493 39.3455 61.0031V87.3464H42.4117V61.0031C42.4117 60.6493 42.5515 60.3099 42.8003 60.0597C43.0491 59.8095 43.3866 59.6689 43.7385 59.6689Z" fill="#AAAAAA"/>
        <path d="M12.9874 13.3421H9.92111C7.6509 13.3421 6.35364 15.2841 5.89665 17.5078L0.36853 40.5749H3.42005L8.84497 17.5078C9.4199 15.2841 10.7172 13.3421 12.9874 13.3421Z" fill="#FFCC03"/>
        <path d="M76.4501 40.649L70.9957 17.5968C70.7156 16.4405 69.8017 13.7572 67.2514 13.7572H9.92112C7.37082 13.7572 6.45684 16.4405 6.19149 17.5968L0.72234 40.649L0 40.4859L5.45441 17.4189C6.11778 14.617 7.73936 12.9715 9.8769 12.9715H67.2514C69.4184 12.9715 71.04 14.5726 71.6739 17.4189L77.143 40.4859L76.4501 40.649Z" fill="#4D4D4D"/>
        <path d="M8.2111 49.2917C6.74816 48.4268 5.53605 47.1915 4.69546 45.709C3.85488 44.2264 3.41515 42.5483 3.42007 40.8417H0.368551C0.365067 42.5463 0.803809 44.2223 1.64145 45.7042C2.47908 47.1861 3.68664 48.4227 5.14484 49.2917C7.05469 50.3909 9.28654 50.7842 11.4543 50.4036C10.3148 50.2351 9.21561 49.8583 8.2111 49.2917Z" fill="#FFCC03"/>
        <path d="M9.92113 50.9669C8.17533 50.9694 6.46045 50.5037 4.95319 49.6179C3.44256 48.7116 2.19187 47.4263 1.3236 45.8879C0.455328 44.3495 -0.000758156 42.6106 9.46028e-07 40.8417C9.46028e-07 40.7434 0.0388293 40.6491 0.107944 40.5796C0.177059 40.5101 0.270799 40.4711 0.368542 40.4711H19.5327C19.6304 40.4711 19.7242 40.5101 19.7933 40.5796C19.8624 40.6491 19.9012 40.7434 19.9012 40.8417C19.902 42.6106 19.4459 44.3495 18.5776 45.8879C17.7093 47.4263 16.4587 48.7116 14.948 49.6179C13.4241 50.5153 11.6871 50.9815 9.92113 50.9669ZM0.737083 41.2123C0.811457 42.7792 1.27039 44.3032 2.07294 45.6483C2.87549 46.9934 3.99668 48.1178 5.33647 48.9211C6.73115 49.7361 8.31546 50.1654 9.9285 50.1654C11.5415 50.1654 13.1258 49.7361 14.5205 48.9211C15.8694 48.1241 17.0001 47.0023 17.8107 45.6566C18.6213 44.3109 19.0864 42.7837 19.1641 41.2123H0.737083Z" fill="#4D4D4D"/>
    </g>
    <defs>
        <clipPath id="clip0_2_180">
            <rect width="97" height="90" fill="white"/>
        </clipPath>
    </defs>
</svg>
