<svg width="96" height="99" viewBox="0 0 96 99" fill="none" xmlns="http://www.w3.org/2000/svg">
    <g clip-path="url(#clip0_2_120)">
        <path d="M75.9009 80.0123C68.1159 87.713 58.4709 93.2971 47.8905 96.2294C36.5492 99.5657 23.0768 100.784 14.9758 94.7789C6.87486 88.7736 4.24752 75.5011 3.00683 63.6211C1.76615 51.7411 1.9559 41.1811 6.7143 33.8993C11.4727 26.6176 20.8581 22.5996 30.6523 15.956C40.4464 9.31253 50.6346 0 60.6915 0C70.7484 0 80.6009 9.12396 86.1183 19.684C91.3275 29.8779 92.9219 41.5208 90.6432 52.7275C88.5052 63.0542 83.3817 72.5366 75.9009 80.0123Z" fill="#EFEFEF"/>
        <path d="M66.5154 78.8809C66.4186 78.8809 66.3258 78.8427 66.2574 78.7747C66.189 78.7067 66.1505 78.6144 66.1505 78.5182V39.8466C66.1505 39.7504 66.189 39.6582 66.2574 39.5902C66.3258 39.5222 66.4186 39.4839 66.5154 39.4839H83.4471C84.7949 39.4867 86.1148 39.8664 87.2557 40.5795C88.3965 41.2926 89.3125 42.3104 89.8987 43.5165L94.9053 53.6703C95.3914 54.6489 95.6413 55.7267 95.6351 56.818V75.0224C95.6274 76.0459 95.2139 77.0251 94.4842 77.7474C93.7546 78.4698 92.7678 78.8771 91.7379 78.8809H66.5154Z" fill="#FFCC03"/>
        <path d="M83.4472 39.8466C84.7233 39.8522 85.9726 40.2107 87.0553 40.8819C88.1381 41.5531 89.0114 42.5106 89.5777 43.647L94.5842 53.6703C95.0431 54.6 95.278 55.623 95.2702 56.6585V75.0224C95.2664 75.9509 94.8925 76.84 94.2305 77.4952C93.5685 78.1504 92.6722 78.5183 91.7379 78.5183H66.5155V39.8466H83.4472ZM83.4472 39.1213H66.5155C66.3219 39.1213 66.1363 39.1977 65.9994 39.3338C65.8625 39.4698 65.7856 39.6542 65.7856 39.8466V78.5183C65.7856 78.7106 65.8625 78.8951 65.9994 79.0311C66.1363 79.1671 66.3219 79.2435 66.5155 79.2435H91.7379C92.8621 79.2398 93.9396 78.7963 94.7372 78.009C95.5349 77.2218 95.9885 76.1541 96 75.0369V56.702C96.0043 55.5502 95.7395 54.4131 95.2264 53.3802L90.2345 43.3134C89.604 42.0625 88.6346 41.0114 87.4354 40.2785C86.2363 39.5455 84.855 39.1598 83.4472 39.1648V39.1213Z" fill="#4D4D4D"/>
        <path d="M73.5217 61.1697C73.2624 61.1754 73.0045 61.1299 72.7631 61.0357C72.5217 60.9416 72.3015 60.8006 72.1154 60.6211C71.9293 60.4415 71.781 60.227 71.6792 59.99C71.5773 59.753 71.5238 59.4982 71.522 59.2404V46.7802C71.52 46.5263 71.5689 46.2746 71.6658 46.0397C71.7627 45.8047 71.9056 45.5913 72.0862 45.4117C72.2669 45.2322 72.4817 45.0902 72.7181 44.9939C72.9545 44.8976 73.2078 44.8491 73.4633 44.851H83.4034C83.7357 44.8469 84.0623 44.9376 84.3443 45.1125C84.6263 45.2873 84.8519 45.5389 84.9944 45.8374L89.782 55.498C90.0392 56.0119 90.174 56.5777 90.1761 57.1517V59.5596C90.1761 59.9866 90.0054 60.3961 89.7015 60.6981C89.3977 61 88.9856 61.1697 88.5559 61.1697H73.5217Z" fill="white"/>
        <path d="M83.4472 45.2136C83.7107 45.2074 83.9702 45.2783 84.1934 45.4176C84.4166 45.5569 84.5937 45.7583 84.7025 45.9969L89.5046 55.6576C89.7225 56.1113 89.8419 56.6055 89.855 57.1081V59.516C89.8569 59.6804 89.8258 59.8435 89.7634 59.9957C89.701 60.1479 89.6086 60.2862 89.4917 60.4025C89.3747 60.5187 89.2355 60.6105 89.0824 60.6725C88.9292 60.7345 88.7651 60.7655 88.5997 60.7635H73.5217C73.1022 60.7635 72.6998 60.5989 72.4018 60.3056C72.1039 60.0122 71.9345 59.6137 71.9307 59.1969V46.7802C71.9307 46.3647 72.0968 45.9663 72.3924 45.6725C72.688 45.3787 73.089 45.2136 73.5071 45.2136H83.4472ZM83.4472 44.4884H73.5071C72.8954 44.4884 72.3088 44.7298 71.8763 45.1596C71.4438 45.5894 71.2009 46.1724 71.2009 46.7802V59.2404C71.2047 59.8496 71.4509 60.4325 71.8858 60.8619C72.3206 61.2913 72.9087 61.5323 73.5217 61.5323H88.5997C89.1262 61.5323 89.6311 61.3245 90.0034 60.9545C90.3756 60.5845 90.5848 60.0828 90.5848 59.5596V57.1516C90.5802 56.5236 90.4357 55.9044 90.1615 55.3385L85.3593 45.6778C85.1859 45.3205 84.9143 45.0193 84.576 44.8088C84.2377 44.5983 83.8463 44.4873 83.4472 44.4884Z" fill="#4D4D4D"/>
        <path d="M3.40096 78.8664C2.59576 78.8664 1.82353 78.5485 1.25416 77.9827C0.684796 77.4168 0.364929 76.6494 0.364929 75.8492V69.0171C0.364929 68.921 0.403375 68.8287 0.471808 68.7607C0.540242 68.6927 0.633058 68.6545 0.729837 68.6545H66.5154C66.6122 68.6545 66.705 68.6927 66.7735 68.7607C66.8419 68.8287 66.8804 68.921 66.8804 69.0171V78.5037C66.8804 78.5999 66.8419 78.6922 66.7735 78.7602C66.705 78.8282 66.6122 78.8664 66.5154 78.8664H3.40096Z" fill="#CCCCCC"/>
        <path d="M66.5154 69.0171V78.5037H3.40094C3.04962 78.5057 2.70141 78.4383 2.37646 78.3056C2.05151 78.1729 1.75628 77.9774 1.50786 77.7305C1.25943 77.4837 1.06275 77.1903 0.929201 76.8673C0.79565 76.5444 0.72788 76.1984 0.729816 75.8492V69.0171H66.5154ZM66.5154 68.2919H0.729816C0.536257 68.2919 0.350625 68.3683 0.213758 68.5043C0.0768911 68.6403 0 68.8248 0 69.0171L0 75.8492C0 76.7456 0.358313 77.6053 0.996113 78.2391C1.63391 78.8729 2.49896 79.229 3.40094 79.229H66.5154C66.709 79.229 66.8946 79.1526 67.0315 79.0166C67.1684 78.8806 67.2453 78.6961 67.2453 78.5037V69.0171C67.2453 68.8248 67.1684 68.6403 67.0315 68.5043C66.8946 68.3683 66.709 68.2919 66.5154 68.2919Z" fill="#4D4D4D"/>
        <path d="M79.4769 88.3675C84.9506 88.3675 89.3879 83.9578 89.3879 78.5182C89.3879 73.0787 84.9506 68.669 79.4769 68.669C74.0033 68.669 69.566 73.0787 69.566 78.5182C69.566 83.9578 74.0033 88.3675 79.4769 88.3675Z" fill="white"/>
        <path d="M79.477 69.0316C81.3691 69.0288 83.2196 69.5839 84.794 70.6268C86.3685 71.6697 87.5962 73.1534 88.3216 74.8901C89.047 76.6268 89.2376 78.5384 88.8691 80.3828C88.5007 82.2271 87.5898 83.9214 86.2519 85.251C84.9139 86.5807 83.2091 87.4858 81.3531 87.852C79.4972 88.2181 77.5737 88.0288 75.8261 87.3078C74.0786 86.5869 72.5855 85.3669 71.5361 83.8022C70.4867 82.2376 69.9281 80.3986 69.931 78.5182C69.931 76.0022 70.9367 73.5893 72.7269 71.8102C74.5171 70.0311 76.9452 69.0316 79.477 69.0316ZM79.477 68.3064C77.4561 68.3064 75.4807 68.9019 73.8005 70.0176C72.1202 71.1333 70.8106 72.7191 70.0373 74.5745C69.2639 76.4299 69.0616 78.4715 69.4559 80.4411C69.8501 82.4108 70.8232 84.22 72.2521 85.6401C73.6811 87.0601 75.5016 88.0272 77.4836 88.419C79.4656 88.8108 81.52 88.6097 83.387 87.8412C85.254 87.0726 86.8497 85.7712 87.9724 84.1014C89.0951 82.4316 89.6944 80.4685 89.6944 78.4602C89.6753 75.7731 88.5927 73.2015 86.6806 71.3014C84.7686 69.4012 82.1809 68.3254 79.477 68.3064Z" fill="#4D4D4D"/>
        <path d="M79.477 82.7829C78.6289 82.78 77.8006 82.5274 77.0968 82.0571C76.3931 81.5868 75.8453 80.9197 75.5227 80.1402C75.2002 79.3607 75.1173 78.5037 75.2845 77.6774C75.4517 76.8511 75.8616 76.0926 76.4623 75.4976C77.063 74.9026 77.8277 74.4979 78.6597 74.3345C79.4918 74.1712 80.3539 74.2565 81.1372 74.5797C81.9204 74.9029 82.5898 75.4495 83.0607 76.1505C83.5316 76.8515 83.7829 77.6754 83.7829 78.5182C83.7829 79.0795 83.6714 79.6352 83.4549 80.1536C83.2383 80.672 82.9209 81.1427 82.5208 81.5389C82.1208 81.9351 81.646 82.2489 81.1237 82.4624C80.6013 82.6759 80.0418 82.7848 79.477 82.7829Z" fill="#CCCCCC"/>
        <path d="M79.477 74.6163C80.2535 74.6163 81.0127 74.8451 81.6584 75.2739C82.304 75.7026 82.8073 76.312 83.1045 77.025C83.4017 77.738 83.4794 78.5226 83.3279 79.2795C83.1764 80.0364 82.8025 80.7317 82.2533 81.2774C81.7042 81.8231 81.0046 82.1947 80.243 82.3452C79.4813 82.4958 78.6918 82.4185 77.9744 82.1232C77.2569 81.8279 76.6437 81.3277 76.2123 80.6861C75.7808 80.0444 75.5505 79.29 75.5505 78.5182C75.5544 77.4845 75.9693 76.4943 76.7048 75.7633C77.4403 75.0324 78.4368 74.6201 79.477 74.6163ZM79.477 73.891C78.5567 73.8939 77.6579 74.1677 76.8941 74.6779C76.1303 75.1881 75.5358 75.9117 75.1856 76.7575C74.8354 77.6033 74.7453 78.5332 74.9266 79.4298C75.1079 80.3265 75.5525 81.1496 76.2043 81.7953C76.856 82.441 77.6857 82.8802 78.5885 83.0576C79.4913 83.235 80.4268 83.1425 81.2768 82.7919C82.1267 82.4412 82.8531 81.8481 83.3641 81.0875C83.8751 80.3269 84.1478 79.4328 84.1478 78.5182C84.1478 77.9094 84.0269 77.3065 83.792 76.7441C83.557 76.1818 83.2128 75.671 82.7788 75.2411C82.3449 74.8113 81.8299 74.4707 81.2633 74.239C80.6967 74.0074 80.0897 73.8891 79.477 73.891Z" fill="#4D4D4D"/>
        <path d="M3.6491 75.8492V69.0171H0.729838V75.8492C0.727902 76.1984 0.795671 76.5444 0.929222 76.8673C1.06277 77.1903 1.25945 77.4837 1.50788 77.7305C1.7563 77.9774 2.05153 78.1729 2.37648 78.3056C2.70143 78.4383 3.04965 78.5057 3.40096 78.5037H6.32023C5.96891 78.5057 5.6207 78.4383 5.29575 78.3056C4.9708 78.1729 4.67557 77.9774 4.42714 77.7305C4.17872 77.4837 3.98204 77.1903 3.84849 76.8673C3.71494 76.5444 3.64717 76.1984 3.6491 75.8492Z" fill="#AAAAAA"/>
        <path d="M0.729837 69.3798C0.633058 69.3798 0.540242 69.3416 0.471808 69.2736C0.403375 69.2056 0.364929 69.1133 0.364929 69.0171V19.6985C0.364923 18.4968 0.844257 17.3442 1.69789 16.4932C2.55152 15.6421 3.70983 15.1621 4.91898 15.1582H62.3409C63.5501 15.1621 64.7084 15.6421 65.562 16.4932C66.4156 17.3442 66.895 18.4968 66.895 19.6985V69.0171C66.895 69.1133 66.8565 69.2056 66.7881 69.2736C66.7197 69.3416 66.6268 69.3798 66.5301 69.3798H0.729837Z" fill="white"/>
        <path d="M62.3409 15.4919C63.4519 15.4919 64.5174 15.9305 65.3031 16.7112C66.0887 17.4919 66.53 18.5508 66.53 19.6549V68.9736H0.729816V19.6549C0.729816 18.5508 1.17117 17.4919 1.95679 16.7112C2.7424 15.9305 3.80793 15.4919 4.91896 15.4919H62.3409ZM62.3409 14.7666H4.91896C4.27299 14.7666 3.63335 14.893 3.03656 15.1387C2.43976 15.3844 1.8975 15.7444 1.44073 16.1984C0.983962 16.6523 0.621634 17.1912 0.374434 17.7843C0.127233 18.3773 0 19.013 0 19.6549L0 68.9736C0 69.166 0.0768911 69.3505 0.213758 69.4865C0.350625 69.6225 0.536257 69.6989 0.729816 69.6989H66.5154C66.7092 69.6953 66.8943 69.6182 67.0328 69.4834C67.1712 69.3485 67.2524 69.1661 67.2598 68.9736V19.6549C67.2598 18.3585 66.7416 17.1151 65.8191 16.1984C64.8966 15.2816 63.6455 14.7666 62.3409 14.7666Z" fill="#4D4D4D"/>
        <path d="M39.921 39.2954C39.6673 39.2949 39.4174 39.2353 39.1911 39.1213L32.6374 35.7415C32.5172 35.674 32.3813 35.639 32.2433 35.64C32.1049 35.636 31.9682 35.6712 31.8492 35.7415L25.2808 39.1648C25.0552 39.2804 24.8049 39.3401 24.551 39.3389C24.1441 39.3356 23.7533 39.1803 23.4563 38.9037C23.299 38.7567 23.1738 38.5791 23.0884 38.382C23.0031 38.1849 22.9594 37.9724 22.96 37.7578V15.4774C22.96 15.3812 22.9985 15.2889 23.0669 15.2209C23.1353 15.1529 23.2282 15.1147 23.3249 15.1147H41.1471C41.2438 15.1147 41.3366 15.1529 41.4051 15.2209C41.4735 15.2889 41.512 15.3812 41.512 15.4774V37.7143C41.512 38.1336 41.3443 38.5358 41.046 38.8323C40.7476 39.1288 40.3429 39.2954 39.921 39.2954Z" fill="#FFCC03"/>
        <path d="M41.147 15.4919V37.7143C41.147 38.0374 41.0178 38.3474 40.7879 38.5759C40.5579 38.8044 40.2461 38.9327 39.9209 38.9327C39.7283 38.9326 39.5384 38.8879 39.3662 38.8022L32.7979 35.4224C32.6293 35.3259 32.4378 35.2759 32.2432 35.2774C32.0438 35.274 31.8472 35.3241 31.674 35.4224L25.1202 38.8022C24.9424 38.8867 24.7481 38.9313 24.551 38.9327C24.2309 38.9252 23.9265 38.7935 23.7028 38.5658C23.4792 38.3381 23.354 38.0325 23.3541 37.7143V15.4919H41.147ZM41.147 14.7666H23.3541C23.1605 14.7666 22.9749 14.843 22.838 14.979C22.7012 15.115 22.6243 15.2995 22.6243 15.4919V37.7143C22.6243 38.2298 22.8303 38.7242 23.1971 39.0887C23.5639 39.4532 24.0614 39.658 24.5802 39.658C24.8905 39.6601 25.1966 39.5853 25.4706 39.4404L32.0389 36.0607C32.1152 36.0389 32.1961 36.0389 32.2724 36.0607C32.3441 36.0409 32.4198 36.0409 32.4914 36.0607L39.0597 39.4404C39.3344 39.5837 39.6399 39.6583 39.9501 39.658C40.4638 39.6504 40.9538 39.4423 41.3143 39.0786C41.6748 38.7149 41.8769 38.2248 41.8768 37.7143V15.4919C41.8768 15.2995 41.7999 15.115 41.6631 14.979C41.5262 14.843 41.3406 14.7666 41.147 14.7666Z" fill="#4D4D4D"/>
        <path d="M20.3327 55.5996H5.44444C5.21604 55.5996 4.997 55.6897 4.83549 55.8502C4.67399 56.0107 4.58326 56.2284 4.58326 56.4554C4.58128 56.5683 4.60221 56.6805 4.64478 56.7852C4.68736 56.8899 4.75072 56.9851 4.83109 57.0649C4.91145 57.1448 5.00718 57.2078 5.11256 57.2501C5.21793 57.2924 5.3308 57.3132 5.44444 57.3112H20.3327C20.5611 57.3112 20.7801 57.221 20.9416 57.0605C21.1031 56.9 21.1939 56.6824 21.1939 56.4554C21.1939 56.2284 21.1031 56.0107 20.9416 55.8502C20.7801 55.6897 20.5611 55.5996 20.3327 55.5996Z" fill="#4D4D4D"/>
        <path d="M20.3327 60.9231H5.44441C5.23345 60.9503 5.03968 61.0529 4.89929 61.2117C4.75889 61.3706 4.68146 61.5747 4.68146 61.7861C4.68146 61.9976 4.75889 62.2017 4.89929 62.3606C5.03968 62.5194 5.23345 62.622 5.44441 62.6492H20.3327C20.4562 62.6652 20.5817 62.6548 20.7008 62.6187C20.8199 62.5826 20.9299 62.5217 21.0235 62.44C21.1171 62.3583 21.192 62.2578 21.2434 62.145C21.2947 62.0322 21.3213 61.9099 21.3213 61.7861C21.3213 61.6624 21.2947 61.54 21.2434 61.4273C21.192 61.3145 21.1171 61.214 21.0235 61.1323C20.9299 61.0506 20.8199 60.9897 20.7008 60.9536C20.5817 60.9175 20.4562 60.9071 20.3327 60.9231Z" fill="#4D4D4D"/>
        <path d="M7.83821 15.4919H4.91894C3.80791 15.4919 2.74239 15.9305 1.95677 16.7112C1.17115 17.4919 0.729797 18.5508 0.729797 19.6549V68.9736H3.64906V19.6549C3.64906 18.5508 4.09042 17.4919 4.87603 16.7112C5.66165 15.9305 6.72718 15.4919 7.83821 15.4919Z" fill="#E0E0E0"/>
        <path d="M15.005 88.3675C20.4787 88.3675 24.9159 83.9578 24.9159 78.5182C24.9159 73.0787 20.4787 68.669 15.005 68.669C9.53138 68.669 5.09412 73.0787 5.09412 78.5182C5.09412 83.9578 9.53138 88.3675 15.005 88.3675Z" fill="white"/>
        <path d="M15.005 69.0316C16.8966 69.0317 18.7456 69.5892 20.3181 70.6339C21.8907 71.6785 23.1161 73.1632 23.8392 74.9002C24.5624 76.6371 24.7509 78.5482 24.3808 80.3917C24.0107 82.2351 23.0987 83.928 21.7602 85.2562C20.4217 86.5843 18.7168 87.4881 16.8612 87.8531C15.0057 88.218 13.0829 88.0278 11.3362 87.3065C9.58951 86.5851 8.09736 85.3651 7.04859 83.8007C5.99981 82.2364 5.44155 80.398 5.44444 78.5182C5.44444 77.2712 5.69183 76.0364 6.17248 74.8845C6.65312 73.7326 7.35758 72.6862 8.24555 71.8051C9.13353 70.924 10.1876 70.2255 11.3475 69.7496C12.5073 69.2737 13.7502 69.0297 15.005 69.0316ZM15.005 68.3064C12.9842 68.3064 11.0088 68.9019 9.32853 70.0176C7.64828 71.1333 6.33869 72.7191 5.56536 74.5745C4.79202 76.4299 4.58969 78.4715 4.98393 80.4411C5.37817 82.4108 6.35128 84.22 7.78022 85.6401C9.20915 87.0601 11.0297 88.0272 13.0117 88.419C14.9937 88.8108 17.0481 88.6097 18.9151 87.8412C20.7821 87.0726 22.3778 85.7712 23.5005 84.1014C24.6232 82.4316 25.2225 80.4685 25.2225 78.4602C25.2033 75.7731 24.1207 73.2015 22.2087 71.3014C20.2967 69.4012 17.709 68.3254 15.005 68.3064Z" fill="#4D4D4D"/>
        <path d="M15.005 82.7829C14.1563 82.7829 13.3266 82.5327 12.6209 82.0641C11.9152 81.5955 11.3651 80.9295 11.0403 80.1502C10.7155 79.371 10.6306 78.5135 10.7961 77.6863C10.9617 76.859 11.3704 76.0991 11.9706 75.5027C12.5707 74.9063 13.3354 74.5001 14.1678 74.3356C15.0002 74.171 15.8631 74.2555 16.6472 74.5783C17.4314 74.901 18.1016 75.4476 18.5731 76.149C19.0446 76.8503 19.2963 77.6748 19.2963 78.5182C19.2925 79.6481 18.8391 80.7306 18.0352 81.5296C17.2312 82.3285 16.1419 82.779 15.005 82.7829Z" fill="#CCCCCC"/>
        <path d="M15.005 74.6163C15.781 74.6191 16.5387 74.8504 17.1824 75.2809C17.8262 75.7114 18.3272 76.3218 18.6221 77.035C18.9171 77.7483 18.9928 78.5324 18.8396 79.2883C18.6865 80.0443 18.3114 80.7382 17.7617 81.2825C17.212 81.8267 16.5123 82.1969 15.7511 82.3463C14.9899 82.4957 14.2011 82.4175 13.4845 82.1218C12.7679 81.826 12.1556 81.3259 11.7248 80.6846C11.294 80.0432 11.064 79.2894 11.064 78.5182C11.0679 77.482 11.4848 76.4896 12.2235 75.7582C12.9621 75.0269 13.9623 74.6163 15.005 74.6163ZM15.005 73.891C14.0841 73.891 13.1839 74.1624 12.4182 74.6708C11.6525 75.1793 11.0557 75.902 10.7033 76.7475C10.3508 77.593 10.2586 78.5234 10.4383 79.421C10.6179 80.3186 11.0614 81.1431 11.7126 81.7902C12.3638 82.4373 13.1934 82.878 14.0967 83.0566C14.9999 83.2351 15.9361 83.1435 16.7869 82.7933C17.6377 82.443 18.3649 81.85 18.8766 81.089C19.3882 80.3281 19.6613 79.4334 19.6613 78.5182C19.6574 77.2922 19.1656 76.1175 18.2932 75.2505C17.4209 74.3836 16.2388 73.8948 15.005 73.891Z" fill="#4D4D4D"/>
        <path d="M26.2734 37.7143V15.4919H23.3541V37.7143C23.3567 37.9232 23.4126 38.128 23.5166 38.3095C23.6206 38.491 23.7693 38.6433 23.9488 38.752C24.1283 38.8608 24.3326 38.9225 24.5426 38.9312C24.7526 38.94 24.9615 38.8956 25.1495 38.8022L26.3756 38.164C26.3091 38.0232 26.2743 37.8698 26.2734 37.7143Z" fill="#FFCC03"/>
        <path d="M74.8499 59.2404V46.7802C74.8499 46.3647 75.016 45.9663 75.3116 45.6725C75.6073 45.3787 76.0082 45.2136 76.4263 45.2136H73.5071C73.089 45.2136 72.688 45.3787 72.3924 45.6725C72.0968 45.9663 71.9307 46.3647 71.9307 46.7802V59.2404C71.9345 59.6573 72.1038 60.0557 72.4018 60.3491C72.6997 60.6425 73.1022 60.807 73.5217 60.807H76.4409C76.0215 60.807 75.619 60.6425 75.321 60.3491C75.0231 60.0557 74.8538 59.6573 74.8499 59.2404Z" fill="#E0E0E0"/>
    </g>
    <defs>
        <clipPath id="clip0_2_120">
            <rect width="96" height="99" fill="white"/>
        </clipPath>
    </defs>
</svg>
