<svg width="94" height="93" viewBox="0 0 94 93" fill="none" xmlns="http://www.w3.org/2000/svg">
    <g clip-path="url(#clip0_2_84)">
        <path d="M79.3024 75.1631C72.0701 82.3856 63.1147 87.6303 53.2894 90.3974C42.7347 93.5314 30.1969 94.676 22.6579 89.0347C15.1188 83.3934 12.6737 70.9253 11.5191 59.7653C10.3645 48.6053 10.5411 38.6853 14.9422 31.8448C19.3434 25.0044 28.1321 21.2299 37.2333 14.989C46.3344 8.74813 55.8567 0 65.2024 0C74.548 0 83.7307 8.57099 88.8518 18.491C93.6981 28.0675 95.1863 39.0027 93.0763 49.5319C91.0729 59.2395 86.2854 68.1483 79.3024 75.1631Z" fill="#EFEFEF"/>
        <path d="M39.9635 54.9415H39.8277C39.7659 54.9126 39.7137 54.8663 39.6776 54.8083C39.6414 54.7502 39.6228 54.6829 39.6239 54.6145V45.2259H37.4913C36.2808 45.2259 35.1199 44.7436 34.2639 43.8849C33.408 43.0263 32.9271 41.8618 32.9271 40.6475V20.7802C32.9271 19.5659 33.408 18.4014 34.2639 17.5428C35.1199 16.6841 36.2808 16.2018 37.4913 16.2018H79.995C81.2032 16.2054 82.3606 16.6893 83.2136 17.5476C84.0666 18.4058 84.5456 19.5683 84.5456 20.7802V40.6475C84.5456 41.8594 84.0666 43.0219 83.2136 43.8801C82.3606 44.7384 81.2032 45.2223 79.995 45.2259H49.7846L40.1945 54.8462C40.1646 54.8771 40.1287 54.9016 40.0889 54.918C40.0492 54.9344 40.0065 54.9424 39.9635 54.9415Z" fill="#FFCC03"/>
        <path d="M79.9951 16.5424C81.1156 16.5424 82.1901 16.9889 82.9824 17.7836C83.7746 18.5784 84.2197 19.6563 84.2197 20.7802V40.6475C84.2215 41.2033 84.1139 41.7541 83.9031 42.2682C83.6922 42.7823 83.3823 43.2495 82.9911 43.6432C82.5999 44.0369 82.1351 44.3493 81.6233 44.5624C81.1115 44.7756 80.5629 44.8853 80.0087 44.8853H49.6489L39.9636 54.6009V44.8853H37.4914C36.3709 44.8853 35.2964 44.4388 34.5042 43.6441C33.7119 42.8493 33.2668 41.7714 33.2668 40.6475V20.7802C33.2668 19.6563 33.7119 18.5784 34.5042 17.7836C35.2964 16.9889 36.3709 16.5424 37.4914 16.5424H79.9951ZM79.9951 15.8611H37.4914C36.1932 15.8647 34.9494 16.3846 34.0327 17.3067C33.116 18.2288 32.6012 19.4779 32.6012 20.7802V40.6475C32.6012 41.9521 33.1178 43.2033 34.0375 44.1258C34.9571 45.0483 36.2044 45.5666 37.505 45.5666H39.298V54.6009C39.2966 54.7358 39.3344 54.8682 39.4068 54.9819C39.4792 55.0956 39.583 55.1858 39.7055 55.2413H39.9636C40.145 55.2431 40.3201 55.1748 40.4526 55.0505L49.9613 45.5121H79.9951C81.2933 45.5085 82.5371 44.9886 83.4538 44.0665C84.3705 43.1444 84.8853 41.8952 84.8853 40.593V20.7802C84.8853 19.4779 84.3705 18.2288 83.4538 17.3067C82.5371 16.3846 81.2933 15.8647 79.9951 15.8611Z" fill="#4D4D4D"/>
        <path d="M48.6572 27.3209C48.6636 26.8687 48.5665 26.421 48.3734 26.0123C48.1803 25.6036 47.8963 25.2448 47.5433 24.9635C46.8211 24.4138 45.9368 24.1213 45.0303 24.1323C44.6076 24.0912 44.181 24.1351 43.7754 24.2615C43.3698 24.3878 42.9934 24.5941 42.6683 24.8682C42.3432 25.1423 42.0759 25.4787 41.882 25.8577C41.6881 26.2368 41.5716 26.6508 41.5393 27.0756C41.5393 27.9886 41.9468 28.1112 42.395 28.1112C43.1286 28.1112 43.4546 27.7433 43.4546 27.4708C43.4456 27.0443 43.6058 26.6318 43.9 26.3238C44.1943 26.0159 44.5984 25.8378 45.0235 25.8288C45.4486 25.8198 45.8599 25.9805 46.1669 26.2757C46.4738 26.5708 46.6513 26.9762 46.6604 27.4026C46.6604 28.6018 45.4106 29.5284 44.0794 30.5095C42.7482 31.4906 41.3627 32.5262 41.3627 33.7662V35.4286C41.3627 35.6738 41.8381 35.9191 42.1913 35.9191H48.2225C48.4127 35.9191 48.6979 35.5648 48.6979 35.0743C48.6979 34.5837 48.4127 34.2567 48.2225 34.2567H43.4682V33.7798C43.4682 33.0031 44.3647 32.4171 45.3971 31.6677C46.8234 30.6457 48.6572 29.3921 48.6572 27.3209Z" fill="#4D4D4D"/>
        <path d="M56.8347 31.4906H55.7888V29.978C55.7888 29.7464 55.4764 29.5011 54.7836 29.5011C54.0908 29.5011 53.792 29.7464 53.792 29.978V31.4906H51.4827L54.7157 24.9908C54.7253 24.9321 54.7253 24.8723 54.7157 24.8136C54.7157 24.5956 54.4983 24.4321 54.3761 24.3503C54.1788 24.2274 53.9554 24.1527 53.7241 24.1323C53.5539 24.1271 53.386 24.1721 53.2411 24.2617C53.0962 24.3513 52.9808 24.4816 52.909 24.6365L48.9969 32.3354C48.9336 32.4476 48.9008 32.5744 48.9018 32.7033C48.894 32.7805 48.9028 32.8584 48.9274 32.932C48.9521 33.0055 48.9922 33.0729 49.0449 33.1296C49.0976 33.1864 49.1618 33.2312 49.2332 33.2611C49.3045 33.2909 49.3814 33.3052 49.4587 33.3029H53.792V35.4286C53.792 35.6602 54.1452 35.9191 54.7836 35.9191C55.422 35.9191 55.7888 35.6602 55.7888 35.4286V33.2892H56.8347C56.9978 33.2892 57.3238 32.8804 57.3238 32.3899C57.3238 31.8993 57.0521 31.4906 56.8347 31.4906Z" fill="#4D4D4D"/>
        <path d="M65.6506 23.4374C65.5658 23.4319 65.4811 23.4508 65.4066 23.4918C65.332 23.5329 65.2706 23.5943 65.2295 23.669L59.2798 35.9327C59.2669 35.9911 59.2669 36.0515 59.2798 36.1099C59.2934 36.2665 59.3653 36.4123 59.481 36.5183C59.5967 36.6243 59.748 36.6828 59.9047 36.6822C59.9969 36.6861 60.0886 36.667 60.1715 36.6265C60.2545 36.5861 60.3262 36.5256 60.3801 36.4505L66.3434 24.1868C66.359 24.1288 66.359 24.0677 66.3434 24.0097C66.3262 23.842 66.2439 23.6879 66.1142 23.5808C65.9845 23.4737 65.818 23.4221 65.6506 23.4374Z" fill="#4D4D4D"/>
        <path d="M75.3223 24.1323H69.2775C68.8428 24.1323 68.4489 24.4321 68.4489 24.6229V27.2527C68.4489 27.4844 68.8835 27.7433 69.4269 27.7433C69.9702 27.7433 70.4457 27.4571 70.4457 27.2527V25.7947H74.1269V27.389V27.4708L69.9567 34.7064C69.9069 34.7932 69.8833 34.8926 69.8887 34.9925C69.8887 35.5648 70.5951 36.0009 71.2471 36.0009C71.6139 36.0009 71.6818 35.8782 71.709 35.8237L75.6754 28.2066C75.9365 27.7583 76.1073 27.2629 76.1781 26.7486V24.6229C76.0988 24.4662 75.9755 24.3362 75.8234 24.249C75.6713 24.1618 75.4971 24.1213 75.3223 24.1323Z" fill="#4D4D4D"/>
        <path d="M45.9676 85.0149C36.1194 85.0149 24.2335 79.033 14.9286 69.3855C0.298835 54.2193 -4.07515 34.5565 5.27051 25.5222C5.45383 25.3567 5.66877 25.2303 5.90228 25.1506C6.13579 25.071 6.383 25.0398 6.62889 25.0589C8.54421 25.0589 11.75 27.0483 14.6162 30.0189C17.7269 33.262 22.9023 40.4294 21.2587 42.0374C19.473 43.7916 18.4477 46.1805 18.4045 48.6872C18.3613 51.194 19.3036 53.617 21.0277 55.4321L29.0694 63.7714C30.8199 65.5608 33.2023 66.5869 35.7012 66.6277C38.2001 66.6685 40.6146 65.7207 42.4222 63.9894C42.5398 63.8838 42.6774 63.8028 42.8267 63.7513C42.976 63.6998 43.1341 63.6788 43.2916 63.6897C45.6416 63.6897 51.2246 67.9683 54.1587 71.0479C58.0029 75.0132 59.7959 79.0875 58.3289 80.5046C54.9684 83.576 50.5374 85.1964 45.9948 85.0149H45.9676Z" fill="#CCCCCC"/>
        <path d="M6.57451 25.3996C8.35399 25.3996 11.4375 27.28 14.3173 30.2505C17.9034 33.9705 22.2367 40.5521 20.9598 41.7921C19.1046 43.6087 18.0395 46.0867 17.9963 48.6871C17.9531 51.2874 18.9351 53.7996 20.7288 55.6774L28.7705 64.044C30.5779 65.9115 33.0494 66.9845 35.6437 67.0279C38.2381 67.0713 40.7439 66.0816 42.6124 64.2756C42.786 64.1281 43.0103 64.0547 43.2372 64.0712C45.3156 64.0712 50.7083 68.0229 53.8869 71.3204C57.4731 75.0404 59.3205 79.0602 58.0708 80.3002C54.7752 83.3059 50.4314 84.8873 45.9812 84.7015C36.4725 84.7015 24.8176 79.1556 15.1867 69.1675C0.65197 54.0967 -3.66768 34.6791 5.50139 25.7675C5.79774 25.5094 6.18271 25.3774 6.57451 25.3996ZM6.57451 24.7182C6.00506 24.6922 5.44842 24.893 5.02596 25.2769C0.421045 29.76 -1.08676 36.873 0.787808 45.3077C2.66237 53.7424 7.57972 62.2589 14.6841 69.6171C24.0433 79.3328 36.0378 85.3556 45.9268 85.3556C50.5566 85.5417 55.0724 83.8864 58.4919 80.7499C59.0896 80.164 59.5514 78.9512 58.3832 76.4167C57.3359 74.3602 55.9695 72.4836 54.3352 70.8571C51.3332 67.7503 45.6416 63.4035 43.1965 63.4035C42.7921 63.3845 42.3967 63.5266 42.0962 63.7987C40.3587 65.4809 38.0269 66.4027 35.6125 66.3618C33.1981 66.321 30.8986 65.3207 29.2187 63.5807L21.1771 55.2549C20.3399 54.3847 19.6823 53.3572 19.2421 52.2314C18.8018 51.1056 18.5875 49.9037 18.6114 48.6946C18.6354 47.4855 18.8972 46.293 19.3818 45.1857C19.8664 44.0783 20.5642 43.0779 21.4352 42.2418C21.9921 41.7103 22.454 40.5248 20.0768 36.5596C18.5773 34.1067 16.8195 31.8225 14.8335 29.7464C11.8722 26.6668 8.63925 24.6774 6.61526 24.6774L6.57451 24.7182Z" fill="#4D4D4D"/>
        <path d="M19.0174 68.8677C4.76795 54.124 0.353207 35.1969 8.82951 26.0673C7.33529 25.3451 6.11274 25.1815 5.50147 25.7675C-3.6676 34.6791 0.652051 54.0967 15.1732 69.1402C26.0402 80.4637 39.624 86.0778 49.6353 84.3745C40.1945 84.32 28.526 78.8149 19.0174 68.8677Z" fill="#AAAAAA"/>
        <path d="M45.4243 64.7525C44.0659 64.0712 43.0472 63.8123 42.6125 64.2347C41.4283 65.3627 39.9802 66.1734 38.4015 66.5921C40.8913 66.9095 43.4071 66.2505 45.4243 64.7525Z" fill="#AAAAAA"/>
        <path d="M42.7483 51.7802V44.8853H40.276C39.1556 44.8853 38.0811 44.4388 37.2888 43.6441C36.4966 42.8493 36.0515 41.7714 36.0515 40.6475V20.7802C36.0515 19.6563 36.4966 18.5784 37.2888 17.7836C38.0811 16.9889 39.1556 16.5424 40.276 16.5424H37.5593C36.4389 16.5424 35.3643 16.9889 34.5721 17.7836C33.7798 18.5784 33.3347 19.6563 33.3347 20.7802V40.6475C33.3347 41.7714 33.7798 42.8493 34.5721 43.6441C35.3643 44.4388 36.4389 44.8853 37.5593 44.8853H40.0315V54.6009L42.7483 51.7802Z" fill="#FFCC03"/>
    </g>
    <defs>
        <clipPath id="clip0_2_84">
            <rect width="94" height="93" fill="white"/>
        </clipPath>
    </defs>
</svg>
