<svg width="59" height="59" viewBox="0 0 59 59" fill="none" xmlns="http://www.w3.org/2000/svg">
    <path d="M29.5 52.3164C42.0836 52.3164 52.3164 42.0836 52.3164 29.5C52.3164 16.9164 42.0836 6.68359 29.5 6.68359C16.9164 6.68359 6.68359 16.9164 6.68359 29.5C6.68359 42.0836 16.9164 52.3164 29.5 52.3164ZM29.5 8.52734C41.0695 8.52734 50.4727 17.9305 50.4727 29.5C50.4727 41.0695 41.0695 50.4727 29.5 50.4727C17.9305 50.4727 8.52734 41.0695 8.52734 29.5C8.52734 17.9305 17.9305 8.52734 29.5 8.52734Z" fill="#1C1F20"/>
    <path d="M49.9657 53.6531V46.8312L48.3985 48.3984C40.1478 56.6491 27.6563 58.5851 17.2853 53.2843L16.4556 54.9437C20.604 57.064 25.0751 58.1241 29.5001 58.1241C36.2298 58.1241 42.8212 55.7273 48.122 51.2101V53.6991H49.9657V53.6531Z" fill="#1C1F20"/>
    <path d="M5.34694 48.1218V49.9656H12.1688L10.6016 48.3984C2.39694 40.2398 0.414903 27.7945 5.6235 17.4695L3.96412 16.6398C-1.24447 27.0109 0.322716 39.4101 7.836 48.1218H5.34694Z" fill="#1C1F20"/>
    <path d="M53.3305 41.6227L54.9899 42.4523C60.2907 32.0352 58.7235 19.5898 51.1641 10.832H55.9579V8.98828H46.8313L48.3985 10.6016C56.6032 18.8062 58.5852 31.2977 53.3305 41.6227Z" fill="#1C1F20"/>
    <path d="M41.6227 5.66947L42.4524 4.0101C32.0352 -1.29069 19.5899 0.276502 10.8782 7.83588V5.34681H9.03442V12.1687L10.6016 10.6015C18.8063 2.39682 31.2977 0.414783 41.6227 5.66947Z" fill="#1C1F20"/>
    <path d="M30.4219 11.2468H28.5781V12.7218H30.4219V11.2468Z" fill="#1C1F20"/>
    <path d="M47.7532 28.578H46.2782V30.4218H47.7532V28.578Z" fill="#1C1F20"/>
    <path d="M30.4219 46.2781H28.5781V47.7531H30.4219V46.2781Z" fill="#1C1F20"/>
    <path d="M12.7219 28.578H11.2469V30.4218H12.7219V28.578Z" fill="#1C1F20"/>
    <path d="M28.5782 33.1414H30.4219V30.4219H38.9954V28.5781H30.4219V15.4414H28.5782V28.5781H25.8586V30.4219H28.5782V33.1414Z" fill="#1C1F20"/>
</svg>
