<svg width="59" height="59" viewBox="0 0 59 59" fill="none" xmlns="http://www.w3.org/2000/svg">
    <path d="M51.7385 57.0031H40.8461C40.4831 57.0031 40.12 57.2754 40.12 57.7292C40.12 58.1831 40.3923 58.4554 40.8461 58.4554H51.7385C52.1015 58.4554 52.4646 58.1831 52.4646 57.7292C52.4646 57.2754 52.1015 57.0031 51.7385 57.0031Z" fill="#1C1F20"/>
    <path d="M56.2769 57.0031H54.4615C54.0984 57.0031 53.7354 57.2754 53.7354 57.7292C53.7354 58.1831 54.0077 58.4554 54.4615 58.4554H56.2769C56.64 58.4554 57.003 58.1831 57.003 57.7292C57.003 57.2754 56.64 57.0031 56.2769 57.0031Z" fill="#1C1F20"/>
    <path d="M3.63075 12.98C3.99382 12.98 4.3569 12.7077 4.3569 12.2538V4.99227C4.3569 4.62919 4.08459 4.26611 3.63075 4.26611C3.1769 4.26611 2.99536 4.62919 2.99536 4.99227V12.2538C2.99536 12.6169 3.26767 12.98 3.63075 12.98Z" fill="#1C1F20"/>
    <path d="M3.63075 2.99538C3.99382 2.99538 4.3569 2.72307 4.3569 2.26922V1.36153C4.3569 0.998453 4.08459 0.635376 3.63075 0.635376C3.1769 0.635376 2.99536 0.998453 2.99536 1.36153V2.26922C2.99536 2.6323 3.26767 2.99538 3.63075 2.99538Z" fill="#1C1F20"/>
    <path d="M6.35387 34.7646C6.71695 34.7646 7.08003 34.4923 7.08003 34.0385C7.08003 33.5846 6.71695 33.4031 6.35387 33.4031H5.26464V32.2231C5.26464 31.86 4.99233 31.4969 4.53849 31.4969C4.08464 31.4969 3.81233 31.7693 3.81233 32.2231V33.4031H2.7231C2.36003 33.4031 1.99695 33.6754 1.99695 34.1293C1.99695 34.5831 2.26926 34.8554 2.7231 34.8554H3.9031V36.0354C3.9031 36.3985 4.17541 36.7616 4.62926 36.7616C5.0831 36.7616 5.35541 36.4893 5.35541 36.0354V34.8554H6.35387V34.7646Z" fill="#1C1F20"/>
    <path d="M52.7369 4.35696H51.5569V3.17696C51.5569 2.81388 51.2846 2.45081 50.8308 2.45081C50.3769 2.45081 50.1046 2.72311 50.1046 3.17696V4.35696H48.9246C48.5616 4.35696 48.1985 4.62927 48.1985 5.08311C48.1985 5.53696 48.4708 5.80927 48.9246 5.80927H50.1046V6.98927C50.1046 7.35234 50.3769 7.71542 50.8308 7.71542C51.2846 7.71542 51.5569 7.44311 51.5569 6.98927V5.7185H52.7369C53.1 5.7185 53.4631 5.44619 53.4631 4.99234C53.4631 4.5385 53.1 4.35696 52.7369 4.35696Z" fill="#1C1F20"/>
    <path d="M38.3954 41.3908C42.7524 41.3908 46.2924 37.8508 46.2924 33.4031C46.2924 31.6785 47.0185 29.9539 48.1985 28.7739C51.2847 25.6877 51.2847 20.6046 48.1985 17.5185C46.9278 16.2477 46.2924 14.6139 46.2924 12.8892C46.2924 8.53232 42.7524 4.90156 38.3047 4.90156C36.5801 4.90156 34.8554 4.1754 33.6754 2.9954C30.5893 -0.0907522 25.5062 -0.0907522 22.4201 2.9954C21.1493 4.26617 19.5154 4.90156 17.7908 4.90156C13.4339 4.90156 9.80314 8.44155 9.80314 12.8892C9.80314 14.6139 9.07699 16.3385 7.89699 17.5185C6.35391 19.0616 5.53699 20.9677 5.53699 23.1462C5.53699 25.2339 6.35391 27.2308 7.89699 28.7739C9.16776 30.0446 9.80314 31.6785 9.80314 33.4031C9.80314 37.76 13.3431 41.3908 17.7908 41.3908C19.5154 41.3908 21.2401 42.1169 22.4201 43.2969C23.9631 44.84 25.9601 45.6569 28.0478 45.6569C30.0447 45.6569 32.1324 44.84 33.6754 43.2969C35.037 42.0262 36.6708 41.3908 38.3954 41.3908ZM23.5093 42.2985C21.9662 40.7554 19.9693 39.9385 17.8816 39.9385C14.2508 39.9385 11.2554 36.9431 11.2554 33.3123C11.2554 31.2246 10.4385 29.2277 8.89545 27.6846C7.62468 26.4139 6.98929 24.78 6.98929 23.0554C6.98929 21.3308 7.71545 19.6062 8.89545 18.4262C10.4385 16.8831 11.2554 14.8862 11.2554 12.7985C11.2554 9.16771 14.2508 6.17232 17.8816 6.17232C19.9693 6.17232 21.9662 5.3554 23.5093 3.81232C24.7801 2.72309 26.4139 2.08771 28.1385 2.08771C29.8631 2.08771 31.497 2.72309 32.7678 3.99386C34.3108 5.44617 36.3078 6.26309 38.3954 6.26309C42.0262 6.26309 44.9308 9.25848 44.9308 12.8892C44.9308 14.9769 45.7478 16.9739 47.2908 18.5169C49.8324 21.0585 49.8324 25.2339 47.2908 27.8662C45.7478 29.4092 44.9308 31.4062 44.9308 33.4939C44.9308 37.1246 41.9354 40.12 38.3047 40.12C36.217 40.12 34.2201 40.9369 32.677 42.48C30.2262 44.9308 26.0508 44.9308 23.5093 42.2985Z" fill="#1C1F20"/>
    <path d="M44.2047 23.1461C44.2047 22.783 43.9324 22.42 43.4785 22.42C43.1155 22.42 42.7524 22.6923 42.7524 23.1461C42.7524 31.2246 36.1262 37.8507 27.957 37.9415C19.8785 37.9415 13.2524 31.3153 13.1616 23.1461C13.1616 20.8769 13.6155 18.7892 14.6139 16.7923C17.2462 11.7092 22.5108 8.44149 28.1385 8.44149C34.3109 8.44149 39.9385 12.3446 42.0262 18.2446C42.117 18.6076 42.5708 18.7892 42.9339 18.6984C43.1155 18.6076 43.2062 18.5169 43.297 18.3353C43.3878 18.1538 43.3878 17.9723 43.297 17.7907C41.0278 11.4369 34.9462 7.07996 28.1385 7.07996C25.0524 7.07996 22.057 7.98765 19.4247 9.62149C16.8832 11.2553 14.8862 13.5246 13.6155 16.2476C12.617 18.4261 12.0724 20.7861 12.0724 23.2369C12.0724 32.1323 19.3339 39.3938 28.2293 39.3938C37.1247 39.3938 44.2047 32.0415 44.2047 23.1461Z" fill="#1C1F20"/>
    <path d="M42.7524 20.1507C42.6616 20.3323 42.6616 20.5138 42.6616 20.6954C42.7524 21.0584 43.0247 21.24 43.297 21.24H43.3878C43.5693 21.24 43.7508 21.1492 43.8416 20.9677C43.9324 20.7861 44.0232 20.6046 43.9324 20.423C43.8416 20.06 43.4785 19.7877 43.1155 19.8784C43.0247 19.9692 42.9339 20.06 42.7524 20.1507Z" fill="#1C1F20"/>
    <path d="M39.1216 19.6061C39.0308 19.3338 38.8493 19.1523 38.5769 19.1523L31.7693 18.1538L28.7739 11.9815C28.5016 11.5277 27.7754 11.5277 27.5939 11.9815L24.5077 18.1538L17.7908 19.1523C17.5185 19.1523 17.3369 19.3338 17.2462 19.6061C17.1554 19.8784 17.2462 20.1507 17.4277 20.3323L22.3293 25.143L21.0585 31.7692C21.0585 32.0415 21.1493 32.3138 21.3308 32.4046C21.5123 32.5861 21.7846 32.5861 22.0569 32.4953L28.1385 29.3184L34.22 32.4953C34.3108 32.5861 34.4016 32.5861 34.4923 32.5861C34.6739 32.5861 34.7646 32.5861 34.8554 32.4953C35.0369 32.3138 35.1277 32.0415 35.1277 31.86L33.9477 25.143L38.8493 20.3323C39.1216 20.1507 39.1216 19.8784 39.1216 19.6061ZM32.7677 24.3261C32.5862 24.5077 32.4954 24.6892 32.5862 24.9615L33.5846 30.68L28.4108 27.9569C28.32 27.8661 28.2293 27.8661 28.1385 27.8661C28.0477 27.8661 27.9569 27.8661 27.8662 27.9569L22.6923 30.68L23.6908 24.9615C23.6908 24.78 23.6908 24.5077 23.5093 24.3261L19.3339 20.2415L25.0523 19.4246C25.2339 19.4246 25.5062 19.243 25.5969 19.0615L28.1385 13.8877L30.68 19.0615C30.7708 19.243 30.9523 19.4246 31.2246 19.4246L36.9431 20.2415L32.7677 24.3261Z" fill="#1C1F20"/>
    <path d="M23.6001 46.8369C23.237 46.6553 22.8739 46.8369 22.6924 47.1999L18.6077 55.9138L16.0662 48.8338C15.9754 48.6522 15.8847 48.5615 15.7031 48.4707C15.5216 48.3799 15.3401 48.3799 15.1585 48.4707L8.07852 51.0122L11.9816 42.5707C12.1631 42.2076 11.9816 41.8446 11.6185 41.663C11.2554 41.4815 10.8924 41.663 10.7108 42.0261L6.08159 52.0107C5.99083 52.283 5.99083 52.5553 6.17236 52.7369C6.3539 52.9184 6.62621 53.0092 6.89852 52.9184L14.8862 50.0138L17.7908 58.0015C17.8816 58.2738 18.1539 58.4553 18.4262 58.4553C18.6985 58.4553 18.9708 58.2738 19.0616 58.0922L23.7816 47.9261C24.1447 47.3815 23.9631 47.0184 23.6001 46.8369Z" fill="#1C1F20"/>
    <path d="M48.6523 52.6462C48.8339 52.4646 48.9246 52.1923 48.7431 51.92L44.3862 42.6616C44.2046 42.2985 43.8416 42.2077 43.4785 42.2985C43.1154 42.48 43.0246 42.8431 43.1154 43.2062L46.7462 51.0123L39.6662 48.4708C39.4846 48.38 39.3031 48.38 39.1216 48.4708C38.94 48.5616 38.8492 48.6523 38.7585 48.8339L36.3077 55.8231L32.4954 47.5631C32.3139 47.2 31.9508 47.1093 31.5877 47.2C31.2246 47.3816 31.1339 47.7446 31.2246 48.1077L35.7631 57.82C35.8539 58.0923 36.1262 58.1831 36.3985 58.1831C36.6708 58.1831 36.9431 58.0016 37.0339 57.7293L39.9385 49.7416L47.9262 52.6462C48.1985 52.9185 48.4708 52.8277 48.6523 52.6462Z" fill="#1C1F20"/>
</svg>
