<svg width="63" height="63" viewBox="0 0 63 63" fill="none" xmlns="http://www.w3.org/2000/svg">
    <path d="M61.5461 0.678467C61.1584 0.678467 60.7708 0.969236 60.7708 1.45385V16.9615C60.7708 17.3492 61.0615 17.7369 61.5461 17.7369C62.0307 17.7369 62.3215 17.4462 62.3215 16.9615V1.45385C62.3215 0.969236 61.9338 0.678467 61.5461 0.678467Z" fill="#1C1F20"/>
    <path d="M61.5461 20.0631C61.1584 20.0631 60.7708 20.3539 60.7708 20.8385V22.777C60.7708 23.1646 61.0615 23.5523 61.5461 23.5523C62.0307 23.5523 62.3215 23.2616 62.3215 22.777V20.8385C62.3215 20.3539 61.9338 20.0631 61.5461 20.0631Z" fill="#1C1F20"/>
    <path d="M16.9616 9.0139C17.3493 9.0139 17.737 8.72314 17.737 8.23852C17.737 7.7539 17.4462 7.46313 16.9616 7.46313H6.30004C5.91235 7.46313 5.52466 7.7539 5.52466 8.23852C5.52466 8.72314 5.81543 9.0139 6.30004 9.0139H16.9616Z" fill="#1C1F20"/>
    <path d="M2.42308 7.56006H1.45385C1.06616 7.56006 0.678467 7.85083 0.678467 8.33544C0.678467 8.82006 0.969236 9.11083 1.45385 9.11083H2.42308C2.81077 9.11083 3.19847 8.82006 3.19847 8.33544C3.19847 7.85083 2.81077 7.56006 2.42308 7.56006Z" fill="#1C1F20"/>
    <path d="M48.9461 58.9292H47.6861V57.6692C47.6861 57.2815 47.3954 56.8938 46.9107 56.8938C46.4261 56.8938 46.1354 57.1846 46.1354 57.6692V58.9292H44.8754C44.4877 58.9292 44.1 59.2199 44.1 59.7046C44.1 60.1892 44.3907 60.48 44.8754 60.48H46.1354V61.7399C46.1354 62.1276 46.4261 62.5153 46.9107 62.5153C47.3954 62.5153 47.6861 62.2246 47.6861 61.7399V60.48H48.9461C49.3338 60.48 49.7215 60.1892 49.7215 59.7046C49.7215 59.2199 49.3338 58.9292 48.9461 58.9292Z" fill="#1C1F20"/>
    <path d="M49.9154 4.1677H51.1754V5.4277C51.1754 5.81539 51.4662 6.20308 51.9508 6.20308C52.4354 6.20308 52.7262 5.91231 52.7262 5.4277V4.1677H53.9862C54.3739 4.1677 54.7615 3.87693 54.7615 3.39231C54.7615 2.9077 54.4708 2.61693 53.9862 2.61693H52.7262V1.45385C52.7262 1.06616 52.4354 0.678467 51.9508 0.678467C51.4662 0.678467 51.1754 0.969236 51.1754 1.45385V2.71385H49.9154C49.5277 2.71385 49.14 3.00462 49.14 3.48924C49.14 3.97385 49.5277 4.1677 49.9154 4.1677Z" fill="#1C1F20"/>
    <path d="M54.9554 16.8646C40.8046 16.6708 31.6938 4.0708 31.5969 3.97387C31.3061 3.58618 30.7246 3.58618 30.4338 3.97387C30.3369 4.0708 21.2262 16.6708 7.07538 16.8646C6.68769 16.8646 6.39692 17.1554 6.39692 17.5431C6.39692 17.8339 3.68307 46.62 30.8215 58.4446C30.9185 58.4446 31.0154 58.5416 31.1123 58.5416C31.2092 58.5416 31.3062 58.5416 31.4031 58.4446C58.4446 46.7169 55.8277 17.8339 55.8277 17.5431C55.6338 17.1554 55.3431 16.8646 54.9554 16.8646ZM31.0154 56.8939C7.46307 46.5231 7.55999 22.4862 7.75384 18.3185C20.3538 17.8339 28.7861 8.43234 31.0154 5.62157C33.2446 8.43234 41.6769 17.8339 54.2769 18.3185C54.4708 22.4862 54.5677 46.5231 31.0154 56.8939Z" fill="#1C1F20"/>
    <path d="M49.3338 22.0985C41.3861 20.5477 35.28 15.9923 31.5 12.5031C31.2092 12.2123 30.8215 12.2123 30.5307 12.5031C26.8477 15.9923 20.6446 20.5477 12.6969 22.0985C12.3092 22.1954 12.1154 22.4862 12.1154 22.8739C12.6969 30.4339 15.7984 44.2939 30.6277 51.9508C30.7246 52.0477 30.8215 52.0477 30.9184 52.0477C31.0154 52.0477 31.1123 52.0477 31.2092 51.9508C46.1354 44.2939 49.2369 30.4339 49.7215 22.8739C49.9154 22.4862 49.6246 22.1954 49.3338 22.0985ZM31.0154 50.497C17.4461 43.3246 14.3446 30.7247 13.6661 23.4554C21.3231 21.8077 27.2354 17.5431 31.0154 14.0539C34.7954 17.5431 40.8046 21.7108 48.3646 23.4554C47.7831 30.7247 44.5846 43.3246 31.0154 50.497Z" fill="#1C1F20"/>
    <path d="M26.9447 25.6847V28.8831H24.7154C24.3278 28.8831 23.9401 29.1739 23.9401 29.6585V39.3508C23.9401 39.7385 24.2308 40.1262 24.7154 40.1262H38.2847C38.6724 40.1262 39.0601 39.8354 39.0601 39.3508V29.6585C39.0601 29.2708 38.7693 28.8831 38.2847 28.8831H36.0554V25.6847C36.0554 23.1647 34.0201 21.0323 31.4031 21.0323C28.7862 21.0323 26.9447 23.1647 26.9447 25.6847ZM37.6062 38.5754H25.4908V30.337H27.7201H35.4739H37.7031V38.5754H37.6062ZM28.3985 25.6847C28.3985 23.94 29.8524 22.4862 31.597 22.4862C33.3416 22.4862 34.7954 23.94 34.7954 25.6847V28.8831H28.4954V25.6847H28.3985Z" fill="#1C1F20"/>
    <path d="M31.5 32.76C31.1123 32.76 30.7246 33.0508 30.7246 33.5354V35.4739C30.7246 35.8615 31.0154 36.2492 31.5 36.2492C31.9846 36.2492 32.2754 35.9585 32.2754 35.4739V33.5354C32.2754 33.0508 31.8877 32.76 31.5 32.76Z" fill="#1C1F20"/>
</svg>
