<svg width="57" height="57" viewBox="0 0 57 57" fill="none" xmlns="http://www.w3.org/2000/svg">
    <path d="M5.2616 8.15547H19.2924C19.6431 8.15547 19.9939 7.8924 19.9939 7.45393C19.9939 7.01547 19.6431 6.84009 19.2924 6.84009H5.2616C4.91083 6.84009 4.56006 7.10317 4.56006 7.54163C4.56006 7.98009 4.91083 8.15547 5.2616 8.15547Z" fill="#1C1F20"/>
    <path d="M22.8 8.15547H24.5539C24.9047 8.15547 25.2554 7.8924 25.2554 7.45393C25.2554 7.01547 24.9047 6.84009 24.5539 6.84009H22.8C22.4493 6.84009 22.0985 7.10317 22.0985 7.54163C22.0985 7.98009 22.4493 8.15547 22.8 8.15547Z" fill="#1C1F20"/>
    <path d="M56.1232 20.8708C55.7724 20.8708 55.4216 21.1339 55.4216 21.5724V27.7109C55.4216 28.0616 55.6847 28.4124 56.1232 28.4124C56.5616 28.4124 56.8247 28.1493 56.8247 27.7109V21.5724C56.8247 21.1339 56.4739 20.8708 56.1232 20.8708Z" fill="#1C1F20"/>
    <path d="M56.1232 30.517C55.7724 30.517 55.4216 30.78 55.4216 31.2185V32.0954C55.4216 32.4462 55.6847 32.797 56.1232 32.797C56.5616 32.797 56.8247 32.5339 56.8247 32.0954V31.2185C56.8247 30.78 56.4739 30.517 56.1232 30.517Z" fill="#1C1F20"/>
    <path d="M2.01695 32.0077C2.01695 32.3585 2.28003 32.7092 2.71849 32.7092C3.15695 32.7092 3.42003 32.4462 3.42003 32.0077V30.8677H4.38465C4.73542 30.8677 5.08618 30.6046 5.08618 30.1662C5.08618 29.7277 4.73542 29.64 4.38465 29.64H3.33234V28.5C3.33234 28.1492 3.06926 27.7985 2.6308 27.7985C2.19234 27.7985 1.92926 28.0615 1.92926 28.5V29.64H0.876954C0.526184 29.64 0.175415 29.9031 0.175415 30.3415C0.175415 30.78 0.438492 31.0431 0.876954 31.0431H2.01695V32.0077Z" fill="#1C1F20"/>
    <path d="M50.8616 7.27851H52.0016V8.41851C52.0016 8.76928 52.2646 9.12004 52.7031 9.12004C53.1416 9.12004 53.4047 8.85697 53.4047 8.41851V7.27851H54.3693C54.72 7.27851 55.0708 7.01543 55.0708 6.57697C55.0708 6.13851 54.72 5.96312 54.3693 5.96312H53.2293V4.82312C53.2293 4.47235 52.9662 4.12158 52.5277 4.12158C52.0893 4.12158 51.8262 4.38466 51.8262 4.82312V5.96312H50.8616C50.5108 5.96312 50.16 6.2262 50.16 6.66466C50.16 7.10312 50.5108 7.27851 50.8616 7.27851Z" fill="#1C1F20"/>
    <path d="M56.7369 48.4939C56.7369 48.4939 56.7369 48.4062 56.6492 48.4062V48.3185L49.8092 39.7246V11.8385C49.8092 11.4877 49.5462 11.137 49.1077 11.137H8.76925C8.41848 11.137 8.06771 11.4 8.06771 11.8385V39.637L1.22771 48.2308V48.3185L1.14001 48.4062C1.14001 48.4939 1.14001 48.4939 1.14001 48.5816V48.6693V52.177C1.14001 52.5277 1.40309 52.8785 1.84155 52.8785H56.2108C56.5616 52.8785 56.9123 52.6154 56.9123 52.177V48.6693V48.5816C56.7369 48.5816 56.7369 48.4939 56.7369 48.4939ZM9.47078 12.54H48.4939V39.2862H9.47078V12.54ZM55.5092 51.5631H2.4554V49.3708H41.2154C41.5662 49.3708 41.9169 49.1077 41.9169 48.6693C41.9169 48.2308 41.6539 47.9677 41.2154 47.9677H3.15694L9.12001 40.5139H48.8446L54.8077 47.9677H46.4769C46.1262 47.9677 45.7754 48.2308 45.7754 48.6693C45.7754 49.1077 46.0385 49.3708 46.4769 49.3708H55.5092V51.5631Z" fill="#1C1F20"/>
    <path d="M45.6001 14.7323H12.277C11.9262 14.7323 11.5754 14.9954 11.5754 15.4338V36.48C11.5754 36.8308 11.8385 37.1815 12.277 37.1815H45.6001C45.9508 37.1815 46.3016 36.9184 46.3016 36.48V15.4338C46.3016 14.9954 45.9508 14.7323 45.6001 14.7323ZM44.9862 35.7785H12.9785V16.0477H44.9862V35.7785Z" fill="#1C1F20"/>
    <path d="M28.6754 26.5708L30.6047 28.5001L31.5693 27.5354L29.64 25.6062L31.5693 24.6416L26.3077 23.2385L27.7108 28.5001L28.6754 26.5708Z" fill="#1C1F20"/>
    <path d="M44.1092 48.0554C43.8461 47.9677 43.5831 47.9677 43.4077 48.2308C43.32 48.3185 43.2323 48.4938 43.2323 48.6692C43.2323 48.8446 43.32 49.02 43.4077 49.1077C43.4954 49.1954 43.6708 49.2831 43.8461 49.2831C43.9338 49.2831 44.0215 49.2831 44.1092 49.2831C44.1969 49.2831 44.2846 49.1954 44.2846 49.1077C44.3723 49.02 44.3723 48.9323 44.46 48.9323C44.46 48.8446 44.5477 48.7569 44.5477 48.6692C44.5477 48.4938 44.46 48.3185 44.3723 48.2308C44.2846 48.1431 44.1969 48.0554 44.1092 48.0554Z" fill="#1C1F20"/>
</svg>
