<svg width="54" height="54" viewBox="0 0 54 54" fill="none" xmlns="http://www.w3.org/2000/svg">
    <path d="M6.23077 50.76H1.24616C0.913851 50.76 0.581543 51.0092 0.581543 51.4246C0.581543 51.84 0.830774 52.0892 1.24616 52.0892H6.23077C6.56308 52.0892 6.89539 51.84 6.89539 51.4246C6.89539 51.0092 6.56308 50.76 6.23077 50.76Z" fill="#1C1F20"/>
    <path d="M9.55386 50.76H8.72309C8.39078 50.76 8.05847 51.0092 8.05847 51.4246C8.05847 51.84 8.3077 52.0892 8.72309 52.0892H9.55386C9.88616 52.0892 10.2185 51.84 10.2185 51.4246C10.2185 51.0092 9.88616 50.76 9.55386 50.76Z" fill="#1C1F20"/>
    <path d="M52.7538 3.40617H51.6738V2.40924C51.6738 2.07694 51.4246 1.74463 51.0092 1.74463C50.5938 1.74463 50.3446 1.99386 50.3446 2.40924V3.48924H49.2646C48.9323 3.48924 48.6 3.73847 48.6 4.15386C48.6 4.56924 48.8492 4.81848 49.2646 4.81848H50.3446V5.89847C50.3446 6.23078 50.5938 6.56309 51.0092 6.56309C51.4246 6.56309 51.6738 6.31386 51.6738 5.89847V4.65232H52.7538C53.0861 4.65232 53.4184 4.40309 53.4184 3.98771C53.4184 3.57232 53.0861 3.40617 52.7538 3.40617Z" fill="#1C1F20"/>
    <path d="M4.56923 43.6984H41.1231C43.2831 43.6984 45.1108 41.9538 45.1108 39.7107V3.90457C45.1108 3.73841 45.0277 3.57226 44.9446 3.48918L42.2031 0.830722C41.9538 0.581491 41.5385 0.581491 41.2892 0.830722L39.0462 3.0738L36.8031 0.830722C36.5538 0.581491 36.1385 0.581491 35.8892 0.830722L33.6461 3.0738L31.4031 0.830722C31.1538 0.581491 30.7385 0.581491 30.4892 0.830722L28.2461 3.0738L26.0031 0.830722C25.7538 0.581491 25.3385 0.581491 25.0892 0.830722L22.8461 3.0738L20.6031 0.830722C20.3538 0.581491 19.9385 0.581491 19.6892 0.830722L17.4461 3.0738L15.2031 0.830722C14.9538 0.581491 14.5385 0.581491 14.2892 0.830722L12.0461 3.0738L9.80307 0.830722C9.55384 0.581491 9.13846 0.581491 8.88923 0.830722L6.64615 3.0738L4.40307 0.830722C4.15384 0.581491 3.73846 0.581491 3.48923 0.830722L0.830766 3.48918C0.664612 3.65534 0.664612 3.73841 0.664612 3.90457V39.7107C0.664612 41.9538 2.40923 43.6984 4.56923 43.6984ZM1.91077 4.23688L3.98769 2.15995L6.23077 4.40303C6.48 4.65226 6.89538 4.65226 7.14461 4.40303L9.38769 2.15995L11.6308 4.40303C11.88 4.65226 12.2954 4.65226 12.5446 4.40303L14.7877 2.15995L17.0308 4.40303C17.28 4.65226 17.6954 4.65226 17.9446 4.40303L20.1877 2.15995L22.4308 4.40303C22.68 4.65226 23.0954 4.65226 23.3446 4.40303L25.5877 2.15995L27.8308 4.40303C28.08 4.65226 28.4954 4.65226 28.7446 4.40303L30.9877 2.15995L33.2308 4.40303C33.48 4.65226 33.8954 4.65226 34.1446 4.40303L36.3877 2.15995L38.6308 4.40303C38.88 4.65226 39.2954 4.65226 39.5446 4.40303L41.7877 2.15995L43.8646 4.23688V39.7938C43.8646 41.2892 42.6185 42.5353 41.1231 42.5353H4.56923C3.07384 42.5353 1.82769 41.2892 1.82769 39.7938V4.23688H1.91077Z" fill="#1C1F20"/>
    <path d="M4.56922 15.4522H41.1231C41.4554 15.4522 41.7877 15.203 41.7877 14.7876V6.47992C41.7877 6.14762 41.5385 5.81531 41.1231 5.81531H4.56922C4.23691 5.81531 3.9046 6.06454 3.9046 6.47992V14.7876C3.98768 15.203 4.23691 15.4522 4.56922 15.4522ZM5.23383 7.14454H40.5415V14.2061H5.23383V7.14454Z" fill="#1C1F20"/>
    <path d="M31.1538 25.0061C27.1662 25.0061 23.8431 28.2461 23.8431 32.3169C23.8431 36.3876 27.0831 39.6276 31.1538 39.6276C35.2246 39.6276 38.4646 36.3876 38.4646 32.3169C38.4646 28.2461 35.1415 25.0061 31.1538 25.0061ZM37.1354 31.6523H35.0585C34.9754 29.7415 34.4769 28.08 33.8123 26.9169C35.64 27.8307 36.9692 29.5753 37.1354 31.6523ZM30.5723 26.5015V31.7353H28.4954C28.5785 28.9938 29.4923 27.083 30.5723 26.5015ZM30.5723 32.8984V38.1323C29.5754 37.5507 28.6615 35.5569 28.4954 32.8984H30.5723ZM31.8185 38.1323V32.8984H33.8954C33.7292 35.5569 32.8154 37.5507 31.8185 38.1323ZM31.8185 31.6523V26.4184C32.8154 26.9999 33.7292 28.9938 33.8954 31.6523H31.8185ZM28.4954 26.9169C27.7477 28.08 27.3323 29.7415 27.2492 31.6523H25.1723C25.3385 29.5753 26.6677 27.8307 28.4954 26.9169ZM25.1723 32.8984H27.2492C27.3323 34.8092 27.8308 36.4707 28.4954 37.6338C26.6677 36.803 25.3385 34.9753 25.1723 32.8984ZM33.8123 37.7169C34.56 36.5538 34.9754 34.8923 35.0585 32.9815H37.1354C36.9692 34.9753 35.64 36.803 33.8123 37.7169Z" fill="#1C1F20"/>
    <path d="M4.56922 19.6061H41.1231C41.4554 19.6061 41.7877 19.3569 41.7877 18.9415C41.7877 18.5261 41.5385 18.2769 41.1231 18.2769H4.56922C4.23691 18.2769 3.9046 18.5261 3.9046 18.9415C3.9046 19.3569 4.23691 19.6061 4.56922 19.6061Z" fill="#1C1F20"/>
    <path d="M4.56922 22.9292H41.1231C41.4554 22.9292 41.7877 22.68 41.7877 22.2646C41.7877 21.8492 41.5385 21.6 41.1231 21.6H4.56922C4.23691 21.6 3.9046 21.8492 3.9046 22.2646C3.9046 22.68 4.23691 22.9292 4.56922 22.9292Z" fill="#1C1F20"/>
    <path d="M4.56922 26.2522H21.1846C21.5169 26.2522 21.8492 26.003 21.8492 25.5876C21.8492 25.1722 21.6 24.923 21.1846 24.923H4.56922C4.23691 24.923 3.9046 25.1722 3.9046 25.5876C3.9046 26.003 4.23691 26.2522 4.56922 26.2522Z" fill="#1C1F20"/>
    <path d="M4.56922 29.5753H21.1846C21.5169 29.5753 21.8492 29.3261 21.8492 28.9107C21.8492 28.4953 21.6 28.2461 21.1846 28.2461H4.56922C4.23691 28.2461 3.9046 28.4953 3.9046 28.9107C3.9046 29.3261 4.23691 29.5753 4.56922 29.5753Z" fill="#1C1F20"/>
    <path d="M4.56922 32.8984H21.1846C21.5169 32.8984 21.8492 32.6492 21.8492 32.2338C21.8492 31.8184 21.6 31.5692 21.1846 31.5692H4.56922C4.23691 31.5692 3.9046 31.8184 3.9046 32.2338C3.9046 32.6492 4.23691 32.8984 4.56922 32.8984Z" fill="#1C1F20"/>
    <path d="M4.56922 36.2214H21.1846C21.5169 36.2214 21.8492 35.9722 21.8492 35.5568C21.8492 35.1414 21.6 34.8922 21.1846 34.8922H4.56922C4.23691 34.8922 3.9046 35.1414 3.9046 35.5568C3.9046 35.9722 4.23691 36.2214 4.56922 36.2214Z" fill="#1C1F20"/>
    <path d="M4.56922 39.5446H21.1846C21.5169 39.5446 21.8492 39.2953 21.8492 38.8799C21.8492 38.4646 21.6 38.2153 21.1846 38.2153H4.56922C4.23691 38.2153 3.9046 38.4646 3.9046 38.8799C3.9046 39.2953 4.23691 39.5446 4.56922 39.5446Z" fill="#1C1F20"/>
    <path d="M48.3508 21.1846C48.2677 20.8523 47.9354 20.6031 47.6031 20.6861C47.2708 20.7692 47.0216 21.1015 47.1046 21.4338L51.7569 43.2831C51.84 43.5323 51.7569 43.8646 51.5908 44.0308C51.4246 44.28 51.1754 44.4461 50.9262 44.4461L15.2031 52.0061C14.6216 52.0892 14.1231 51.7569 13.9569 51.1754L12.8769 46.1908C12.7939 45.8584 12.4616 45.6092 12.1292 45.6923C11.7969 45.7754 11.5477 46.1077 11.6308 46.44L12.7108 51.4246C12.96 52.5046 13.8739 53.2523 14.9539 53.2523C15.12 53.2523 15.2862 53.2523 15.4523 53.1692L51.1754 45.6092C51.7569 45.4431 52.2554 45.1108 52.5877 44.6123C52.92 44.1138 53.0031 43.4492 52.92 42.8677L48.3508 21.1846Z" fill="#1C1F20"/>
</svg>
