<svg width="51" height="51" viewBox="0 0 51 51" fill="none" xmlns="http://www.w3.org/2000/svg">
    <path d="M45.9 49.2738H38.8385C38.5247 49.2738 38.2108 49.5092 38.2108 49.9015C38.2108 50.2938 38.4462 50.5292 38.8385 50.5292H45.9C46.2139 50.5292 46.5277 50.2938 46.5277 49.9015C46.5277 49.5092 46.2139 49.2738 45.9 49.2738Z" fill="#1C1F20"/>
    <path d="M49.8231 49.2738H49.0385C48.7246 49.2738 48.4108 49.5092 48.4108 49.9015C48.4108 50.2938 48.6462 50.5292 49.0385 50.5292H49.8231C50.1369 50.5292 50.4508 50.2938 50.4508 49.9015C50.4508 49.5092 50.1369 49.2738 49.8231 49.2738Z" fill="#1C1F20"/>
    <path d="M7.4539 47.7046H6.51236V46.6846C6.51236 46.3707 6.27698 46.0569 5.88467 46.0569C5.49236 46.0569 5.25697 46.2923 5.25697 46.6846V47.7046H4.31544C4.00159 47.7046 3.68774 47.94 3.68774 48.3323C3.68774 48.7246 3.92313 48.96 4.31544 48.96H5.33544V49.98C5.33544 50.2938 5.57082 50.6077 5.96313 50.6077C6.35544 50.6077 6.59082 50.3723 6.59082 49.98V48.96H7.61082C7.92467 48.96 8.23851 48.7246 8.23851 48.3323C8.23851 47.94 7.76774 47.7046 7.4539 47.7046Z" fill="#1C1F20"/>
    <path d="M49.8231 0.627686H1.17695C0.863102 0.627686 0.549255 0.86307 0.549255 1.25538V42.0554C0.549255 42.3692 0.78464 42.6831 1.17695 42.6831H8.55233C8.86618 42.6831 9.18002 42.4477 9.18002 42.0554C9.18002 41.6631 8.94464 41.4277 8.55233 41.4277H1.80464V8.08153H49.2739V41.4277H42.4477C42.1339 41.4277 41.82 41.6631 41.82 42.0554C41.82 42.4477 42.0554 42.6831 42.4477 42.6831H49.8231C50.1369 42.6831 50.4508 42.4477 50.4508 42.0554V1.25538C50.4508 0.86307 50.1369 0.627686 49.8231 0.627686ZM1.80464 6.90461V1.80461H49.2739V6.90461H1.80464Z" fill="#1C1F20"/>
    <path d="M45.9 38.6816C46.2139 38.6816 46.5277 38.4462 46.5277 38.0539V11.377C46.5277 11.0631 46.2923 10.7493 45.9 10.7493H5.10004C4.7862 10.7493 4.47235 10.9847 4.47235 11.377V38.0539C4.47235 38.3677 4.70774 38.6816 5.10004 38.6816C5.49235 38.6816 5.72774 38.4462 5.72774 38.0539V12.0047H45.3508V38.1323C45.3508 38.3677 45.5862 38.6816 45.9 38.6816Z" fill="#1C1F20"/>
    <path d="M5.88465 5.09999C6.31798 5.09999 6.66927 4.74871 6.66927 4.31538C6.66927 3.88205 6.31798 3.53076 5.88465 3.53076C5.45132 3.53076 5.10004 3.88205 5.10004 4.31538C5.10004 4.74871 5.45132 5.09999 5.88465 5.09999Z" fill="#1C1F20"/>
    <path d="M12.1616 5.09999C12.5949 5.09999 12.9462 4.74871 12.9462 4.31538C12.9462 3.88205 12.5949 3.53076 12.1616 3.53076C11.7282 3.53076 11.377 3.88205 11.377 4.31538C11.377 4.74871 11.7282 5.09999 12.1616 5.09999Z" fill="#1C1F20"/>
    <path d="M9.02308 5.09999C9.45641 5.09999 9.8077 4.74871 9.8077 4.31538C9.8077 3.88205 9.45641 3.53076 9.02308 3.53076C8.58975 3.53076 8.23846 3.88205 8.23846 4.31538C8.23846 4.74871 8.58975 5.09999 9.02308 5.09999Z" fill="#1C1F20"/>
    <path d="M39.78 42.3693L37.6615 40.2508C38.2108 39.2308 38.6815 38.1323 38.9954 37.0339H41.9769C42.2908 37.0339 42.6046 36.7985 42.6046 36.4062V30.2077C42.6046 29.8939 42.3692 29.58 41.9769 29.58H38.9954C38.6815 28.4816 38.2108 27.3831 37.6615 26.3631L39.78 24.2447C40.0154 24.0093 40.0154 23.617 39.78 23.3816L35.3862 18.9877C35.1508 18.7523 34.7585 18.7523 34.5231 18.9877L32.4046 21.1847C31.3846 20.6354 30.2862 20.1647 29.1877 19.8508V16.8693C29.1877 16.5554 28.9523 16.2416 28.56 16.2416H22.3615C22.0477 16.2416 21.7338 16.477 21.7338 16.8693V19.8508C20.6354 20.1647 19.5369 20.6354 18.5169 21.1847L16.4769 19.0662C16.2415 18.8308 15.8492 18.8308 15.6138 19.0662L11.22 23.46C10.9846 23.6954 10.9846 24.0877 11.22 24.3231L13.3385 26.4416C12.7892 27.4616 12.3185 28.56 12.0046 29.6585H9.02308C8.70923 29.6585 8.39539 29.8939 8.39539 30.2862V36.4847C8.39539 36.7985 8.63077 37.1123 9.02308 37.1123H12.0046C12.3185 38.2108 12.7892 39.3093 13.3385 40.3293L11.22 42.3693C10.9846 42.6047 10.9846 42.997 11.22 43.2323L15.6138 47.6262C15.8492 47.8616 16.2415 47.8616 16.4769 47.6262L18.5954 45.5077C19.6154 46.057 20.7138 46.5277 21.8123 46.8416V49.8231C21.8123 50.137 22.0477 50.4508 22.44 50.4508H28.6385C28.9523 50.4508 29.2662 50.2154 29.2662 49.8231V46.8416C30.3646 46.5277 31.4631 46.057 32.4831 45.5077L34.6015 47.6262C34.8369 47.8616 35.2292 47.8616 35.4646 47.6262L39.8585 43.2323C40.0154 42.997 40.0154 42.6047 39.78 42.3693ZM34.9938 46.3708L32.9538 44.3308C32.7969 44.1739 32.4831 44.0954 32.2477 44.2523C31.0708 44.9585 29.8154 45.5077 28.4815 45.8216C28.2462 45.9 28.0108 46.1354 28.0108 46.3708V49.2739H22.9892V46.3708C22.9892 46.1354 22.8323 45.9 22.5185 45.8216C21.1846 45.5077 19.9292 44.9585 18.7523 44.2523C18.5169 44.0954 18.2031 44.1739 18.0462 44.3308L16.0062 46.3708L12.4754 42.84L14.5154 40.8C14.6723 40.6431 14.7508 40.3293 14.5938 40.0939C13.8877 38.917 13.3385 37.6616 13.0246 36.3277C12.9462 36.0923 12.7108 35.857 12.4754 35.857H9.57231V30.8354H12.4754C12.7108 30.8354 12.9462 30.6785 13.0246 30.3647C13.3385 29.0308 13.8877 27.7754 14.5938 26.5985C14.7508 26.3631 14.6723 26.0493 14.5154 25.8923L12.4754 23.8523L16.0062 20.3216L18.0462 22.3616C18.2031 22.5185 18.5169 22.597 18.7523 22.44C19.9292 21.7339 21.1846 21.1847 22.5185 20.8708C22.7538 20.7923 22.9892 20.557 22.9892 20.3216V17.4185H28.0108V20.3216C28.0108 20.557 28.1677 20.7923 28.4815 20.8708C29.8154 21.1847 31.0708 21.7339 32.2477 22.44C32.4831 22.597 32.7969 22.5185 32.9538 22.3616L34.9938 20.3216L38.5246 23.8523L36.4846 25.8923C36.3277 26.0493 36.2492 26.3631 36.4062 26.5985C37.1123 27.7754 37.6615 29.0308 37.9754 30.3647C38.0538 30.6 38.2892 30.8354 38.5246 30.8354H41.4277V35.857H38.5246C38.2892 35.857 38.0538 36.0139 37.9754 36.3277C37.6615 37.6616 37.1123 38.917 36.4062 40.0939C36.2492 40.3293 36.3277 40.6431 36.4846 40.8L38.5246 42.84L34.9938 46.3708Z" fill="#1C1F20"/>
    <path d="M25.5 24.5585C20.6354 24.5585 16.6339 28.4815 16.6339 33.4246C16.6339 38.3677 20.5569 42.2908 25.5 42.2908C30.4431 42.2908 34.3662 38.3677 34.3662 33.4246C34.3662 28.4815 30.3646 24.5585 25.5 24.5585ZM25.5 41.0354C21.2631 41.0354 17.8108 37.5831 17.8108 33.3462C17.8108 29.1092 21.2631 25.6569 25.5 25.6569C29.7369 25.6569 33.1892 29.1092 33.1892 33.3462C33.1892 37.5831 29.7369 41.0354 25.5 41.0354Z" fill="#1C1F20"/>
</svg>
