<svg width="56" height="56" viewBox="0 0 56 56" fill="none" xmlns="http://www.w3.org/2000/svg">
    <path d="M52.9846 24.8124C52.64 24.8124 52.2954 25.0708 52.2954 25.5016V39.2862C52.2954 39.6308 52.5539 39.9755 52.9846 39.9755C53.4154 39.9755 53.6739 39.717 53.6739 39.2862V25.5016C53.6739 25.0708 53.3293 24.8124 52.9846 24.8124Z" fill="#1C1F20"/>
    <path d="M52.9846 19.6431C52.64 19.6431 52.2954 19.9015 52.2954 20.3323V22.0554C52.2954 22.4 52.5539 22.7446 52.9846 22.7446C53.4154 22.7446 53.6739 22.4861 53.6739 22.0554V20.3323C53.6739 19.9015 53.3293 19.6431 52.9846 19.6431Z" fill="#1C1F20"/>
    <path d="M3.87688 7.9262C4.2215 7.9262 4.56611 7.66774 4.56611 7.23697V1.2062C4.56611 0.861583 4.30765 0.516968 3.87688 0.516968C3.44611 0.516968 3.2738 0.947737 3.2738 1.29235V7.32312C3.2738 7.66774 3.53227 7.9262 3.87688 7.9262Z" fill="#1C1F20"/>
    <path d="M3.87685 12.2339C4.22147 12.2339 4.56608 11.9754 4.56608 11.5447V10.6831C4.56608 10.3385 4.30762 9.9939 3.87685 9.9939C3.44608 9.9939 3.18762 10.2524 3.18762 10.6831V11.5447C3.27378 11.9754 3.53224 12.2339 3.87685 12.2339Z" fill="#1C1F20"/>
    <path d="M6.28922 39.2C6.28922 38.8554 6.03075 38.5108 5.59998 38.5108H4.56614V37.3908C4.56614 37.0462 4.30768 36.7015 3.87691 36.7015C3.44614 36.7015 3.18768 36.96 3.18768 37.3908V38.5108H2.15383C1.80921 38.5108 1.4646 38.7692 1.4646 39.2C1.4646 39.6308 1.72306 39.8892 2.15383 39.8892H3.27383V41.0092C3.27383 41.3538 3.53229 41.6985 3.96306 41.6985C4.39383 41.6985 4.65229 41.44 4.65229 41.0092V39.8892H5.77229C5.9446 39.8892 6.28922 39.5446 6.28922 39.2Z" fill="#1C1F20"/>
    <path d="M50.4 0.689331H16.8C13.6123 0.689331 10.9416 3.27395 10.9416 6.54779V12.5786C10.9416 12.9232 11.2 13.2678 11.6308 13.2678C12.0616 13.2678 12.32 13.0093 12.32 12.5786V6.54779C12.32 4.04933 14.3877 1.98164 16.8862 1.98164H17.7477C20.2462 1.98164 22.3139 4.04933 22.3139 6.54779V11.717C22.3139 12.0616 22.5723 12.4063 23.0031 12.4063H25.5877C25.9323 12.4063 26.277 12.1478 26.277 11.717C26.277 11.2863 26.0185 11.0278 25.5877 11.0278H23.6062V6.46164C23.6062 4.65241 22.7446 3.01549 21.4523 1.89549H50.5723C53.2431 1.89549 54.277 4.22164 54.277 6.46164V11.0278H28.8616C28.517 11.0278 28.1723 11.2863 28.1723 11.717C28.1723 12.1478 28.4308 12.4063 28.8616 12.4063H48.0739V49.7109C48.0739 52.2093 46.0062 54.277 43.5077 54.277C41.0093 54.277 38.9416 52.2093 38.9416 49.7109V44.5416C38.9416 44.197 38.6831 43.8524 38.2523 43.8524H12.32V40.1478C12.32 39.8032 12.0616 39.4586 11.6308 39.4586C11.2 39.4586 10.9416 39.717 10.9416 40.1478V43.8524H6.46157C6.11695 43.8524 5.77234 44.1109 5.77234 44.5416V49.7109C5.77234 52.8986 8.35695 55.5693 11.6308 55.5693H43.5077C46.6954 55.5693 49.3662 52.9847 49.3662 49.7109V12.3201H54.7939C55.1385 12.3201 55.4831 12.0616 55.4831 11.6309V6.46164C55.397 2.92933 53.4154 0.689331 50.4 0.689331ZM11.6308 54.1047C9.13234 54.1047 7.06465 52.037 7.06465 49.5386V44.9724H37.6493V49.5386C37.6493 51.3478 38.5108 52.9847 39.8031 54.1047H11.6308Z" fill="#1C1F20"/>
    <path d="M26.2769 30.4124H45.2307C45.5753 30.4124 45.92 30.1539 45.92 29.7232C45.92 29.2924 45.6615 29.0339 45.2307 29.0339H26.2769C25.9323 29.0339 25.5876 29.2924 25.5876 29.7232C25.5876 30.1539 25.9323 30.4124 26.2769 30.4124Z" fill="#1C1F20"/>
    <path d="M25.6738 25.4154C25.6738 25.76 25.9323 26.1047 26.3631 26.1047H45.3169C45.6615 26.1047 46.0061 25.8462 46.0061 25.4154C46.0061 24.9847 45.7477 24.7262 45.3169 24.7262H26.3631C25.9323 24.8123 25.6738 25.0708 25.6738 25.4154Z" fill="#1C1F20"/>
    <path d="M34.8922 21.7109H45.2307C45.5753 21.7109 45.9199 21.4524 45.9199 21.0216C45.9199 20.5909 45.6615 20.3324 45.2307 20.3324H34.8922C34.5476 20.3324 34.203 20.5909 34.203 21.0216C34.203 21.4524 34.5476 21.7109 34.8922 21.7109Z" fill="#1C1F20"/>
    <path d="M34.8922 17.4031H45.2307C45.5753 17.4031 45.9199 17.1447 45.9199 16.7139C45.9199 16.2831 45.6615 16.0247 45.2307 16.0247H34.8922C34.5476 16.0247 34.203 16.2831 34.203 16.7139C34.203 17.1447 34.5476 17.4031 34.8922 17.4031Z" fill="#1C1F20"/>
    <path d="M26.2769 34.72H45.2307C45.5753 34.72 45.92 34.4616 45.92 34.0308C45.92 33.6 45.6615 33.3416 45.2307 33.3416H26.2769C25.9323 33.3416 25.5876 33.6 25.5876 34.0308C25.5876 34.4616 25.9323 34.72 26.2769 34.72Z" fill="#1C1F20"/>
    <path d="M26.2769 39.0278H45.2307C45.5753 39.0278 45.92 38.7693 45.92 38.3385C45.92 37.9078 45.6615 37.6493 45.2307 37.6493H26.2769C25.9323 37.6493 25.5876 37.9078 25.5876 38.3385C25.5876 38.7693 25.9323 39.0278 26.2769 39.0278Z" fill="#1C1F20"/>
    <path d="M11.6307 37.3047C14.6461 37.3047 17.4031 36.0985 19.3846 34.117C21.3661 32.1354 22.5723 29.3785 22.5723 26.3631C22.5723 20.3324 17.6615 15.3354 11.5446 15.3354C5.42767 15.3354 0.689209 20.2462 0.689209 26.277C0.689209 32.3078 5.59998 37.3047 11.6307 37.3047ZM18.9538 32.6524L13.2677 26.9662H21.3661C21.1077 29.1201 20.2461 31.1016 18.9538 32.6524ZM21.28 25.6739H12.32V16.6278C17.1446 16.9724 20.9354 20.7631 21.28 25.6739ZM11.0277 16.6278V26.277C11.0277 26.3631 11.0277 26.4493 11.1138 26.5354C11.1138 26.6216 11.2 26.7078 11.2861 26.7078L18.0923 33.5139C16.3692 34.9785 14.1292 35.9262 11.7169 35.9262C6.37536 35.9262 1.98152 31.6185 1.98152 26.1908C1.98152 21.1939 5.94459 16.9724 11.0277 16.6278Z" fill="#1C1F20"/>
    <path d="M27.1384 12.2339C27.3107 12.2339 27.483 12.1477 27.5692 12.0616C27.6553 11.9754 27.7415 11.8031 27.7415 11.6308C27.7415 11.4585 27.6553 11.2862 27.5692 11.2001C27.483 11.1139 27.483 11.1139 27.3107 11.0278C27.1384 10.9416 26.9661 10.9416 26.7938 11.0278C26.7077 11.0278 26.6215 11.1139 26.6215 11.2001C26.5353 11.2862 26.5353 11.3724 26.4492 11.4585C26.4492 11.5447 26.363 11.6308 26.363 11.717C26.363 11.8031 26.363 11.8893 26.363 11.9754C26.363 12.0616 26.4492 12.1477 26.5353 12.1477C26.7938 12.2339 26.9661 12.2339 27.1384 12.2339Z" fill="#1C1F20"/>
</svg>
