<svg width="58" height="58" viewBox="0 0 58 58" fill="none" xmlns="http://www.w3.org/2000/svg">
    <path d="M2.23081 5.97852C1.87389 5.97852 1.51697 6.24621 1.51697 6.69236V17.4001C1.51697 17.757 1.78466 18.1139 2.23081 18.1139C2.67697 18.1139 2.94466 17.8462 2.94466 17.4001V6.69236C2.94466 6.33544 2.58774 5.97852 2.23081 5.97852Z" fill="#1C1F20"/>
    <path d="M2.23081 0.624634C1.87389 0.624634 1.51697 0.892326 1.51697 1.33848V3.1231C1.51697 3.48002 1.78466 3.83694 2.23081 3.83694C2.67697 3.83694 2.94466 3.56925 2.94466 3.1231V1.33848C2.94466 0.981557 2.58774 0.624634 2.23081 0.624634Z" fill="#1C1F20"/>
    <path d="M55.7693 1.51697H49.5232C49.1662 1.51697 48.8093 1.78466 48.8093 2.23081C48.8093 2.67697 49.077 2.94466 49.5232 2.94466H55.7693C56.1262 2.94466 56.4832 2.67697 56.4832 2.23081C56.4832 1.78466 56.1262 1.51697 55.7693 1.51697Z" fill="#1C1F20"/>
    <path d="M45.0616 2.85543H45.9539C46.3109 2.85543 46.6678 2.58773 46.6678 2.14158C46.6678 1.69543 46.4001 1.42773 45.9539 1.42773H45.0616C44.7047 1.42773 44.3478 1.69543 44.3478 2.14158C44.3478 2.58773 44.7047 2.85543 45.0616 2.85543Z" fill="#1C1F20"/>
    <path d="M49.5231 54.2524H48.3631V53.0924C48.3631 52.7355 48.0954 52.3785 47.6492 52.3785C47.2031 52.3785 46.9354 52.6462 46.9354 53.0924V54.2524H45.7754C45.4184 54.2524 45.0615 54.5201 45.0615 54.9662C45.0615 55.4124 45.3292 55.6801 45.7754 55.6801H46.9354V56.8401C46.9354 57.197 47.2031 57.5539 47.6492 57.5539C48.0954 57.5539 48.3631 57.2862 48.3631 56.8401V55.6801H49.5231C49.88 55.6801 50.2369 55.4124 50.2369 54.9662C50.2369 54.5201 49.88 54.2524 49.5231 54.2524Z" fill="#1C1F20"/>
    <path d="M13.8308 45.3293H12.6708V44.1693C12.6708 43.8124 12.4031 43.4554 11.957 43.4554C11.5108 43.4554 11.2431 43.7231 11.2431 44.1693V45.3293H10.0831C9.72619 45.3293 9.36926 45.597 9.36926 46.0431C9.36926 46.4893 9.63696 46.757 10.0831 46.757H11.2431V47.917C11.2431 48.2739 11.5108 48.6308 11.957 48.6308C12.4031 48.6308 12.6708 48.3631 12.6708 47.917V46.757H13.8308C14.1877 46.757 14.5446 46.4893 14.5446 46.0431C14.5446 45.597 14.1877 45.3293 13.8308 45.3293Z" fill="#1C1F20"/>
    <path d="M28.1077 0.624634C15.9724 0.624634 6.06775 10.6185 6.06775 22.7539C6.06775 33.8185 14.1877 43.0093 24.8062 44.6154V48.0062H23.6462C23.2893 48.0062 22.9324 48.2739 22.9324 48.72V56.7508C22.9324 57.1077 23.2001 57.4646 23.6462 57.4646C24.0924 57.4646 24.3601 57.1969 24.3601 56.7508V49.3446H31.9447V56.7508C31.9447 57.1077 32.2124 57.4646 32.6585 57.4646C33.1047 57.4646 33.3724 57.1969 33.3724 56.7508V48.72C33.3724 48.3631 33.1047 48.0062 32.6585 48.0062H31.4985V44.6154C42.117 43.0093 50.237 33.8185 50.237 22.7539C50.237 10.6185 40.2431 0.624634 28.1077 0.624634ZM30.1601 47.9169H26.1447V44.7046C26.7693 44.7939 27.4831 44.7939 28.197 44.7939C28.9108 44.7939 29.5354 44.7939 30.2493 44.7046V47.9169H30.1601ZM28.1077 43.4554C16.6862 43.4554 7.31698 34.1754 7.31698 22.6646C7.31698 11.1539 16.6862 1.9631 28.1077 1.9631C39.5293 1.9631 48.8985 11.2431 48.8985 22.7539C48.8985 34.2646 39.5293 43.4554 28.1077 43.4554Z" fill="#1C1F20"/>
    <path d="M40.6001 31.7662C40.5108 31.9446 40.4216 32.1231 40.5108 32.3016C40.5108 32.48 40.6001 32.6585 40.7785 32.7477C40.8678 32.8369 41.0462 32.9262 41.1355 32.9262C41.3139 32.9262 41.5816 32.8369 41.6708 32.6585C41.8493 32.3908 41.8493 31.9446 41.4924 31.7662C41.2247 31.4093 40.7785 31.4985 40.6001 31.7662Z" fill="#1C1F20"/>
    <path d="M39.9755 10.8862C36.8524 7.76313 32.6586 5.97852 28.1078 5.97852C23.6462 5.97852 19.4524 7.76313 16.2401 10.8862C13.117 14.0093 11.3324 18.2031 11.3324 22.7539C11.3324 27.2154 13.117 31.4093 16.2401 34.6216C19.3632 37.7447 23.557 39.5293 28.1078 39.5293C32.5693 39.5293 36.7632 37.8339 39.9755 34.6216C40.2432 34.3539 40.2432 33.9077 39.9755 33.6401C39.7078 33.3724 39.2616 33.3724 38.9939 33.6401C36.0493 36.5847 32.2124 38.1016 28.1078 38.1016C24.0032 38.1016 20.1662 36.4954 17.2216 33.6401C14.277 30.6954 12.6709 26.8585 12.6709 22.7539C12.6709 18.6493 14.277 14.7231 17.2216 11.8677C20.1662 8.92313 24.0032 7.31698 28.1078 7.31698C32.2124 7.31698 36.1386 8.92313 38.9939 11.7785C39.6186 12.4031 40.1539 13.0277 40.6893 13.7416C42.5632 16.3293 43.5447 19.4524 43.5447 22.6647C43.5447 25.0739 43.0093 27.4831 41.8493 29.6247C41.7601 29.8031 41.7601 29.9816 41.8493 30.1601C41.9386 30.3385 42.0278 30.4277 42.2062 30.517C42.5632 30.6954 42.9201 30.517 43.0986 30.2493C44.2586 27.9293 44.8832 25.2524 44.8832 22.6647C44.8832 19.1847 43.8124 15.7939 41.8493 13.0277C41.2247 12.3139 40.6001 11.6001 39.9755 10.8862Z" fill="#1C1F20"/>
    <path d="M28.1077 16.7754C24.8062 16.7754 22.04 19.4523 22.04 22.8431C22.04 26.2339 24.717 28.9108 28.1077 28.9108C31.4985 28.9108 34.1754 26.2339 34.1754 22.8431C34.1754 19.4523 31.4093 16.7754 28.1077 16.7754ZM28.1077 27.4831C25.52 27.4831 23.3785 25.3415 23.3785 22.7539C23.3785 20.1662 25.52 18.0246 28.1077 18.0246C30.6954 18.0246 32.837 20.1662 32.837 22.7539C32.837 25.3415 30.6954 27.4831 28.1077 27.4831Z" fill="#1C1F20"/>
    <path d="M39.8863 20.3447L38.1016 19.7201C37.9232 19.0062 37.6555 18.3816 37.2986 17.757L38.1016 16.0616C38.1909 15.7939 38.1909 15.5262 38.0124 15.2585L35.5139 12.7601C35.3355 12.5816 34.9786 12.4924 34.7109 12.6708L33.0155 13.4739C32.3909 13.117 31.7662 12.8493 31.0524 12.6708L30.4278 10.8862C30.3386 10.6185 30.0709 10.4401 29.8032 10.4401H26.2339C25.9662 10.4401 25.6986 10.6185 25.6093 10.8862L24.9847 12.6708C24.2709 12.8493 23.6462 13.117 23.0216 13.4739L21.3262 12.6708C21.0586 12.5816 20.7909 12.5816 20.5232 12.7601L18.0247 15.2585C17.8463 15.437 17.757 15.7939 17.9355 16.0616L18.7386 17.757C18.3816 18.3816 18.1139 19.0062 17.9355 19.7201L16.1509 20.3447C15.8832 20.4339 15.7047 20.7016 15.7047 20.9693V24.5385C15.7047 24.8062 15.8832 25.0739 16.1509 25.1631L17.9355 25.7878C18.1139 26.5016 18.3816 27.1262 18.7386 27.7508L17.9355 29.4462C17.8463 29.7139 17.8463 29.9816 18.0247 30.2493L20.5232 32.7478C20.7016 32.9262 21.0586 33.0154 21.3262 32.837L23.0216 32.0339C23.6462 32.3908 24.2709 32.6585 24.9847 32.837L25.6093 34.6216C25.6986 34.8893 25.9662 35.0678 26.2339 35.0678H29.8032C30.0709 35.0678 30.3386 34.8893 30.4278 34.6216L31.0524 32.837C31.7662 32.6585 32.3909 32.3908 33.0155 32.0339L34.7109 32.837C34.9786 32.9262 35.2463 32.9262 35.5139 32.7478L38.0124 30.2493C38.1909 30.0708 38.2801 29.7139 38.1016 29.4462L37.2986 27.7508C37.6555 27.1262 37.9232 26.5016 38.1016 25.7878L39.8863 25.1631C40.1539 25.0739 40.3324 24.8062 40.3324 24.5385V20.9693C40.4216 20.7016 40.1539 20.4339 39.8863 20.3447ZM39.0832 24.0924L37.3878 24.6278C37.2093 24.717 37.0309 24.8955 36.9416 25.0739C36.7632 25.877 36.4062 26.6801 35.9601 27.3939C35.8709 27.5724 35.8709 27.8401 35.9601 28.0185L36.7632 29.6247L34.8893 31.4985L33.2832 30.6954C33.1047 30.6062 32.837 30.6062 32.6586 30.6954C31.9447 31.1416 31.1416 31.4093 30.3386 31.677C30.1601 31.7662 29.9816 31.8554 29.8924 32.1231L29.4462 33.6401H26.7693L26.2339 31.9447C26.1447 31.7662 25.9662 31.5878 25.7878 31.4985C24.9847 31.3201 24.1816 30.9631 23.4678 30.517C23.2893 30.4278 23.0216 30.4278 22.8432 30.517L21.237 31.3201L19.3632 29.4462L20.1663 27.8401C20.2555 27.6616 20.2555 27.3939 20.1663 27.2154C19.7201 26.5016 19.4524 25.6985 19.1847 24.8954C19.0955 24.717 19.0063 24.5385 18.7386 24.4493L17.2216 24.0924V21.4154L18.917 20.8801C19.0955 20.7908 19.2739 20.6124 19.3632 20.4339C19.5416 19.6308 19.8986 18.8278 20.3447 18.1139C20.4339 17.9354 20.4339 17.6678 20.3447 17.4893L19.5416 15.8831L21.4155 14.0093L23.0216 14.8124C23.2001 14.9016 23.4678 14.9016 23.6463 14.8124C24.3601 14.3662 25.1632 14.0985 25.9663 13.8308C26.1447 13.7416 26.3232 13.6524 26.4124 13.3847L26.9478 11.6893H29.4462L29.9816 13.3847C30.0709 13.5631 30.2493 13.7416 30.4278 13.8308C31.2309 14.0093 32.0339 14.3662 32.7478 14.8124C32.9263 14.9016 33.1939 14.9016 33.3724 14.8124L34.9786 14.0093L36.8524 15.8831L36.0493 17.4893C35.9601 17.6678 35.9601 17.9354 36.0493 18.1139C36.4955 18.8278 36.7632 19.6308 37.0309 20.4339C37.1201 20.6124 37.2093 20.7908 37.477 20.8801L39.1724 21.4154V24.0924H39.0832Z" fill="#1C1F20"/>
</svg>
