<svg width="130" height="75" viewBox="0 0 130 75" fill="none" xmlns="http://www.w3.org/2000/svg">
    <path d="M11.2549 38.4082H26.1719V45H2.68555V9.45312H11.2549V38.4082ZM38.916 45H30.3711V9.45312H38.916V45ZM67.2607 30.8398H53.4424V45H44.873V9.45312H68.6523V16.0693H53.4424V24.248H67.2607V30.8398ZM94.2627 29.9365H80.7861V38.4082H96.7041V45H72.2168V9.45312H96.7529V16.0693H80.7861V23.5645H94.2627V29.9365Z" fill="#318794"/>
    <path d="M118.853 29.8174H128.01V37.5786H118.853V48.0791H110.393V37.5786H101.208V29.8174H110.393V19.6123H118.853V29.8174Z" fill="#C72C28"/>
    <path d="M4.8291 66.2935H11.9829V69H1.45996V52.6484H4.8291V66.2935ZM26.6387 61.1948C26.6387 62.8045 26.3542 64.2158 25.7852 65.4287C25.2161 66.6416 24.4001 67.5775 23.3369 68.2363C22.2812 68.8952 21.0684 69.2246 19.6982 69.2246C18.3431 69.2246 17.134 68.8989 16.0708 68.2476C15.0076 67.5962 14.1841 66.6678 13.6001 65.4624C13.0161 64.2495 12.7204 62.8569 12.7129 61.2847V60.4761C12.7129 58.8664 13.0011 57.4513 13.5776 56.231C14.1616 55.0031 14.9814 54.0635 16.0371 53.4121C17.1003 52.7533 18.3132 52.4238 19.6758 52.4238C21.0384 52.4238 22.2476 52.7533 23.3032 53.4121C24.3664 54.0635 25.1862 55.0031 25.7627 56.231C26.3467 57.4513 26.6387 58.8626 26.6387 60.4648V61.1948ZM23.2246 60.4536C23.2246 58.7391 22.9176 57.4364 22.3037 56.5454C21.6898 55.6545 20.8138 55.209 19.6758 55.209C18.5452 55.209 17.673 55.6507 17.0591 56.5342C16.4451 57.4102 16.1344 58.6979 16.127 60.3975V61.1948C16.127 62.8644 16.4339 64.1597 17.0479 65.0806C17.6618 66.0015 18.5452 66.4619 19.6982 66.4619C20.8288 66.4619 21.6973 66.0202 22.3037 65.1367C22.9102 64.2458 23.2171 62.9505 23.2246 61.251V60.4536ZM42.0244 66.9336C41.418 67.6598 40.5607 68.2251 39.4526 68.6294C38.3446 69.0262 37.1167 69.2246 35.769 69.2246C34.354 69.2246 33.1112 68.9176 32.0405 68.3037C30.9774 67.6823 30.1538 66.7839 29.5698 65.6084C28.9933 64.4329 28.6976 63.0516 28.6826 61.4644V60.3525C28.6826 58.7204 28.9559 57.3091 29.5024 56.1187C30.0565 54.9207 30.8501 54.0073 31.8833 53.3784C32.924 52.742 34.1406 52.4238 35.5332 52.4238C37.4723 52.4238 38.9884 52.888 40.0815 53.8164C41.1746 54.7373 41.8223 56.0812 42.0244 57.8481H38.7451C38.5954 56.9123 38.2622 56.2272 37.7456 55.793C37.2365 55.3587 36.5327 55.1416 35.6343 55.1416C34.4888 55.1416 33.6165 55.5721 33.0176 56.4331C32.4186 57.2941 32.1154 58.5744 32.1079 60.2739V61.3184C32.1079 63.0329 32.4336 64.3281 33.085 65.2041C33.7363 66.0801 34.6909 66.5181 35.9487 66.5181C37.214 66.5181 38.1162 66.2485 38.6553 65.7095V62.8906H35.5894V60.4087H42.0244V66.9336ZM48.3472 69H44.978V52.6484H48.3472V69ZM59.9595 64.71C59.9595 64.0736 59.7349 63.5869 59.2856 63.25C58.8364 62.9056 58.0278 62.5462 56.8599 62.1719C55.6919 61.79 54.7673 61.4157 54.0859 61.0488C52.2292 60.0456 51.3008 58.6942 51.3008 56.9946C51.3008 56.1112 51.5479 55.325 52.042 54.6362C52.5436 53.9399 53.2586 53.3971 54.187 53.0078C55.1229 52.6185 56.1711 52.4238 57.3315 52.4238C58.4995 52.4238 59.5402 52.6372 60.4536 53.064C61.367 53.4832 62.0745 54.0785 62.5762 54.8496C63.0853 55.6208 63.3398 56.4967 63.3398 57.4775H59.9707C59.9707 56.7288 59.7349 56.1486 59.2632 55.7368C58.7915 55.3175 58.1289 55.1079 57.2754 55.1079C56.4518 55.1079 55.8117 55.2839 55.355 55.6357C54.8983 55.9801 54.6699 56.4368 54.6699 57.0059C54.6699 57.5374 54.9357 57.9829 55.4673 58.3423C56.0063 58.7017 56.7962 59.0386 57.8369 59.353C59.7536 59.9295 61.1499 60.6445 62.0259 61.498C62.9019 62.3516 63.3398 63.4147 63.3398 64.6875C63.3398 66.1025 62.8045 67.2144 61.7339 68.0229C60.6632 68.8241 59.222 69.2246 57.4102 69.2246C56.1523 69.2246 55.0068 68.9963 53.9736 68.5396C52.9404 68.0754 52.1506 67.4427 51.604 66.6416C51.0649 65.8405 50.7954 64.9121 50.7954 63.8564H54.1758C54.1758 65.6608 55.2539 66.563 57.4102 66.563C58.2113 66.563 58.8364 66.402 59.2856 66.0801C59.7349 65.7507 59.9595 65.2939 59.9595 64.71ZM77.9395 55.3774H72.9307V69H69.5615V55.3774H64.6201V52.6484H77.9395V55.3774ZM83.4536 69H80.0845V52.6484H83.4536V69ZM99.4233 63.5532C99.2961 65.3127 98.6447 66.6978 97.4692 67.7085C96.3013 68.7192 94.759 69.2246 92.8423 69.2246C90.7459 69.2246 89.0951 68.5208 87.8896 67.1133C86.6917 65.6982 86.0928 63.7591 86.0928 61.2959V60.2964C86.0928 58.7241 86.3698 57.339 86.9238 56.1411C87.4779 54.9432 88.2677 54.026 89.2935 53.3896C90.3267 52.7458 91.5246 52.4238 92.8872 52.4238C94.7739 52.4238 96.2938 52.9292 97.4468 53.9399C98.5998 54.9507 99.2661 56.3695 99.4458 58.1963H96.0767C95.9943 57.1406 95.6986 56.377 95.1895 55.9053C94.6878 55.4261 93.9204 55.1865 92.8872 55.1865C91.7642 55.1865 90.9219 55.5908 90.3604 56.3994C89.8063 57.2005 89.5218 58.4471 89.5068 60.1392V61.3745C89.5068 63.1414 89.7726 64.4329 90.3042 65.249C90.8433 66.0651 91.6893 66.4731 92.8423 66.4731C93.883 66.4731 94.6579 66.2373 95.167 65.7656C95.6836 65.2865 95.9793 64.549 96.0542 63.5532H99.4233Z" fill="#050001"/>
</svg>
