<svg width="39" height="39" viewBox="0 0 39 39" fill="none" xmlns="http://www.w3.org/2000/svg">
    <path d="M19.4999 1.21875C16.2693 1.21942 13.0965 2.07603 10.3045 3.70138C7.51246 5.32672 5.20092 7.66278 3.60512 10.4718C2.00932 13.2808 1.18624 16.4624 1.21965 19.6929C1.25307 22.9234 2.14178 26.0873 3.79534 28.8627C3.71208 28.9636 3.66355 29.0887 3.65692 29.2193C3.65029 29.3499 3.68593 29.4792 3.75855 29.5881L4.44866 30.6232L1.51452 32.3837C1.40905 32.447 1.32519 32.5407 1.27397 32.6525C1.22275 32.7644 1.20658 32.8891 1.22757 33.0103C1.24856 33.1315 1.30574 33.2435 1.39158 33.3316C1.47743 33.4197 1.58792 33.4797 1.70853 33.5038L4.23797 34.0097L4.06864 37.1389C4.06266 37.2494 4.08687 37.3594 4.13869 37.4572C4.1905 37.555 4.26796 37.6368 4.36275 37.6939C4.45755 37.751 4.5661 37.7812 4.67675 37.7812C4.78741 37.7813 4.89599 37.7512 4.99085 37.6943L9.64495 34.8988C12.5874 36.7808 16.0073 37.7809 19.5002 37.7809C22.9931 37.7809 26.4129 36.7808 29.3554 34.8988L34.0095 37.6943C34.1044 37.7512 34.213 37.7813 34.3236 37.7812C34.4343 37.7812 34.5428 37.751 34.6376 37.6939C34.7324 37.6368 34.8099 37.555 34.8617 37.4572C34.9135 37.3594 34.9377 37.2494 34.9317 37.1389L34.7624 34.0097L37.2918 33.5038C37.4124 33.4797 37.5229 33.4197 37.6088 33.3316C37.6946 33.2435 37.7518 33.1315 37.7728 33.0103C37.7938 32.8891 37.7776 32.7644 37.7264 32.6525C37.6752 32.5407 37.5913 32.447 37.4858 32.3837L34.5515 30.6232L35.2416 29.5881C35.3142 29.4792 35.3499 29.3499 35.3432 29.2192C35.3366 29.0885 35.288 28.9634 35.2046 28.8625C36.8588 26.0872 37.7479 22.9232 37.7816 19.6925C37.8152 16.4618 36.9922 13.2799 35.3963 10.4707C33.8004 7.66157 31.4886 5.32547 28.6962 3.70028C25.9039 2.07509 22.7308 1.21885 19.4999 1.21875ZM6.8835 28.6693C10.8209 26.7795 15.1325 25.7983 19.4999 25.7983C23.8673 25.7983 28.179 26.7795 32.1163 28.6693L33.8378 29.4958L32.0795 32.1333C28.1293 30.3357 23.8397 29.4056 19.4998 29.4056C15.1598 29.4056 10.8702 30.3357 6.91998 32.1333L5.16178 29.4958L6.8835 28.6693ZM19.4999 24.5795C16.0575 24.5844 12.6406 25.1706 9.39343 26.3134C8.0312 24.3028 7.30604 21.9286 7.31242 19.5C7.31242 12.7797 12.7797 7.3125 19.4999 7.3125C26.2202 7.3125 31.6874 12.7797 31.6874 19.5C31.6932 21.9285 30.968 24.3026 29.606 26.3133C26.359 25.1705 22.9422 24.5843 19.4999 24.5795ZM23.7176 30.9352C20.9952 31.9383 18.0044 31.9383 15.2821 30.9352C18.0786 30.5206 20.921 30.5206 23.7176 30.9352ZM5.34764 36.0583L5.48338 33.5486C5.49132 33.4023 5.44626 33.258 5.35646 33.1422C5.26666 33.0264 5.13813 32.9468 4.99443 32.9181L3.49316 32.6179L5.12553 31.6384L6.19604 33.2443C6.27731 33.3662 6.39977 33.4547 6.54099 33.4937C6.68221 33.5326 6.83273 33.5194 6.965 33.4564C7.37288 33.2622 7.78555 33.0778 8.20302 32.9032L8.88857 33.9315L5.34764 36.0583ZM10.3046 33.8745C10.2911 33.8441 10.2752 33.8148 10.2569 33.7869L9.36297 32.4463C10.6077 31.9863 11.8822 31.6111 13.1777 31.3232C15.1229 32.3625 17.2944 32.9063 19.4999 32.9063C21.7054 32.9063 23.8769 32.3625 25.8222 31.3232C27.1176 31.6109 28.3922 31.986 29.6369 32.4459L28.743 33.7866C28.7247 33.8144 28.7088 33.8436 28.6954 33.874C25.9497 35.6293 22.7589 36.5621 19.5 36.5621C16.2412 36.5621 13.0504 35.6293 10.3047 33.874L10.3046 33.8745ZM35.5067 32.6176L34.0054 32.9178C33.8617 32.9466 33.7332 33.0261 33.6434 33.1419C33.5536 33.2578 33.5085 33.402 33.5165 33.5484L33.6522 36.0581L30.1113 33.9315L30.7969 32.9032C31.214 33.0782 31.6266 33.2626 32.0349 33.4564C32.1672 33.5195 32.3178 33.5328 32.4591 33.4938C32.6004 33.4549 32.723 33.3663 32.8042 33.2443L33.8748 31.6384L35.5067 32.6176ZM34.1305 28.2841L32.6438 27.5704C32.0314 27.2765 31.4091 27.0037 30.7766 26.7519C32.1725 24.5913 32.9122 22.0723 32.9062 19.5C32.9062 12.1077 26.8922 6.09375 19.4999 6.09375C12.1077 6.09375 6.09367 12.1077 6.09367 19.5C6.08698 22.0725 6.82649 24.5917 8.2226 26.7524C7.59108 27.0042 6.96901 27.277 6.35639 27.5706L4.87005 28.2841C3.31633 25.6949 2.47753 22.7399 2.43928 19.7206C2.40104 16.7013 3.16471 13.726 4.65234 11.0983C6.13997 8.47067 8.29826 6.28486 10.9068 4.76407C13.5154 3.24328 16.4809 2.44198 19.5004 2.44198C22.5199 2.44198 25.4854 3.24328 28.094 4.76407C30.7026 6.28486 32.8609 8.47067 34.3485 11.0983C35.8361 13.726 36.5998 16.7013 36.5615 19.7206C36.5233 22.7399 35.6845 25.6949 34.1308 28.2841H34.1305Z" fill="black"/>
    <path d="M25.2891 14.625H21.9375C21.7759 14.6248 21.621 14.5606 21.5068 14.4463C21.3926 14.3321 21.3283 14.1772 21.3281 14.0156V12.1875C21.3276 11.7028 21.1348 11.2382 20.7921 10.8954C20.4493 10.5527 19.9847 10.3599 19.5 10.3594H18.2812C18.1196 10.3594 17.9646 10.4236 17.8504 10.5379C17.7361 10.6521 17.6719 10.8071 17.6719 10.9688V12.3119C17.6731 12.7722 17.5831 13.2282 17.4069 13.6535C17.2307 14.0788 16.972 14.4649 16.6455 14.7895L16.2007 15.2344H12.7969C12.6353 15.2344 12.4803 15.2986 12.366 15.4129C12.2517 15.5271 12.1875 15.6821 12.1875 15.8438V22.5469C12.1875 22.7085 12.2517 22.8635 12.366 22.9778C12.4803 23.092 12.6353 23.1562 12.7969 23.1562H23.4609C23.7077 23.1563 23.9508 23.0964 24.1693 22.9817C24.3878 22.8671 24.5752 22.701 24.7153 22.4979C24.8554 22.2948 24.9441 22.0607 24.9737 21.8157C25.0034 21.5707 24.973 21.3222 24.8854 21.0915C25.1821 20.9038 25.4049 20.6193 25.516 20.2861C25.627 19.953 25.6195 19.5917 25.4947 19.2634C25.7915 19.0757 26.0143 18.7912 26.1254 18.458C26.2364 18.1248 26.2289 17.7635 26.1041 17.4353C26.3828 17.2587 26.5967 16.9964 26.7135 16.6878C26.8303 16.3792 26.8437 16.041 26.7518 15.7241C26.6599 15.4072 26.4676 15.1287 26.2038 14.9305C25.94 14.7323 25.619 14.6251 25.2891 14.625ZM13.4062 16.4531H15.8437V21.9375H13.4062V16.4531ZM25.2891 16.4531H24.6797C24.5181 16.4531 24.3631 16.5173 24.2488 16.6316C24.1345 16.7459 24.0703 16.9009 24.0703 17.0625C24.0703 17.2241 24.1345 17.3791 24.2488 17.4934C24.3631 17.6077 24.5181 17.6719 24.6797 17.6719C24.7605 17.6719 24.838 17.704 24.8951 17.7611C24.9523 17.8183 24.9844 17.8958 24.9844 17.9766C24.9844 18.0574 24.9523 18.1349 24.8951 18.192C24.838 18.2491 24.7605 18.2812 24.6797 18.2812H24.0703C23.9087 18.2812 23.7537 18.3455 23.6394 18.4597C23.5251 18.574 23.4609 18.729 23.4609 18.8906C23.4609 19.0522 23.5251 19.2072 23.6394 19.3215C23.7537 19.4358 23.9087 19.5 24.0703 19.5C24.1511 19.5 24.2286 19.5321 24.2858 19.5892C24.3429 19.6464 24.375 19.7239 24.375 19.8047C24.375 19.8855 24.3429 19.963 24.2858 20.0201C24.2286 20.0773 24.1511 20.1094 24.0703 20.1094H23.4609C23.2993 20.1094 23.1443 20.1736 23.03 20.2879C22.9158 20.4021 22.8516 20.5571 22.8516 20.7188C22.8516 20.8804 22.9158 21.0354 23.03 21.1496C23.1443 21.2639 23.2993 21.3281 23.4609 21.3281C23.5417 21.3281 23.6192 21.3602 23.6764 21.4174C23.7335 21.4745 23.7656 21.552 23.7656 21.6328C23.7656 21.7136 23.7335 21.7911 23.6764 21.8483C23.6192 21.9054 23.5417 21.9375 23.4609 21.9375H17.0625V16.0961L17.5074 15.6513C17.9473 15.2138 18.2961 14.6934 18.5335 14.1202C18.7709 13.5469 18.8923 12.9323 18.8906 12.3119V11.5781H19.5C19.6616 11.5783 19.8165 11.6426 19.9307 11.7568C20.0449 11.871 20.1092 12.0259 20.1094 12.1875V14.0156C20.1099 14.5003 20.3027 14.965 20.6454 15.3077C20.9882 15.6504 21.4528 15.8432 21.9375 15.8438H25.2891C25.3699 15.8438 25.4474 15.8759 25.5045 15.933C25.5616 15.9901 25.5937 16.0676 25.5937 16.1484C25.5937 16.2292 25.5616 16.3067 25.5045 16.3639C25.4474 16.421 25.3699 16.4531 25.2891 16.4531Z" fill="black"/>
    <path d="M18.2362 27.4371L18.7998 27.8467L18.5845 28.5094C18.5696 28.5553 18.5695 28.6048 18.5844 28.6507C18.5993 28.6966 18.6284 28.7366 18.6675 28.765C18.7065 28.7934 18.7535 28.8087 18.8018 28.8087C18.8501 28.8086 18.8971 28.7933 18.9362 28.765L19.4999 28.3554L20.0635 28.765C20.1026 28.7933 20.1496 28.8086 20.1979 28.8087C20.2462 28.8087 20.2932 28.7934 20.3323 28.765C20.3713 28.7366 20.4004 28.6966 20.4153 28.6507C20.4302 28.6048 20.4302 28.5553 20.4152 28.5094L20.1999 27.8467L20.7635 27.4371C20.8026 27.4088 20.8316 27.3688 20.8466 27.3229C20.8615 27.277 20.8615 27.2275 20.8466 27.1817C20.8317 27.1358 20.8026 27.0958 20.7636 27.0674C20.7245 27.039 20.6775 27.0237 20.6293 27.0237H19.9325L19.7172 26.361C19.7023 26.3152 19.6732 26.2752 19.6342 26.2468C19.5951 26.2185 19.5481 26.2032 19.4999 26.2032C19.4516 26.2032 19.4046 26.2185 19.3656 26.2468C19.3265 26.2752 19.2975 26.3152 19.2825 26.361L19.0672 27.0237H18.3705C18.3222 27.0237 18.2752 27.039 18.2361 27.0674C18.1971 27.0958 18.1681 27.1358 18.1531 27.1817C18.1382 27.2275 18.1382 27.277 18.1532 27.3229C18.1681 27.3688 18.1971 27.4088 18.2362 27.4371Z" fill="black"/>
    <path d="M14.7197 27.8775L15.2834 28.2871L15.068 28.9498C15.0531 28.9957 15.053 29.0452 15.068 29.0911C15.0829 29.137 15.1119 29.177 15.151 29.2054C15.19 29.2338 15.2371 29.2491 15.2853 29.2491C15.3336 29.2491 15.3807 29.2338 15.4197 29.2054L15.9834 28.7958L16.547 29.2054C16.5861 29.2338 16.6331 29.2491 16.6814 29.2491C16.7297 29.2491 16.7767 29.2338 16.8158 29.2054C16.8548 29.177 16.8839 29.137 16.8988 29.0911C16.9137 29.0452 16.9137 28.9957 16.8987 28.9498L16.6834 28.2871L17.2471 27.8775C17.2861 27.8492 17.3152 27.8092 17.3301 27.7633C17.345 27.7174 17.345 27.668 17.3301 27.6221C17.3152 27.5762 17.2861 27.5362 17.2471 27.5078C17.208 27.4795 17.161 27.4642 17.1128 27.4642H16.4159L16.2007 26.8015C16.1858 26.7556 16.1567 26.7155 16.1177 26.6872C16.0786 26.6588 16.0316 26.6435 15.9833 26.6435C15.9351 26.6435 15.888 26.6588 15.849 26.6872C15.8099 26.7155 15.7809 26.7556 15.766 26.8015L15.5507 27.4642H14.854C14.8057 27.4642 14.7587 27.4795 14.7197 27.5078C14.6806 27.5362 14.6516 27.5762 14.6367 27.6221C14.6218 27.668 14.6218 27.7174 14.6367 27.7633C14.6516 27.8092 14.6806 27.8492 14.7197 27.8775Z" fill="black"/>
    <path d="M21.7529 27.8775L22.3166 28.2871L22.1012 28.9498C22.0863 28.9957 22.0863 29.0452 22.1012 29.0911C22.1161 29.137 22.1451 29.177 22.1842 29.2054C22.2232 29.2338 22.2703 29.2491 22.3185 29.2491C22.3668 29.2491 22.4139 29.2338 22.4529 29.2054L23.0166 28.7958L23.5802 29.2054C23.6193 29.2338 23.6663 29.2491 23.7146 29.2491C23.7629 29.2491 23.8099 29.2338 23.849 29.2054C23.888 29.177 23.9171 29.137 23.932 29.0911C23.9469 29.0452 23.9469 28.9957 23.9319 28.9498L23.7166 28.2871L24.2803 27.8775C24.3193 27.8492 24.3484 27.8092 24.3633 27.7633C24.3782 27.7174 24.3782 27.6679 24.3633 27.622C24.3483 27.5761 24.3193 27.5361 24.2802 27.5078C24.2412 27.4794 24.1942 27.4642 24.1459 27.4642H23.4492L23.2339 26.8015C23.219 26.7556 23.1899 26.7155 23.1509 26.6872C23.1118 26.6588 23.0648 26.6435 23.0165 26.6435C22.9683 26.6435 22.9212 26.6588 22.8822 26.6872C22.8431 26.7155 22.8141 26.7556 22.7992 26.8015L22.5839 27.4642H21.8872C21.8389 27.4642 21.7919 27.4795 21.7529 27.5078C21.7138 27.5362 21.6848 27.5762 21.6699 27.6221C21.655 27.668 21.655 27.7174 21.6699 27.7633C21.6848 27.8092 21.7138 27.8492 21.7529 27.8775Z" fill="black"/>
</svg>
