<svg width="32" height="32" viewBox="0 0 32 32" fill="none" xmlns="http://www.w3.org/2000/svg">
    <path d="M26.1333 3.2H25.5999V2.66667C25.5981 1.19453 24.4054 0.00182292 22.9333 0H5.86662C4.39448 0.00182292 3.20177 1.19453 3.19995 2.66667V26.1333C3.20177 27.6055 4.39448 28.7982 5.86662 28.8H6.39995V29.3333C6.40177 30.8055 7.59448 31.9982 9.06662 32H26.1333C27.6054 31.9982 28.7981 30.8055 28.7999 29.3333V5.86667C28.7981 4.39453 27.6054 3.20182 26.1333 3.2ZM21.3333 1.06667V3.5125L20.6437 2.82292C20.4354 2.61484 20.0979 2.61484 19.8895 2.82292L19.2 3.5125V1.06667H21.3333ZM4.26662 26.1333V2.66667C4.26662 1.78307 4.98302 1.06667 5.86662 1.06667H18.1333V4.8C18.1333 5.01563 18.2632 5.21016 18.4625 5.29271C18.6617 5.37526 18.8911 5.32943 19.0437 5.17708L20.2666 3.95417L21.4895 5.17708C21.6421 5.32943 21.8716 5.37526 22.0708 5.29271C22.27 5.21016 22.4 5.01563 22.4 4.8V1.06667H22.9333C23.8169 1.06667 24.5333 1.78307 24.5333 2.66667V26.1333C24.5333 27.0169 23.8169 27.7333 22.9333 27.7333H5.86662C4.98302 27.7333 4.26662 27.0169 4.26662 26.1333ZM27.7333 29.3333C27.7333 30.2169 27.0169 30.9333 26.1333 30.9333H9.06662C8.18302 30.9333 7.46662 30.2169 7.46662 29.3333V28.8H22.9333C24.4054 28.7982 25.5981 27.6055 25.5999 26.1333V4.26667H26.1333C27.0169 4.26667 27.7333 4.98307 27.7333 5.86667V29.3333Z" fill="black"/>
    <path d="M11.6966 5.14921C11.6198 4.94088 11.4222 4.80156 11.2 4.8H6.93336C6.63883 4.8 6.40002 5.0388 6.40002 5.33333V9.6C6.40002 9.89453 6.63883 10.1333 6.93336 10.1333H11.2C11.4946 10.1333 11.7334 9.89453 11.7334 9.6V6.62083L13.1771 5.17708L12.4229 4.42291L11.6966 5.14921ZM10.6667 9.06666H7.46669V5.86666H10.6667V6.17916L9.60002 7.24583L8.91044 6.55625L8.15627 7.31041L9.22294 8.37708C9.43127 8.58515 9.76877 8.58515 9.97711 8.37708L10.6667 7.6875V9.06666Z" fill="black"/>
    <path d="M12.4229 11.8896L11.6966 12.6159C11.6198 12.4076 11.4222 12.2682 11.2 12.2667H6.93336C6.63883 12.2667 6.40002 12.5055 6.40002 12.8V17.0667C6.40002 17.3612 6.63883 17.6 6.93336 17.6H11.2C11.4946 17.6 11.7334 17.3612 11.7334 17.0667V14.0875L13.1771 12.6438L12.4229 11.8896ZM10.6667 16.5333H7.46669V13.3333H10.6667V13.6458L9.60002 14.7125L8.91044 14.0229L8.15627 14.7771L9.22294 15.8438C9.43127 16.0518 9.76877 16.0518 9.97711 15.8438L10.6667 15.1542V16.5333Z" fill="black"/>
    <path d="M11.2 19.2H6.93336C6.63883 19.2 6.40002 19.4388 6.40002 19.7333V24C6.40002 24.2945 6.63883 24.5333 6.93336 24.5333H11.2C11.4946 24.5333 11.7334 24.2945 11.7334 24V19.7333C11.7334 19.4388 11.4946 19.2 11.2 19.2ZM10.6667 23.4667H7.46669V20.2667H10.6667V23.4667Z" fill="black"/>
    <path d="M13.8667 8H19.2V9.06667H13.8667V8Z" fill="black"/>
    <path d="M13.8667 5.86664H17.0667V6.9333H13.8667V5.86664Z" fill="black"/>
    <path d="M13.8667 15.4667H19.2V16.5333H13.8667V15.4667Z" fill="black"/>
    <path d="M13.8667 13.3333H17.0667V14.4H13.8667V13.3333Z" fill="black"/>
    <path d="M13.8667 22.4H19.2V23.4666H13.8667V22.4Z" fill="black"/>
    <path d="M13.8667 20.2667H17.0667V21.3333H13.8667V20.2667Z" fill="black"/>
    <path d="M18.1333 20.2667H19.2V21.3333H18.1333V20.2667Z" fill="black"/>
</svg>
