<svg width="35" height="35" viewBox="0 0 35 35" fill="none" xmlns="http://www.w3.org/2000/svg">
    <g clip-path="url(#clip0_2_432)">
        <path d="M11.8091 17.4046C12.1866 17.4046 12.4927 17.0986 12.4927 16.721C12.4927 16.3435 12.1866 16.0374 11.8091 16.0374C11.4315 16.0374 11.1255 16.3435 11.1255 16.721C11.1255 17.0986 11.4315 17.4046 11.8091 17.4046Z" fill="black"/>
        <path d="M16.9811 10.6984C14.9004 10.6984 12.9864 11.745 11.8612 13.4982C11.6569 13.8165 11.7494 14.2402 12.0677 14.4445C12.3861 14.6488 12.8098 14.5564 13.0141 14.238C13.8861 12.8793 15.3691 12.0681 16.9811 12.0681C19.5782 12.0681 21.691 14.181 21.691 16.778C21.691 19.3749 19.5781 21.4878 16.9811 21.4878C15.3253 21.4878 13.821 20.6427 12.9574 19.2272C12.7603 18.9043 12.3388 18.8022 12.0159 18.9992C11.693 19.1963 11.5909 19.6178 11.7879 19.9407C12.9024 21.7672 14.8438 22.8576 16.9811 22.8576C20.3335 22.8576 23.0609 20.1303 23.0609 16.7779C23.0609 13.4255 20.3334 10.6984 16.9811 10.6984Z" fill="black"/>
        <path d="M32.7004 23.3572L33.6033 21.2515C33.7523 20.9039 33.5914 20.5013 33.2439 20.3521L30.0303 18.9734C30.2596 17.6248 30.277 16.2624 30.082 14.9097L33.3274 13.6122C33.6785 13.4718 33.8494 13.0734 33.7091 12.7221L31.8982 8.18792C31.8308 8.01921 31.6991 7.88413 31.5321 7.81249C31.3652 7.74091 31.1766 7.73852 31.0079 7.80592L27.762 9.10345C26.9705 7.98817 26.0186 7.01255 24.9226 6.19374L26.3012 2.98051C26.4504 2.6329 26.2895 2.23019 25.9419 2.08103L21.4557 0.155692C21.2886 0.0840513 21.1001 0.0816587 20.9314 0.149061C20.7627 0.216463 20.6277 0.348123 20.556 0.515057L19.1773 3.72877C17.8276 3.49963 16.4647 3.48233 15.1123 3.67702L13.8146 0.430838C13.6743 0.0796079 13.2756 -0.0912221 12.9245 0.0490513L8.39026 1.86139C8.22155 1.9288 8.0866 2.06046 8.01496 2.22746C7.94339 2.39439 7.941 2.583 8.00847 2.75164L9.306 5.99761C8.19318 6.78764 7.21776 7.73921 6.39683 8.83576L3.18298 7.45695C3.01605 7.38538 2.82751 7.38299 2.65873 7.45039C2.49002 7.51779 2.35501 7.64945 2.28344 7.81645L0.358779 12.3049C0.209687 12.6525 0.370673 13.0552 0.718281 13.2043L3.93172 14.5823C3.70237 15.9313 3.68528 17.2939 3.88059 18.6467L0.634746 19.9442C0.283584 20.0846 0.112617 20.4831 0.25289 20.8343L2.06387 25.3679C2.13127 25.5366 2.26293 25.6716 2.42993 25.7432C2.59687 25.8149 2.78547 25.8172 2.95418 25.7498L6.20002 24.4522C6.99155 25.5676 7.94346 26.5434 9.03946 27.3625L7.66086 30.5759C7.51177 30.9236 7.67262 31.3263 8.02023 31.4754L12.5072 33.4007C12.6741 33.4722 12.8627 33.4747 13.0314 33.4073C13.2002 33.3399 13.3352 33.2081 13.4067 33.0412L14.7849 29.8274C16.1358 30.0563 17.4984 30.0738 18.8498 29.8793L20.1474 33.1255C20.2545 33.3934 20.5117 33.5564 20.7836 33.5564C20.8682 33.5564 20.9543 33.5406 21.0376 33.5073L22.99 32.7269C24.2286 34.1204 26.0333 35 28.0399 35C31.7652 35 34.7959 31.9692 34.7959 28.2439C34.7959 26.3239 33.9908 24.5884 32.7004 23.3572ZM21.1652 31.9811L19.9174 28.8595C19.796 28.5558 19.4769 28.3802 19.1551 28.4405C17.6157 28.7293 16.0546 28.7095 14.5152 28.3815C14.1951 28.3134 13.8719 28.4809 13.743 28.7814L12.4178 31.8717L9.18979 30.4866L10.5156 27.3961C10.6447 27.0953 10.5428 26.7452 10.2726 26.5606C8.97575 25.6744 7.88556 24.557 7.0323 23.2394C6.85449 22.9647 6.50709 22.8543 6.20317 22.9757L3.08181 24.2234L1.77901 20.962L4.90071 19.7141C5.20457 19.5927 5.38012 19.2731 5.31962 18.9515C5.02971 17.41 5.04933 15.8494 5.37793 14.3131C5.44636 13.9931 5.27888 13.6694 4.9781 13.5404L1.88771 12.2151L3.27246 8.98588L6.36278 10.3116C6.66309 10.4405 7.01302 10.339 7.19786 10.0693C8.08736 8.77089 9.20469 7.68096 10.5188 6.82968C10.7935 6.65174 10.904 6.30448 10.7825 6.00055L9.53466 2.8792L12.7968 1.57531L14.0447 4.69687C14.1661 5.00066 14.4853 5.17628 14.8069 5.11585C16.348 4.82676 17.909 4.84665 19.4466 5.17484C19.7666 5.24327 20.09 5.07565 20.219 4.77508L21.5448 1.68475L24.7722 3.06985L23.4463 6.16031C23.3173 6.46116 23.4191 6.8113 23.6895 6.996C24.9863 7.88167 26.0764 8.99886 26.9297 10.3164C27.1075 10.5912 27.4549 10.7016 27.7588 10.5802L30.8801 9.33239L32.1829 12.5945L29.0619 13.8423C28.7581 13.9637 28.5827 14.2831 28.643 14.6047C28.9324 16.1462 28.9126 17.7066 28.584 19.2425C28.5156 19.5625 28.6831 19.8862 28.9837 20.0152L32.0743 21.3411L31.5806 22.4926C30.5503 21.856 29.3372 21.488 28.0398 21.488C24.3144 21.488 21.2837 24.5187 21.2837 28.244C21.2837 29.4568 21.6051 30.5958 22.1669 31.5807L21.1652 31.9811ZM28.0399 33.6302C25.0699 33.6302 22.6536 31.2139 22.6536 28.2439C22.6536 25.274 25.0699 22.8578 28.0399 22.8578C31.0098 22.8578 33.4261 25.274 33.4261 28.2439C33.4261 31.2139 31.0098 33.6302 28.0399 33.6302Z" fill="black"/>
        <path d="M31.4882 25.8234C31.2027 25.5751 30.7701 25.6053 30.5219 25.8907L27.5604 29.2953L25.8856 27.7946C25.6038 27.5422 25.1708 27.5659 24.9184 27.8477C24.6659 28.1294 24.6897 28.5624 24.9714 28.8149L27.164 30.7794C27.2899 30.8922 27.4528 30.9542 27.621 30.9542C27.6352 30.9542 27.6494 30.9538 27.6636 30.9528C27.8467 30.9415 28.0175 30.8571 28.1378 30.7187L31.5554 26.7897C31.8037 26.5043 31.7736 26.0717 31.4882 25.8234Z" fill="black"/>
    </g>
    <defs>
        <clipPath id="clip0_2_432">
            <rect width="35" height="35" fill="white"/>
        </clipPath>
    </defs>
</svg>
