<svg width="36" height="36" viewBox="0 0 36 36" fill="none" xmlns="http://www.w3.org/2000/svg">
    <g clip-path="url(#clip0_2_445)">
        <path d="M20.3999 0H8.39993C6.74568 0 5.3999 1.34578 5.3999 3.00002V24.6C5.3999 26.2542 6.74568 27.6 8.39993 27.6H19.1999V26.4H8.39993C7.40754 26.4 6.59993 25.5924 6.59993 24.6V3.00002C6.59993 2.00763 7.40754 1.20002 8.39993 1.20002H20.3999C21.3923 1.20002 22.1999 2.00763 22.1999 3.00002V20.4H23.3999V3.00002C23.3999 1.34578 22.0541 0 20.3999 0Z" fill="black"/>
        <path d="M29.1546 15.9816L23.2686 8.62561L22.3308 9.37563L28.2168 16.731C28.9806 17.685 29.4006 18.8839 29.4 20.106V34.8H20.622C17.5225 34.8 15.0001 32.2782 15.0001 29.178V27H13.8V29.178C13.8 32.9394 16.8607 36 20.622 36H30C30.3319 36 30.6 35.7319 30.6 35.4V20.1067C30.6007 18.6139 30.0877 17.1486 29.1546 15.9816Z" fill="black"/>
        <path d="M15.5976 14.1499C16.0188 14.1619 16.4107 14.337 16.6992 14.643L24.7627 23.211L25.6369 22.3884L17.5722 13.8198C17.0628 13.2804 16.3734 12.9714 15.6318 12.9504C14.8824 12.9252 14.1846 13.1982 13.6518 13.7016C13.6452 13.7082 13.5972 13.7538 13.5912 13.7604C12.5658 14.7888 12.4968 16.4028 13.4322 17.5176L18.6001 23.6196V25.476C18.5994 28.7916 20.6845 31.7994 23.7895 32.9622L24.2106 31.8384C21.5718 30.8502 19.7994 28.2936 19.8 25.476V23.4C19.8 23.2584 19.7496 23.1204 19.6578 23.0118L14.3497 16.7436C13.8187 16.1112 13.8577 15.1926 14.4697 14.58C14.7756 14.2908 15.1752 14.1474 15.5976 14.1499Z" fill="black"/>
        <path d="M19.8 1.20001H18.6V16.2H19.8V1.20001Z" fill="black"/>
        <path d="M16.8 19.8H15.6V27H16.8V19.8Z" fill="black"/>
        <path d="M16.8 0.599945H15.6V13.7999H16.8V0.599945Z" fill="black"/>
        <path d="M9.60005 3.00003H8.40002V10.8H9.60005V3.00003Z" fill="black"/>
        <path d="M12.6001 3.00003H11.4V7.80005H12.6001V3.00003Z" fill="black"/>
        <path d="M12.6 19.8H9C8.66883 19.8 8.40002 20.0681 8.40002 20.3999V23.9999C8.40002 24.3317 8.66883 24.5999 9 24.5999H12.6C12.9312 24.5999 13.2 24.3317 13.2 23.9999V20.3999C13.2 20.0681 12.9312 19.8 12.6 19.8ZM12 23.4H9.60005V21H12V23.4Z" fill="black"/>
    </g>
    <defs>
        <clipPath id="clip0_2_445">
            <rect width="36" height="36" fill="white"/>
        </clipPath>
    </defs>
</svg>
