<svg width="38" height="38" viewBox="0 0 38 38" fill="none" xmlns="http://www.w3.org/2000/svg">
    <path d="M4.75 21.3595C5.0779 21.3595 5.34375 21.6253 5.34375 21.9532V26.1136H6.28841C6.52123 24.0543 8.37937 22.5736 10.4386 22.8064C12.1773 23.0029 13.5493 24.375 13.7459 26.1136H26.125V8.8949H5.34375V10.7622C5.34375 11.0901 5.0779 11.356 4.75 11.356C4.4221 11.356 4.15625 11.0901 4.15625 10.7622V8.30115C4.15625 7.97325 4.4221 7.7074 4.75 7.7074H26.7188C27.0466 7.7074 27.3125 7.97325 27.3125 8.30115V8.8949H34.1121C35.6027 8.89683 36.8106 10.1047 36.8125 11.5953V12.4574C36.8125 12.7853 36.5466 13.0511 36.2188 13.0511H35.5282L35.9813 18.4929C37.1669 18.8015 37.9958 19.8701 38 21.0953V26.1136C38 26.4415 37.7341 26.7074 37.4062 26.7074H36.2039C36.0411 28.8306 34.1879 30.42 32.0647 30.2572C30.1676 30.1118 28.6603 28.6044 28.5148 26.7074C28.5095 26.7074 28.5053 26.7104 28.5 26.7104H27.3125C27.3125 27.0383 27.0466 27.3041 26.7188 27.3041H13.6919C13.2689 29.3336 11.2807 30.6359 9.25122 30.213C7.78933 29.9083 6.6471 28.766 6.34244 27.3041H4.75C4.4221 27.3041 4.15625 27.0383 4.15625 26.7104V21.9532C4.15625 21.6253 4.4221 21.3595 4.75 21.3595ZM32.3594 29.0824C33.835 29.0824 35.0312 27.8861 35.0312 26.4105C35.0312 24.9349 33.835 23.7386 32.3594 23.7386C30.8838 23.7386 29.6875 24.9349 29.6875 26.4105C29.6891 27.8855 30.8844 29.0808 32.3594 29.0824ZM27.3125 25.5199H28.5C28.5348 25.5235 28.5692 25.5304 28.6027 25.5407C29.0802 23.466 31.1492 22.1714 33.2237 22.6489C34.6542 22.9781 35.7735 24.0913 36.1107 25.5199H36.8125V21.0953C36.8115 20.2602 36.1347 19.5834 35.2996 19.5824H27.3125V25.5199ZM27.3125 18.3949H34.7819L34.3366 13.0511H27.3125V18.3949ZM27.3125 11.8636H35.625V11.5953C35.624 10.7602 34.9472 10.0834 34.1121 10.0824H27.3125V11.8636ZM7.4549 26.6836C7.5312 28.042 8.65613 29.1037 10.0166 29.1014H10.0172C11.2629 29.0986 12.3266 28.2014 12.5394 26.974C12.4354 26.7922 12.4472 26.5662 12.5697 26.3963C12.4903 24.9839 11.281 23.9032 9.86857 23.9825C8.45619 24.0619 7.37549 25.2712 7.4549 26.6836Z" fill="black"/>
    <path d="M5.34375 12.4574H13.6562C13.9841 12.4574 14.25 12.7232 14.25 13.0511C14.25 13.379 13.9841 13.6449 13.6562 13.6449H5.34375C5.01585 13.6449 4.75 13.379 4.75 13.0511C4.75 12.7232 5.01585 12.4574 5.34375 12.4574Z" fill="black"/>
    <path d="M4.15625 18.9886H17.2188C17.5466 18.9886 17.8125 19.2545 17.8125 19.5824C17.8125 19.9103 17.5466 20.1761 17.2188 20.1761H4.15625C3.82835 20.1761 3.5625 19.9103 3.5625 19.5824C3.5625 19.2545 3.82835 18.9886 4.15625 18.9886Z" fill="black"/>
    <path d="M5.34375 15.4261H11.875C12.2029 15.4261 12.4688 15.692 12.4688 16.0199C12.4688 16.3478 12.2029 16.6136 11.875 16.6136H5.34375C5.01585 16.6136 4.75 16.3478 4.75 16.0199C4.75 15.692 5.01585 15.4261 5.34375 15.4261Z" fill="black"/>
    <path d="M2.96875 13.6449H1.78125C1.45335 13.6449 1.1875 13.379 1.1875 13.0511C1.1875 12.7232 1.45335 12.4574 1.78125 12.4574H2.96875C3.29665 12.4574 3.5625 12.7232 3.5625 13.0511C3.5625 13.379 3.29665 13.6449 2.96875 13.6449Z" fill="black"/>
    <path d="M1.1875 18.9886H2.375C2.7029 18.9886 2.96875 19.2545 2.96875 19.5824C2.96875 19.9103 2.7029 20.1761 2.375 20.1761H1.1875C0.859601 20.1761 0.59375 19.9103 0.59375 19.5824C0.59375 19.2545 0.859601 18.9886 1.1875 18.9886Z" fill="black"/>
    <path d="M0.59375 15.4261H2.96875C3.29665 15.4261 3.5625 15.692 3.5625 16.0199C3.5625 16.3478 3.29665 16.6136 2.96875 16.6136H0.59375C0.265851 16.6136 0 16.3478 0 16.0199C0 15.692 0.265851 15.4261 0.59375 15.4261Z" fill="black"/>
</svg>
