<svg width="32" height="32" viewBox="0 0 32 32" fill="none" xmlns="http://www.w3.org/2000/svg">
    <g clip-path="url(#clip0_2_438)">
        <path d="M30.319 20.8224C29.5904 19.5542 27.9755 19.1104 26.7013 19.8289L20.4026 23.0401C20.0552 22.6399 19.5958 22.3531 19.0839 22.2164L12.4901 20.4508C11.9857 20.3146 11.4523 20.3307 10.9568 20.4966L8.69323 21.2513C8.52995 21.3055 8.35885 21.3333 8.18672 21.3333H6.4V19.2H0V20.2667H5.33333V30.9333H0V32H6.4V30.4H7.20417C7.3349 30.4 7.4651 30.4162 7.59193 30.4479L11.3487 31.3867C11.5604 31.4399 11.7776 31.4667 11.9958 31.4667H16.4956C16.9635 31.4669 17.4234 31.3438 17.8289 31.1099L29.3445 24.462C30.1677 23.9846 30.6755 23.1063 30.6779 22.1547C30.6784 21.6867 30.5544 21.2268 30.319 20.8224ZM28.8107 23.538L17.2951 30.1867C17.0516 30.3266 16.7758 30.4 16.4951 30.4H11.9958C11.8651 30.4 11.7349 30.3839 11.6081 30.3521L7.8513 29.4133C7.63958 29.3602 7.4224 29.3333 7.20417 29.3333H6.4V22.4H8.18724C8.47396 22.4 8.75885 22.3539 9.03099 22.2636L11.2943 21.5089C11.5914 21.4091 11.9115 21.3995 12.2138 21.481L18.8081 23.2474C19.6607 23.48 20.1633 24.3596 19.9307 25.2123C19.6982 26.0649 18.8185 26.5675 17.9659 26.3349L12.9258 25.1274L12.6773 26.1654L17.7029 27.369C18.6471 27.6219 19.6539 27.3378 20.3268 26.6289C20.9995 25.9201 21.2307 24.8998 20.9292 23.9701L27.2102 20.7664C27.7057 20.4831 28.3143 20.4844 28.8086 20.7698C29.3029 21.0555 29.6083 21.5823 29.6102 22.1531C29.6091 22.7242 29.3047 23.2516 28.8107 23.538Z" fill="black"/>
        <path d="M20.2666 8.53329C16.7319 8.53329 13.8666 11.3987 13.8666 14.9333C13.8666 18.4679 16.7319 21.3333 20.2666 21.3333C23.8012 21.3333 26.6666 18.4679 26.6666 14.9333C26.6627 11.4002 23.7996 8.5372 20.2666 8.53329ZM20.2666 20.2666C17.321 20.2666 14.9332 17.8789 14.9332 14.9333C14.9332 11.9877 17.321 9.59996 20.2666 9.59996C23.2121 9.59996 25.5999 11.9877 25.5999 14.9333C25.5968 17.8776 23.2108 20.2635 20.2666 20.2666Z" fill="black"/>
        <path d="M27.2 0C24.549 0 22.4 2.14896 22.4 4.8C22.4 7.45104 24.549 9.6 27.2 9.6C29.8511 9.6 32 7.45104 32 4.8C31.9972 2.15026 29.8498 0.00286459 27.2 0ZM27.2 8.53333C25.138 8.53333 23.4667 6.86198 23.4667 4.8C23.4667 2.73802 25.138 1.06667 27.2 1.06667C29.262 1.06667 30.9334 2.73802 30.9334 4.8C30.931 6.86094 29.261 8.53099 27.2 8.53333Z" fill="black"/>
        <path d="M27.2 3.20001C27.4945 3.20001 27.7333 3.43881 27.7333 3.73334H28.8C28.7971 3.05782 28.3703 2.45678 27.7333 2.23152V1.60001H26.6666V2.23152C25.9325 2.49011 25.4919 3.24037 25.6237 4.00756C25.7557 4.77475 26.4216 5.3349 27.2 5.33334C27.4945 5.33334 27.7333 5.57214 27.7333 5.86667C27.7333 6.1612 27.4945 6.40001 27.2 6.40001C26.9054 6.40001 26.6666 6.1612 26.6666 5.86667H25.6C25.6028 6.54219 26.0297 7.14324 26.6666 7.3685V8.00001H27.7333V7.3685C28.4674 7.1099 28.908 6.35964 28.7763 5.59245C28.6442 4.82527 27.9784 4.26511 27.2 4.26667C26.9054 4.26667 26.6666 4.02787 26.6666 3.73334C26.6666 3.43881 26.9054 3.20001 27.2 3.20001Z" fill="black"/>
        <path d="M20.2668 12.2666C20.8558 12.2666 21.3334 12.7442 21.3334 13.3333H22.4001C22.3964 12.3635 21.7392 11.5182 20.8001 11.2757V10.1333H19.7334V11.2757C18.6944 11.5432 18.0165 12.5419 18.1522 13.6062C18.2876 14.6708 19.1938 15.4679 20.2668 15.4666C20.8558 15.4666 21.3334 15.9442 21.3334 16.5333C21.3334 17.1224 20.8558 17.6 20.2668 17.6C19.6777 17.6 19.2001 17.1224 19.2001 16.5333H18.1334C18.1371 17.5031 18.7944 18.3484 19.7334 18.5909V19.7333H20.8001V18.5909C21.8392 18.3234 22.517 17.3247 22.3813 16.2604C22.2459 15.1958 21.3397 14.3987 20.2668 14.4C19.6777 14.4 19.2001 13.9224 19.2001 13.3333C19.2001 12.7442 19.6777 12.2666 20.2668 12.2666Z" fill="black"/>
    </g>
    <defs>
        <clipPath id="clip0_2_438">
            <rect width="32" height="32" fill="white"/>
        </clipPath>
    </defs>
</svg>
