<svg display="none" xmlns="http://www.w3.org/2000/svg">

    <symbol id="arrow-left" viewBox="0 0 14 25">
        <path d="M11.6391 0.813809L0.951221 11.7781C0.763505 11.9706 0.658447 12.2289 0.658447 12.4979C0.658447 12.7668 0.763505 13.0251 0.951221 13.2177L11.6391 24.1861C11.7265 24.2759 11.8311 24.3473 11.9466 24.396C12.0621 24.4447 12.1861 24.4698 12.3115 24.4698C12.4368 24.4698 12.5609 24.4447 12.6764 24.396C12.7919 24.3473 12.8964 24.2759 12.9838 24.1861C13.1637 24.0019 13.2645 23.7546 13.2645 23.4972C13.2645 23.2397 13.1637 22.9925 12.9838 22.8083L2.93328 12.4979L12.9838 2.1895C13.1631 2.00541 13.2635 1.75861 13.2635 1.50165C13.2635 1.2447 13.1631 0.997891 12.9838 0.813809C12.8964 0.724001 12.7919 0.65262 12.6764 0.60388C12.5609 0.55514 12.4368 0.530029 12.3115 0.530029C12.1861 0.530029 12.0621 0.55514 11.9466 0.60388C11.8311 0.65262 11.7265 0.724001 11.6391 0.813809Z"/>
    </symbol>

    <symbol id="arrow-right" viewBox="0 0 14 25">
        <path d="M2.3609 0.813809L13.0488 11.7781C13.2365 11.9706 13.3416 12.2289 13.3416 12.4979C13.3416 12.7668 13.2365 13.0251 13.0488 13.2177L2.3609 24.1861C2.27346 24.2759 2.16891 24.3473 2.05343 24.396C1.93795 24.4447 1.81387 24.4698 1.68853 24.4698C1.56318 24.4698 1.4391 24.4447 1.32362 24.396C1.20814 24.3473 1.10359 24.2759 1.01615 24.1861C0.836255 24.0019 0.735542 23.7546 0.735542 23.4972C0.735542 23.2397 0.836255 22.9925 1.01615 22.8083L11.0667 12.4979L1.01615 2.1895C0.836872 2.00541 0.736549 1.75861 0.736549 1.50165C0.736549 1.2447 0.836872 0.997891 1.01615 0.813809C1.10359 0.724001 1.20814 0.65262 1.32362 0.60388C1.4391 0.55514 1.56318 0.530029 1.68853 0.530029C1.81387 0.530029 1.93795 0.55514 2.05343 0.60388C2.16891 0.65262 2.27346 0.724001 2.3609 0.813809Z"/>
    </symbol>

    <symbol id="close" viewBox="0 0 19 19">
        <line x1="1.16158" y1="18.1317" x2="18.1321" y2="1.16114"/>
        <line y1="-0.5" x2="24" y2="-0.5" transform="matrix(-0.707107 -0.707107 -0.707107 0.707107 17.9717 18.4852)"/>
    </symbol>

</svg>