<svg width="28" height="29" viewBox="0 0 28 29" fill="none" xmlns="http://www.w3.org/2000/svg">
    <g clip-path="url(#clip0_15_462)">
        <path d="M7.40065 24.8373L7.85839 25.0716C9.76589 26.2432 11.9021 26.7899 14.0384 26.7899C20.7524 26.7899 26.2456 21.1664 26.2456 14.2931C26.2456 11.0128 24.9486 7.81047 22.6598 5.46729C20.3709 3.12412 17.319 1.79639 14.0384 1.79639C7.32442 1.79639 1.83106 7.41992 1.9074 14.3713C1.9074 16.7144 2.59406 18.9795 3.73845 20.932L4.04361 21.4007L2.82298 26.0089L7.40065 24.8373Z" fill="#00E676"/>
        <path d="M23.9567 4.21765C21.3627 1.48404 17.7768 0 14.1146 0C6.33259 0 0.0763437 6.48268 0.152578 14.3712C0.152578 16.8706 0.839234 19.2919 1.98373 21.4788L0 28.8988L7.40064 26.9461C9.46061 28.1178 11.7494 28.6645 14.0384 28.6645C21.7442 28.6645 28.0004 22.1818 28.0004 14.2933C28.0004 10.4661 26.5508 6.87322 23.9568 4.21765H23.9567ZM14.1146 26.2433C12.0547 26.2433 9.99469 25.6967 8.23987 24.6032L7.78214 24.3688L3.35705 25.5404L4.50144 21.0885L4.19628 20.6198C0.839234 15.0744 2.44147 7.73236 7.93472 4.2957C13.428 0.859139 20.5235 2.49937 23.8805 8.12291C27.2374 13.7464 25.6352 21.0102 20.1421 24.4469C18.3871 25.6184 16.2509 26.2432 14.1146 26.2432V26.2433ZM20.8286 17.5738L19.9894 17.1832C19.9894 17.1832 18.7687 16.6365 18.0057 16.2459C17.9294 16.2459 17.8532 16.1678 17.7768 16.1678C17.5479 16.1678 17.3953 16.2459 17.2428 16.3241C17.2428 16.3241 17.1665 16.4021 16.0984 17.6518C16.022 17.808 15.8694 17.8862 15.7169 17.8862H15.6405C15.5643 17.8862 15.4117 17.808 15.3354 17.73L14.9539 17.5738C14.1146 17.1832 13.3517 16.7145 12.7413 16.0897C12.5887 15.9335 12.3598 15.7773 12.2072 15.6211C11.6732 15.0744 11.1391 14.4495 10.7577 13.7466L10.6813 13.5904C10.6051 13.5122 10.6051 13.4342 10.5288 13.278C10.5288 13.1218 10.5288 12.9656 10.6051 12.8874C10.6051 12.8874 10.9103 12.4969 11.1391 12.2626C11.2918 12.1063 11.368 11.8721 11.5206 11.7159C11.6732 11.4815 11.7495 11.1691 11.6732 10.9348C11.5969 10.5442 10.6813 8.43542 10.4525 7.96683C10.2998 7.73248 10.1474 7.65443 9.91845 7.57628H9.07922C8.92653 7.57628 8.77406 7.65443 8.62138 7.65443L8.54503 7.73247C8.39245 7.81063 8.23987 7.96683 8.0873 8.04487C7.93472 8.20118 7.85838 8.35726 7.7058 8.51357C7.17172 9.21651 6.86656 10.0757 6.86656 10.9348C6.86656 11.5596 7.01914 12.1845 7.24806 12.7312L7.32441 12.9656C8.01106 14.4495 8.92653 15.7773 10.1474 16.9489L10.4525 17.2613C10.6813 17.4956 10.9103 17.6518 11.0628 17.8861C12.6651 19.2921 14.4961 20.3074 16.5561 20.8541C16.785 20.9322 17.0902 20.9322 17.3191 21.0103H18.082C18.4635 21.0103 18.9212 20.8541 19.2265 20.6979C19.4553 20.5417 19.6079 20.5417 19.7605 20.3855L19.9131 20.2292C20.0657 20.073 20.2183 19.995 20.3709 19.8388C20.5235 19.6826 20.676 19.5264 20.7524 19.3701C20.905 19.0577 20.9812 18.6672 21.0575 18.2767V17.73C21.0575 17.73 20.9812 17.6518 20.8286 17.5738Z" fill="white"/>
    </g>
    <defs>
        <clipPath id="clip0_15_462">
            <rect width="28" height="29" fill="white"/>
        </clipPath>
    </defs>
</svg>
